<svg class="main-svg" xmlns="http://www.w3.org/2000/svg" xmlns:xlink="http://www.w3.org/1999/xlink" width="2200" height="1000" style="" viewBox="0 0 1100 500"><rect x="0" y="0" width="1100" height="500" style="fill: rgb(255, 255, 255); fill-opacity: 1;"/><defs id="defs-cfec1f"><g class="clips"><clipPath id="clipcfec1fxyplot" class="plotclip"><rect width="1025" height="385"/></clipPath><clipPath class="axesclip" id="clipcfec1fx"><rect x="60" y="0" width="1025" height="500"/></clipPath><clipPath class="axesclip" id="clipcfec1fy"><rect x="0" y="50" width="1100" height="385"/></clipPath><clipPath class="axesclip" id="clipcfec1fxy"><rect x="60" y="50" width="1025" height="385"/></clipPath></g><g class="gradients"/><g class="patterns"/></defs><g class="bglayer"/><g class="layer-below"><g class="imagelayer"/><g class="shapelayer"/></g><g class="cartesianlayer"><g class="subplot xy"><g class="layer-subplot"><g class="shapelayer"/><g class="imagelayer"/></g><g class="minor-gridlayer"><g class="x"/><g class="y"/></g><g class="gridlayer"><g class="x"><path class="xgrid crisp" transform="translate(208.79,0)" d="M0,50v385" style="stroke: rgb(128, 128, 128); stroke-opacity: 0.15; stroke-width: 1px;"/><path class="xgrid crisp" transform="translate(374.11,0)" d="M0,50v385" style="stroke: rgb(128, 128, 128); stroke-opacity: 0.15; stroke-width: 1px;"/><path class="xgrid crisp" transform="translate(539.44,0)" d="M0,50v385" style="stroke: rgb(128, 128, 128); stroke-opacity: 0.15; stroke-width: 1px;"/><path class="xgrid crisp" transform="translate(704.76,0)" d="M0,50v385" style="stroke: rgb(128, 128, 128); stroke-opacity: 0.15; stroke-width: 1px;"/><path class="xgrid crisp" transform="translate(870.08,0)" d="M0,50v385" style="stroke: rgb(128, 128, 128); stroke-opacity: 0.15; stroke-width: 1px;"/><path class="xgrid crisp" transform="translate(1035.4,0)" d="M0,50v385" style="stroke: rgb(128, 128, 128); stroke-opacity: 0.15; stroke-width: 1px;"/></g><g class="y"><path class="ygrid crisp" transform="translate(0,383.95)" d="M60,0h1025" style="stroke: rgb(128, 128, 128); stroke-opacity: 0.15; stroke-width: 1px;"/><path class="ygrid crisp" transform="translate(0,332.91)" d="M60,0h1025" style="stroke: rgb(128, 128, 128); stroke-opacity: 0.15; stroke-width: 1px;"/><path class="ygrid crisp" transform="translate(0,281.86)" d="M60,0h1025" style="stroke: rgb(128, 128, 128); stroke-opacity: 0.15; stroke-width: 1px;"/><path class="ygrid crisp" transform="translate(0,230.81)" d="M60,0h1025" style="stroke: rgb(128, 128, 128); stroke-opacity: 0.15; stroke-width: 1px;"/><path class="ygrid crisp" transform="translate(0,179.77)" d="M60,0h1025" style="stroke: rgb(128, 128, 128); stroke-opacity: 0.15; stroke-width: 1px;"/><path class="ygrid crisp" transform="translate(0,128.72)" d="M60,0h1025" style="stroke: rgb(128, 128, 128); stroke-opacity: 0.15; stroke-width: 1px;"/><path class="ygrid crisp" transform="translate(0,77.67)" d="M60,0h1025" style="stroke: rgb(128, 128, 128); stroke-opacity: 0.15; stroke-width: 1px;"/></g></g><g class="zerolinelayer"><path class="yzl zl crisp" transform="translate(0,435)" d="M60,0h1025" style="stroke: rgb(128, 128, 128); stroke-opacity: 0.2; stroke-width: 1px;"/></g><g class="layer-between"><g class="shapelayer"/><g class="imagelayer"/></g><path class="xlines-below"/><path class="ylines-below"/><g class="overlines-below"/><g class="xaxislayer-below"/><g class="yaxislayer-below"/><g class="overaxes-below"/><g class="overplot"><g class="xy" transform="translate(60,50)" clip-path="url(#clipcfec1fxyplot)"><g class="scatterlayer mlayer"><g class="trace scatter traceb37daa" style="stroke-miterlimit: 2; opacity: 1;"><g class="fills"/><g class="errorbars"/><g class="lines"><path class="js-line" d="M0,384.98L132.26,384.6L148.79,383.29L165.32,379.03L181.85,366L198.39,301.28L214.92,167.8L231.45,359.48L247.98,362.92L264.52,361.6L281.05,361.31L297.58,366.67L314.11,364.99L330.65,365.78L347.18,364.86L380.24,365.73L396.77,363.51L413.31,366.62L429.84,365.14L446.37,362.87L462.9,364.48L479.44,362.11L495.97,367.62L512.5,368.1L529.03,365.53L545.56,361.85L562.1,361.65L578.63,347.84L595.16,362.08L611.69,365.47L628.23,355.37L644.76,367.62L661.29,363.53L677.82,369.23L694.35,367.01L710.89,368.1L727.42,364.89L743.95,358.53L760.48,365.17L793.55,360.37L810.08,361.42L826.61,358.89L843.15,354.6L859.68,349.75L876.21,357.82L892.74,360.27L909.27,356.75L925.81,355.7L942.34,351.28L958.87,354.35L975.4,352.99L991.94,352.59L1008.47,360.27L1025,341.99" style="vector-effect: none; fill: none; stroke: rgb(124, 181, 236); stroke-opacity: 1; stroke-width: 2px; opacity: 1;"/></g><g class="points"/><g class="text"/></g><g class="trace scatter trace8ac17c" style="stroke-miterlimit: 2; opacity: 1;"><g class="fills"/><g class="errorbars"/><g class="lines"><path class="js-line" d="M0,384.98L132.26,384.58L148.79,383.18L165.32,379.02L181.85,364.87L198.39,291.33L214.92,105.52L231.45,361.8L247.98,361.82L264.52,357.41L281.05,366.5L297.58,363.56L314.11,364.63L330.65,366.11L347.18,364.81L363.71,363.33L380.24,359.73L413.31,365.02L429.84,365.45L446.37,362.31L462.9,364.2L479.44,351.82L495.97,372.24L512.5,365.76L529.03,369.41L562.1,366.78L578.63,364.38L595.16,365.07L611.69,364.05L661.29,361.39L677.82,356.75L694.35,364.43L710.89,362.21L727.42,356.8L743.95,361.93L760.48,362L777.02,360.14L793.55,356.67L810.08,354.81L826.61,352.53L843.15,356.57L859.68,354.88L876.21,350.49L892.74,354.01L909.27,354.3L942.34,347.51L958.87,350.67L991.94,348.58L1008.47,359.91L1025,342.71" style="vector-effect: none; fill: none; stroke: rgb(67, 67, 72); stroke-opacity: 1; stroke-width: 2px; opacity: 1;"/></g><g class="points"/><g class="text"/></g><g class="trace scatter trace6822c5" style="stroke-miterlimit: 2; opacity: 1;"><g class="fills"/><g class="errorbars"/><g class="lines"><path class="js-line" d="M0,384.98L132.26,384.57L148.79,383.09L165.32,377.08L181.85,322.08L198.39,289.46L214.92,134.36L231.45,360.91L247.98,364.3L281.05,362.64L297.58,363.23L314.11,367.57L330.65,365.12L347.18,366.32L363.71,366.5L380.24,366.44L396.77,367.95L413.31,370.43L429.84,370.17L446.37,367.54L462.9,368.46L479.44,365.88L495.97,370.53L512.5,369.28L529.03,369.86L545.56,367.54L562.1,367.47L578.63,368.82L595.16,368.46L611.69,366.75L628.23,363.64L644.76,360.37L661.29,358.17L677.82,369.15L694.35,370.94L710.89,372.21L727.42,367.36L743.95,363.31L760.48,370.27L777.02,367.24L793.55,355.98L810.08,366.78L826.61,363.61L859.68,355.14L876.21,351.16L892.74,24.97L909.27,358.58L925.81,365.22L942.34,362.16L975.4,364.45L991.94,364.4L1008.47,368.87L1025,356.77" style="vector-effect: none; fill: none; stroke: rgb(144, 237, 125); stroke-opacity: 1; stroke-width: 2px; opacity: 1;"/></g><g class="points"/><g class="text"/></g><g class="trace scatter trace9ca38c" style="stroke-miterlimit: 2; opacity: 1;"><g class="fills"/><g class="errorbars"/><g class="lines"><path class="js-line" d="M0,384.98L132.26,384.55L148.79,382.82L165.32,378.15L181.85,360.42L198.39,292.78L214.92,36.1L231.45,361.34L247.98,359.96L264.52,353.07L281.05,363.84L297.58,350.29L314.11,365.78L330.65,361.54L347.18,364.07L380.24,357.36L396.77,365.42L413.31,365.65L429.84,368.21L446.37,363.94L462.9,364.25L479.44,344.67L495.97,373.87L512.5,368.03L529.03,372.24L545.56,368.89L562.1,368.33L578.63,368.79L595.16,365.96L611.69,365.81L628.23,364.71L644.76,364.73L661.29,361.65L677.82,355.72L694.35,367.11L710.89,364.45L727.42,357.79L743.95,368.64L760.48,367.62L777.02,365.24L793.55,338.96L810.08,359.53L826.61,340.69L843.15,363.92L859.68,363.94L876.21,338.42L892.74,19.25L909.27,360.37L925.81,363.13L942.34,361.01L958.87,362.31L991.94,363.08L1008.47,369.05L1025,357.82" style="vector-effect: none; fill: none; stroke: rgb(247, 163, 92); stroke-opacity: 1; stroke-width: 2px; opacity: 1;"/></g><g class="points"/><g class="text"/></g><g class="trace scatter traceda0bb2" style="stroke-miterlimit: 2; opacity: 1;"><g class="fills"/><g class="errorbars"/><g class="lines"><path class="js-line" d="M0,384.98L132.26,384.8L148.79,384.04L165.32,382.74L181.85,378.77L198.39,364.45L214.92,319.66L231.45,377.98L247.98,378.44L281.05,378.54L297.58,380.35L314.11,379.56L330.65,380.48L347.18,379.61L363.71,380.66L396.77,380.35L413.31,381.35L429.84,379.9L446.37,380.97L462.9,380.38L479.44,380.87L512.5,381.3L529.03,381.07L545.56,381.32L562.1,380.05L595.16,380.23L611.69,379.74L628.23,381.15L644.76,380.05L661.29,378.75L677.82,381.17L710.89,382.01L727.42,381.48L743.95,379.46L760.48,381.32L777.02,381.43L793.55,380.64L810.08,381.32L826.61,379.38L843.15,379.41L859.68,378.39L876.21,380.41L892.74,380.38L925.81,380.81L942.34,379.51L1008.47,380.92L1025,378.03" style="vector-effect: none; fill: none; stroke: rgb(128, 133, 233); stroke-opacity: 1; stroke-width: 2px; opacity: 1;"/></g><g class="points"/><g class="text"/></g><g class="trace scatter trace51b7de" style="stroke-miterlimit: 2; opacity: 1;"><g class="fills"/><g class="errorbars"/><g class="lines"><path class="js-line" d="M0,384.98L132.26,384.79L148.79,384.06L165.32,382.8L181.85,378.24L198.39,363.82L214.92,298.22L231.45,378.98L247.98,378.01L264.52,377.24L281.05,379.64L314.11,379.95L330.65,381.12L347.18,379.95L363.71,380.1L380.24,378.29L396.77,379.97L413.31,380.28L429.84,379.79L446.37,379.33L462.9,380L479.44,376.5L495.97,383.09L512.5,381.99L529.03,382.04L545.56,382.63L562.1,381.4L595.16,381.35L611.69,380.92L644.76,381.53L661.29,380.81L677.82,378.87L694.35,382.42L710.89,381.02L727.42,378.8L743.95,381.73L760.48,381.84L777.02,382.01L793.55,380.66L826.61,378.44L843.15,381.12L859.68,381.4L876.21,380.1L892.74,379.26L909.27,381.25L942.34,379.67L958.87,380.15L975.4,379.54L991.94,379.82L1008.47,380.33L1025,377.55" style="vector-effect: none; fill: none; stroke: rgb(241, 92, 128); stroke-opacity: 1; stroke-width: 2px; opacity: 1;"/></g><g class="points"/><g class="text"/></g><g class="trace scatter trace531d5b" style="stroke-miterlimit: 2; opacity: 1;"><g class="fills"/><g class="errorbars"/><g class="lines"><path class="js-line" d="M0,384.98L132.26,384.78L148.79,383.96L165.32,382.45L181.85,378.01L198.39,364.67L214.92,334.21L231.45,378.85L247.98,380.15L264.52,379.95L281.05,381.02L297.58,381.55L314.11,380.94L363.71,381.12L380.24,381.78L413.31,382.04L429.84,380.69L462.9,381.45L479.44,381.73L512.5,381.94L529.03,383.14L562.1,381.15L578.63,381.86L611.69,380.05L628.23,382.01L661.29,380.43L677.82,382.09L710.89,383.26L727.42,382.55L743.95,381.04L760.48,382.63L777.02,381.86L793.55,382.06L826.61,381.63L843.15,380.81L859.68,381.09L876.21,382.14L925.81,381.96L942.34,381.61L958.87,381.12L975.4,382.27L1008.47,381.96L1025,380.35" style="vector-effect: none; fill: none; stroke: rgb(228, 211, 84); stroke-opacity: 1; stroke-width: 2px; opacity: 1;"/></g><g class="points"/><g class="text"/></g><g class="trace scatter tracedb4e3a" style="stroke-miterlimit: 2; opacity: 1;"><g class="fills"/><g class="errorbars"/><g class="lines"><path class="js-line" d="M0,384.98L132.26,384.77L148.79,383.88L165.32,382.59L181.85,377.85L198.39,361.94L214.92,313.53L231.45,380.33L247.98,379.67L264.52,378.03L281.05,381.91L297.58,380.74L314.11,381.25L330.65,382.6L347.18,381.3L363.71,381.38L380.24,379.03L396.77,381.55L413.31,381.68L429.84,380.89L446.37,381.02L462.9,381.53L479.44,377.27L495.97,383.57L512.5,382.78L529.03,383.49L545.56,382.73L595.16,382.35L611.69,382.09L644.76,382.09L661.29,381.43L677.82,379.69L694.35,382.75L727.42,380.41L743.95,382.7L777.02,383.03L793.55,382.6L826.61,380.58L843.15,382.65L859.68,383.16L876.21,382.45L909.27,382.29L925.81,382.42L958.87,381.43L975.4,381.99L1008.47,382.17L1025,380.84" style="vector-effect: none; fill: none; stroke: rgb(43, 144, 143); stroke-opacity: 1; stroke-width: 2px; opacity: 1;"/></g><g class="points"/><g class="text"/></g><g class="trace scatter trace5ad278" style="stroke-miterlimit: 2; opacity: 1;"><g class="fills"/><g class="errorbars"/><g class="lines"><path class="js-line" d="M0,384.98L132.26,384.76L148.79,383.98L165.32,382.44L181.85,377.25L198.39,353.22L214.92,296.69L231.45,377.93L247.98,378.7L281.05,378.19L297.58,379.82L314.11,380.48L330.65,379.74L413.31,381.43L429.84,380.71L462.9,381.61L479.44,380.87L495.97,381.66L512.5,380.81L529.03,382.22L545.56,381.58L562.1,379.97L578.63,381.02L628.23,381.35L644.76,381.45L694.35,378.8L710.89,380.3L727.42,382.6L743.95,382.01L760.48,379.95L777.02,380.46L793.55,382.47L810.08,382.04L826.61,381.48L843.15,381.73L859.68,381.32L876.21,379.44L892.74,380.2L909.27,382.01L925.81,382.32L942.34,381.84L1008.47,381.3L1025,379.33" style="vector-effect: none; fill: none; stroke: rgb(244, 91, 91); stroke-opacity: 1; stroke-width: 2px; opacity: 1;"/></g><g class="points"/><g class="text"/></g><g class="trace scatter trace356ec9" style="stroke-miterlimit: 2; opacity: 1;"><g class="fills"/><g class="errorbars"/><g class="lines"><path class="js-line" d="M0,384.98L132.26,384.79L148.79,383.96L165.32,382.31L181.85,376.85L198.39,360.05L214.92,278.31L231.45,378.85L247.98,377.06L264.52,376.3L281.05,379.9L297.58,378.95L314.11,379.72L330.65,380.87L347.18,379.92L363.71,380.25L380.24,377.7L396.77,380.38L413.31,380.69L429.84,380.02L446.37,380.2L462.9,380.94L479.44,375.61L495.97,383.11L512.5,381.96L529.03,383.09L545.56,382.6L562.1,381.63L578.63,381.5L595.16,381.96L611.69,381.38L644.76,382.06L661.29,380.87L677.82,379.16L694.35,382.06L710.89,381.32L727.42,379.74L743.95,382.75L760.48,382.32L777.02,382.83L793.55,382.32L810.08,380.64L826.61,380.13L843.15,382.06L859.68,382.63L876.21,381.15L892.74,381.32L925.81,381.91L942.34,381.32L975.4,381.07L991.94,380.87L1008.47,380.28L1025,378.49" style="vector-effect: none; fill: none; stroke: rgb(145, 232, 225); stroke-opacity: 1; stroke-width: 2px; opacity: 1;"/></g><g class="points"/><g class="text"/></g><g class="trace scatter trace1acfac" style="stroke-miterlimit: 2; opacity: 1;"><g class="fills"/><g class="errorbars"/><g class="lines"><path class="js-line" d="M0,384.98L132.26,384.77L148.79,383.99L165.32,382.5L181.85,378.11L198.39,362.49L214.92,277.29L231.45,375.28L247.98,376.35L281.05,377.29L297.58,378.7L347.18,379.03L363.71,378.03L396.77,377.9L413.31,379.05L462.9,379.74L479.44,378.62L495.97,380.43L512.5,380.94L545.56,380.23L562.1,380.25L578.63,378.82L595.16,378.44L611.69,381.2L628.23,379.61L644.76,380.43L661.29,377.98L677.82,377.09L694.35,379.87L710.89,382.12L727.42,383.01L777.02,381.38L793.55,381.89L859.68,381.02L876.21,379.1L892.74,376.32L909.27,381.81L925.81,382.27L942.34,380.69L975.4,381.76L991.94,381.32L1008.47,382.19L1025,379.74" style="vector-effect: none; fill: none; stroke: rgb(124, 181, 236); stroke-opacity: 1; stroke-width: 2px; opacity: 1;"/></g><g class="points"/><g class="text"/></g><g class="trace scatter trace984043" style="stroke-miterlimit: 2; opacity: 1;"><g class="fills"/><g class="errorbars"/><g class="lines"><path class="js-line" d="M0,384.98L132.26,384.78L148.79,384.02L165.32,382.35L181.85,378.01L198.39,360.04L214.92,245.64L231.45,376.48L247.98,375.63L264.52,374.69L281.05,379.51L297.58,377.75L314.11,378.77L330.65,380.3L347.18,378.8L363.71,377.83L380.24,375.51L396.77,379L413.31,378.7L429.84,379.18L446.37,377.47L462.9,380.15L479.44,374.43L495.97,382.86L512.5,381.61L545.56,382.32L562.1,381.63L595.16,380.43L611.69,380.92L644.76,381.3L661.29,379.56L677.82,378.16L694.35,382.14L710.89,381.07L727.42,378.9L743.95,382.29L760.48,381.89L777.02,382.58L793.55,381.55L810.08,379.92L826.61,379.51L843.15,381.91L859.68,382.29L876.21,380.58L892.74,376.91L909.27,381.25L925.81,381.76L942.34,380.74L958.87,381.45L975.4,381.68L991.94,381.07L1008.47,381.15L1025,379.49" style="vector-effect: none; fill: none; stroke: rgb(67, 67, 72); stroke-opacity: 1; stroke-width: 2px; opacity: 1;"/></g><g class="points"/><g class="text"/></g><g class="trace scatter trace29d1fa" style="stroke-miterlimit: 2; opacity: 1;"><g class="fills"/><g class="errorbars"/><g class="lines"><path class="js-line" d="M0,384.98L132.26,384.79L148.79,384.04L165.32,382.3L181.85,377.83L198.39,359.82L214.92,331.91L231.45,378.9L247.98,379.67L281.05,379.61L297.58,380.23L330.65,380.74L347.18,380.1L380.24,381.32L396.77,381.17L462.9,380.58L479.44,380.99L495.97,382.01L512.5,382.06L529.03,381.22L545.56,381.2L562.1,380.53L578.63,378.98L595.16,381.86L611.69,382.01L628.23,380.23L644.76,382.35L661.29,381.55L677.82,382.98L694.35,382.04L710.89,382.47L727.42,382.4L743.95,381.15L810.08,382.27L826.61,381.55L859.68,381.38L876.21,382.52L892.74,382.7L909.27,382.12L925.81,382.09L942.34,381.22L991.94,382.75L1008.47,382.32L1025,381.09" style="vector-effect: none; fill: none; stroke: rgb(144, 237, 125); stroke-opacity: 1; stroke-width: 2px; opacity: 1;"/></g><g class="points"/><g class="text"/></g><g class="trace scatter trace8a2704" style="stroke-miterlimit: 2; opacity: 1;"><g class="fills"/><g class="errorbars"/><g class="lines"><path class="js-line" d="M0,384.98L132.26,384.79L148.79,383.97L165.32,382.36L181.85,377.99L198.39,358.88L214.92,310.47L231.45,379.33L247.98,379.79L264.52,378.36L281.05,380.79L297.58,379.79L314.11,380.84L330.65,381.81L347.18,380.64L363.71,380.81L380.24,378.9L396.77,381.63L413.31,380.43L462.9,381.27L479.44,376.91L495.97,383.52L512.5,382.68L529.03,383.26L545.56,383.06L578.63,382.58L595.16,382.73L628.23,382.35L644.76,382.04L677.82,379.67L694.35,383.06L727.42,380.51L743.95,382.98L777.02,382.86L793.55,382.86L810.08,381.45L826.61,380.87L843.15,382.88L859.68,383.42L892.74,381.94L909.27,382.93L942.34,381.32L958.87,382.12L1008.47,382.47L1025,381.2" style="vector-effect: none; fill: none; stroke: rgb(247, 163, 92); stroke-opacity: 1; stroke-width: 2px; opacity: 1;"/></g><g class="points"/><g class="text"/></g><g class="trace scatter trace8424c0" style="stroke-miterlimit: 2; opacity: 1;"><g class="fills"/><g class="errorbars"/><g class="lines"><path class="js-line" d="M0,384.98L132.26,384.77L148.79,383.9L165.32,382.28L181.85,375.87L198.39,353.1L214.92,297.71L231.45,377.34L247.98,377.75L264.52,378.36L281.05,377.14L297.58,378.82L314.11,379.33L380.24,379.05L396.77,379.84L413.31,380.41L429.84,380.15L462.9,379.67L479.44,379.44L495.97,380.53L512.5,380.66L529.03,381.02L545.56,380.56L611.69,379.67L628.23,379.31L644.76,379.31L661.29,378.16L677.82,380.79L694.35,381.76L710.89,382.24L727.42,381.15L743.95,380.76L760.48,381.61L810.08,382.06L826.61,381.3L859.68,379.9L876.21,381.91L892.74,381.07L909.27,381.5L942.34,381.99L958.87,381.63L975.4,382.68L991.94,382.27L1008.47,382.65L1025,381.27" style="vector-effect: none; fill: none; stroke: rgb(128, 133, 233); stroke-opacity: 1; stroke-width: 2px; opacity: 1;"/></g><g class="points"/><g class="text"/></g><g class="trace scatter trace725869" style="stroke-miterlimit: 2; opacity: 1;"><g class="fills"/><g class="errorbars"/><g class="lines"><path class="js-line" d="M0,384.98L132.26,384.76L148.79,383.85L165.32,382.35L181.85,375.41L198.39,347.65L214.92,271.42L231.45,378.21L247.98,376.7L264.52,376.09L281.05,379L297.58,377.62L314.11,379.74L330.65,380.76L347.18,380L363.71,378.62L380.24,375.81L396.77,379.36L413.31,379.51L446.37,378.75L462.9,380.58L479.44,375.05L495.97,383.11L512.5,381.22L529.03,382.98L611.69,381.3L628.23,381.84L644.76,381.89L661.29,380.48L677.82,378.87L694.35,382.65L710.89,381.5L727.42,378.54L743.95,382.78L760.48,381.84L777.02,382.75L793.55,382.32L810.08,380.56L826.61,380L843.15,382.55L859.68,382.55L892.74,380.79L909.27,382.17L958.87,381.99L975.4,382.06L991.94,381.73L1008.47,382.7L1025,381.12" style="vector-effect: none; fill: none; stroke: rgb(241, 92, 128); stroke-opacity: 1; stroke-width: 2px; opacity: 1;"/></g><g class="points"/><g class="text"/></g></g></g></g><g class="zerolinelayer-above"/><path class="xlines-above crisp" d="M0,0" style="fill: none;"/><path class="ylines-above crisp" d="M0,0" style="fill: none;"/><g class="overlines-above"/><g class="xaxislayer-above"><g class="xtick"><text text-anchor="middle" x="0" y="451" transform="translate(208.79,0)" style="font-family: system-ui, -apple-system, 'Segoe UI', Roboto, 'Helvetica Neue', 'Noto Sans', 'Liberation Sans', Arial, sans-serif, 'Apple Color Emoji', 'Segoe UI Emoji', 'Segoe UI Symbol', 'Noto Color Emoji'; font-size: 10px; fill: rgb(80, 80, 80); fill-opacity: 1; white-space: pre;">10 bp</text></g><g class="xtick"><text text-anchor="middle" x="0" y="451" style="font-family: system-ui, -apple-system, 'Segoe UI', Roboto, 'Helvetica Neue', 'Noto Sans', 'Liberation Sans', Arial, sans-serif, 'Apple Color Emoji', 'Segoe UI Emoji', 'Segoe UI Symbol', 'Noto Color Emoji'; font-size: 10px; fill: rgb(80, 80, 80); fill-opacity: 1; white-space: pre;" transform="translate(374.11,0)">20 bp</text></g><g class="xtick"><text text-anchor="middle" x="0" y="451" style="font-family: system-ui, -apple-system, 'Segoe UI', Roboto, 'Helvetica Neue', 'Noto Sans', 'Liberation Sans', Arial, sans-serif, 'Apple Color Emoji', 'Segoe UI Emoji', 'Segoe UI Symbol', 'Noto Color Emoji'; font-size: 10px; fill: rgb(80, 80, 80); fill-opacity: 1; white-space: pre;" transform="translate(539.44,0)">30 bp</text></g><g class="xtick"><text text-anchor="middle" x="0" y="451" style="font-family: system-ui, -apple-system, 'Segoe UI', Roboto, 'Helvetica Neue', 'Noto Sans', 'Liberation Sans', Arial, sans-serif, 'Apple Color Emoji', 'Segoe UI Emoji', 'Segoe UI Symbol', 'Noto Color Emoji'; font-size: 10px; fill: rgb(80, 80, 80); fill-opacity: 1; white-space: pre;" transform="translate(704.76,0)">40 bp</text></g><g class="xtick"><text text-anchor="middle" x="0" y="451" style="font-family: system-ui, -apple-system, 'Segoe UI', Roboto, 'Helvetica Neue', 'Noto Sans', 'Liberation Sans', Arial, sans-serif, 'Apple Color Emoji', 'Segoe UI Emoji', 'Segoe UI Symbol', 'Noto Color Emoji'; font-size: 10px; fill: rgb(80, 80, 80); fill-opacity: 1; white-space: pre;" transform="translate(870.08,0)">50 bp</text></g><g class="xtick"><text text-anchor="middle" x="0" y="451" style="font-family: system-ui, -apple-system, 'Segoe UI', Roboto, 'Helvetica Neue', 'Noto Sans', 'Liberation Sans', Arial, sans-serif, 'Apple Color Emoji', 'Segoe UI Emoji', 'Segoe UI Symbol', 'Noto Color Emoji'; font-size: 10px; fill: rgb(80, 80, 80); fill-opacity: 1; white-space: pre;" transform="translate(1035.4,0)">60 bp</text></g></g><g class="yaxislayer-above"><g class="ytick"><text text-anchor="end" x="54" y="3.5" transform="translate(0,435)" style="font-family: system-ui, -apple-system, 'Segoe UI', Roboto, 'Helvetica Neue', 'Noto Sans', 'Liberation Sans', Arial, sans-serif, 'Apple Color Emoji', 'Segoe UI Emoji', 'Segoe UI Symbol', 'Noto Color Emoji'; font-size: 10px; fill: rgb(80, 80, 80); fill-opacity: 1; white-space: pre;">0</text></g><g class="ytick"><text text-anchor="end" x="54" y="3.5" style="font-family: system-ui, -apple-system, 'Segoe UI', Roboto, 'Helvetica Neue', 'Noto Sans', 'Liberation Sans', Arial, sans-serif, 'Apple Color Emoji', 'Segoe UI Emoji', 'Segoe UI Symbol', 'Noto Color Emoji'; font-size: 10px; fill: rgb(80, 80, 80); fill-opacity: 1; white-space: pre;" transform="translate(0,383.95)">2k</text></g><g class="ytick"><text text-anchor="end" x="54" y="3.5" style="font-family: system-ui, -apple-system, 'Segoe UI', Roboto, 'Helvetica Neue', 'Noto Sans', 'Liberation Sans', Arial, sans-serif, 'Apple Color Emoji', 'Segoe UI Emoji', 'Segoe UI Symbol', 'Noto Color Emoji'; font-size: 10px; fill: rgb(80, 80, 80); fill-opacity: 1; white-space: pre;" transform="translate(0,332.91)">4k</text></g><g class="ytick"><text text-anchor="end" x="54" y="3.5" style="font-family: system-ui, -apple-system, 'Segoe UI', Roboto, 'Helvetica Neue', 'Noto Sans', 'Liberation Sans', Arial, sans-serif, 'Apple Color Emoji', 'Segoe UI Emoji', 'Segoe UI Symbol', 'Noto Color Emoji'; font-size: 10px; fill: rgb(80, 80, 80); fill-opacity: 1; white-space: pre;" transform="translate(0,281.86)">6k</text></g><g class="ytick"><text text-anchor="end" x="54" y="3.5" style="font-family: system-ui, -apple-system, 'Segoe UI', Roboto, 'Helvetica Neue', 'Noto Sans', 'Liberation Sans', Arial, sans-serif, 'Apple Color Emoji', 'Segoe UI Emoji', 'Segoe UI Symbol', 'Noto Color Emoji'; font-size: 10px; fill: rgb(80, 80, 80); fill-opacity: 1; white-space: pre;" transform="translate(0,230.81)">8k</text></g><g class="ytick"><text text-anchor="end" x="54" y="3.5" style="font-family: system-ui, -apple-system, 'Segoe UI', Roboto, 'Helvetica Neue', 'Noto Sans', 'Liberation Sans', Arial, sans-serif, 'Apple Color Emoji', 'Segoe UI Emoji', 'Segoe UI Symbol', 'Noto Color Emoji'; font-size: 10px; fill: rgb(80, 80, 80); fill-opacity: 1; white-space: pre;" transform="translate(0,179.77)">10k</text></g><g class="ytick"><text text-anchor="end" x="54" y="3.5" style="font-family: system-ui, -apple-system, 'Segoe UI', Roboto, 'Helvetica Neue', 'Noto Sans', 'Liberation Sans', Arial, sans-serif, 'Apple Color Emoji', 'Segoe UI Emoji', 'Segoe UI Symbol', 'Noto Color Emoji'; font-size: 10px; fill: rgb(80, 80, 80); fill-opacity: 1; white-space: pre;" transform="translate(0,128.72)">12k</text></g><g class="ytick"><text text-anchor="end" x="54" y="3.5" style="font-family: system-ui, -apple-system, 'Segoe UI', Roboto, 'Helvetica Neue', 'Noto Sans', 'Liberation Sans', Arial, sans-serif, 'Apple Color Emoji', 'Segoe UI Emoji', 'Segoe UI Symbol', 'Noto Color Emoji'; font-size: 10px; fill: rgb(80, 80, 80); fill-opacity: 1; white-space: pre;" transform="translate(0,77.67)">14k</text></g></g><g class="overaxes-above"/></g></g><g class="polarlayer"/><g class="smithlayer"/><g class="ternarylayer"/><g class="geolayer"/><g class="funnelarealayer"/><g class="pielayer"/><g class="iciclelayer"/><g class="treemaplayer"/><g class="sunburstlayer"/><g class="glimages"/><defs id="topdefs-cfec1f"><g class="clips"/></defs><g class="layer-above"><g class="imagelayer"/><g class="shapelayer"/></g><g class="infolayer"><g class="g-gtitle"><text class="gtitle" x="550" y="25" text-anchor="middle" dy="0em" style="opacity: 1; font-family: system-ui, -apple-system, 'Segoe UI', Roboto, 'Helvetica Neue', 'Noto Sans', 'Liberation Sans', Arial, sans-serif, 'Apple Color Emoji', 'Segoe UI Emoji', 'Segoe UI Symbol', 'Noto Color Emoji'; font-size: 20px; fill: rgb(60, 60, 60); fill-opacity: 1; white-space: pre;"><tspan class="line" dy="0em" x="550" y="25">Cutadapt: Lengths of Trimmed Sequences (3' end)</tspan><tspan class="line" dy="1.3em" x="550" y="25">​<tspan style="font-size:70%" dy="-0.6em">Obs/Exp, 16 lines</tspan><tspan dy="0.42em">​</tspan></tspan></text></g><g class="g-xtitle"><text class="xtitle" x="572.5" y="487" text-anchor="middle" style="opacity: 1; font-family: system-ui, -apple-system, 'Segoe UI', Roboto, 'Helvetica Neue', 'Noto Sans', 'Liberation Sans', Arial, sans-serif, 'Apple Color Emoji', 'Segoe UI Emoji', 'Segoe UI Symbol', 'Noto Color Emoji'; font-size: 14px; fill: rgb(100, 100, 100); fill-opacity: 1; white-space: pre;">Length Trimmed (bp)</text></g><g class="g-ytitle"><text class="ytitle" transform="rotate(-90,22,242.5)" x="22" y="242.5" text-anchor="middle" style="opacity: 1; font-family: system-ui, -apple-system, 'Segoe UI', Roboto, 'Helvetica Neue', 'Noto Sans', 'Liberation Sans', Arial, sans-serif, 'Apple Color Emoji', 'Segoe UI Emoji', 'Segoe UI Symbol', 'Noto Color Emoji'; font-size: 14px; fill: rgb(100, 100, 100); fill-opacity: 1; white-space: pre;">Observed / Expected</text></g></g></svg>