<svg class="main-svg" xmlns="http://www.w3.org/2000/svg" xmlns:xlink="http://www.w3.org/1999/xlink" width="2200" height="1000" style="" viewBox="0 0 1100 500"><rect x="0" y="0" width="1100" height="500" style="fill: rgb(255, 255, 255); fill-opacity: 1;"/><defs id="defs-09afcf"><g class="clips"><clipPath id="clip09afcfxyplot" class="plotclip"><rect width="1025" height="385"/></clipPath><clipPath class="axesclip" id="clip09afcfx"><rect x="60" y="0" width="1025" height="500"/></clipPath><clipPath class="axesclip" id="clip09afcfy"><rect x="0" y="50" width="1100" height="385"/></clipPath><clipPath class="axesclip" id="clip09afcfxy"><rect x="60" y="50" width="1025" height="385"/></clipPath></g><g class="gradients"/><g class="patterns"/></defs><g class="bglayer"/><g class="layer-below"><g class="imagelayer"/><g class="shapelayer"><g class="shape-group" data-index="0" clip-path="url(#clip09afcfy)"><path data-index="0" fill-rule="evenodd" d="M60,179.22H1085V-478.5H60Z" style="opacity: 0.13; stroke: rgb(0, 0, 0); stroke-opacity: 0; fill: rgb(0, 149, 0); fill-opacity: 1; stroke-width: 0px;"/></g><g class="shape-group" data-index="1" clip-path="url(#clip09afcfy)"><path data-index="1" fill-rule="evenodd" d="M60,252.3H1085V179.22H60Z" style="opacity: 0.13; stroke: rgb(0, 0, 0); stroke-opacity: 0; fill: rgb(160, 115, 0); fill-opacity: 1; stroke-width: 0px;"/></g><g class="shape-group" data-index="2" clip-path="url(#clip09afcfy)"><path data-index="2" fill-rule="evenodd" d="M60,435H1085V252.3H60Z" style="opacity: 0.13; stroke: rgb(0, 0, 0); stroke-opacity: 0; fill: rgb(153, 1, 1); fill-opacity: 1; stroke-width: 0px;"/></g><g class="shape-group" data-index="3" clip-path="url(#clip09afcfy)"><path data-index="3" fill-rule="evenodd" d="M60,179.22H1085V-478.5H60Z" style="opacity: 0.13; stroke: rgb(0, 0, 0); stroke-opacity: 0; fill: rgb(0, 149, 0); fill-opacity: 1; stroke-width: 0px;"/></g><g class="shape-group" data-index="4" clip-path="url(#clip09afcfy)"><path data-index="4" fill-rule="evenodd" d="M60,252.3H1085V179.22H60Z" style="opacity: 0.13; stroke: rgb(0, 0, 0); stroke-opacity: 0; fill: rgb(160, 115, 0); fill-opacity: 1; stroke-width: 0px;"/></g><g class="shape-group" data-index="5" clip-path="url(#clip09afcfy)"><path data-index="5" fill-rule="evenodd" d="M60,435H1085V252.3H60Z" style="opacity: 0.13; stroke: rgb(0, 0, 0); stroke-opacity: 0; fill: rgb(153, 1, 1); fill-opacity: 1; stroke-width: 0px;"/></g></g></g><g class="cartesianlayer"><g class="subplot xy"><g class="layer-subplot"><g class="shapelayer"/><g class="imagelayer"/></g><g class="minor-gridlayer"><g class="x"/><g class="y"/></g><g class="gridlayer"><g class="x"><path class="xgrid crisp" transform="translate(222.7,0)" d="M0,50v385" style="stroke: rgb(128, 128, 128); stroke-opacity: 0.15; stroke-width: 1px;"/><path class="xgrid crisp" transform="translate(385.4,0)" d="M0,50v385" style="stroke: rgb(128, 128, 128); stroke-opacity: 0.15; stroke-width: 1px;"/><path class="xgrid crisp" transform="translate(548.1,0)" d="M0,50v385" style="stroke: rgb(128, 128, 128); stroke-opacity: 0.15; stroke-width: 1px;"/><path class="xgrid crisp" transform="translate(710.79,0)" d="M0,50v385" style="stroke: rgb(128, 128, 128); stroke-opacity: 0.15; stroke-width: 1px;"/><path class="xgrid crisp" transform="translate(873.49,0)" d="M0,50v385" style="stroke: rgb(128, 128, 128); stroke-opacity: 0.15; stroke-width: 1px;"/><path class="xgrid crisp" transform="translate(1036.19,0)" d="M0,50v385" style="stroke: rgb(128, 128, 128); stroke-opacity: 0.15; stroke-width: 1px;"/></g><g class="y"><path class="ygrid crisp" transform="translate(0,389.33)" d="M60,0h1025" style="stroke: rgb(128, 128, 128); stroke-opacity: 0.15; stroke-width: 1px;"/><path class="ygrid crisp" transform="translate(0,343.65)" d="M60,0h1025" style="stroke: rgb(128, 128, 128); stroke-opacity: 0.15; stroke-width: 1px;"/><path class="ygrid crisp" transform="translate(0,297.98)" d="M60,0h1025" style="stroke: rgb(128, 128, 128); stroke-opacity: 0.15; stroke-width: 1px;"/><path class="ygrid crisp" transform="translate(0,252.3)" d="M60,0h1025" style="stroke: rgb(128, 128, 128); stroke-opacity: 0.15; stroke-width: 1px;"/><path class="ygrid crisp" transform="translate(0,206.63)" d="M60,0h1025" style="stroke: rgb(128, 128, 128); stroke-opacity: 0.15; stroke-width: 1px;"/><path class="ygrid crisp" transform="translate(0,160.95)" d="M60,0h1025" style="stroke: rgb(128, 128, 128); stroke-opacity: 0.15; stroke-width: 1px;"/><path class="ygrid crisp" transform="translate(0,115.28)" d="M60,0h1025" style="stroke: rgb(128, 128, 128); stroke-opacity: 0.15; stroke-width: 1px;"/><path class="ygrid crisp" transform="translate(0,69.6)" d="M60,0h1025" style="stroke: rgb(128, 128, 128); stroke-opacity: 0.15; stroke-width: 1px;"/></g></g><g class="zerolinelayer"><path class="xzl zl crisp" transform="translate(60,0)" d="M0,50v385" style="stroke: rgb(128, 128, 128); stroke-opacity: 0.2; stroke-width: 1px;"/><path class="yzl zl crisp" transform="translate(0,435)" d="M60,0h1025" style="stroke: rgb(128, 128, 128); stroke-opacity: 0.2; stroke-width: 1px;"/></g><g class="layer-between"><g class="shapelayer"/><g class="imagelayer"/></g><path class="xlines-below"/><path class="ylines-below"/><g class="overlines-below"/><g class="xaxislayer-below"/><g class="yaxislayer-below"/><g class="overaxes-below"/><g class="overplot"><g class="xy" transform="translate(60,50)" clip-path="url(#clip09afcfxyplot)"><g class="scatterlayer mlayer"><g class="trace scatter traced257a0" style="stroke-miterlimit: 2; opacity: 1;"><g class="fills"/><g class="errorbars"/><g class="lines"><path class="js-line" d="M16.27,34.94L32.54,19.63L48.81,19.16L113.89,18.33L130.16,19.25L146.43,19.05L162.7,19.76L178.97,21.62L195.24,21.3L211.51,20.8L227.78,21.9L309.13,28.03L325.4,27.54L357.94,27.64L374.21,28.58L406.75,27.56L423.02,26.69L439.29,27.66L455.56,27.23L488.1,27.4L504.37,27.86L520.63,29.91L536.9,30.16L553.17,31.42L569.44,31.19L585.71,32.63L601.98,32.77L618.25,31.56L634.52,31.35L667.06,32.15L683.33,33.89L715.87,35.01L732.14,35.96L748.41,36.65L764.68,38.19L780.95,40.01L797.22,40.92L829.76,42.69L846.03,44.81L862.3,45.68L878.57,47.54L959.92,53.75L976.19,55.94L1008.73,57.16L1025,63.41" style="vector-effect: none; fill: none; stroke: rgb(92, 184, 92); stroke-opacity: 1; stroke-width: 2px; opacity: 1;"/></g><g class="points"/><g class="text"/></g><g class="trace scatter trace8421dc" style="stroke-miterlimit: 2; opacity: 1;"><g class="fills"/><g class="errorbars"/><g class="lines"><path class="js-line" d="M16.27,34.89L32.54,19.66L48.81,20.28L65.08,19.6L81.35,20.04L130.16,20.62L146.43,72.21L162.7,54.15L178.97,34.53L195.24,26.78L211.51,24.64L244.05,23.38L260.32,22.57L309.13,23.84L325.4,24.94L341.67,23.19L357.94,22.88L374.21,22.76L390.48,24.31L423.02,23.95L439.29,24.42L520.63,26.8L536.9,26.62L569.44,26.29L585.71,26.84L618.25,28.08L634.52,43.02L650.79,37L667.06,33.74L683.33,32.22L699.6,32.4L764.68,36.35L780.95,38.22L846.03,43.87L862.3,46.68L894.84,48.82L911.11,50.3L943.65,54.04L959.92,53.51L976.19,54.74L992.46,55L1008.73,56.3L1025,62.79" style="vector-effect: none; fill: none; stroke: rgb(92, 184, 92); stroke-opacity: 1; stroke-width: 2px; opacity: 1;"/></g><g class="points"/><g class="text"/></g><g class="trace scatter trace6d0e0a" style="stroke-miterlimit: 2; opacity: 1;"><g class="fills"/><g class="errorbars"/><g class="lines"><path class="js-line" d="M16.27,34.96L32.54,19.65L48.81,19.16L113.89,18.34L130.16,19.23L146.43,19.04L162.7,19.78L178.97,21.57L195.24,21.26L211.51,20.81L227.78,21.89L309.13,28.01L325.4,27.57L357.94,27.63L374.21,28.54L406.75,27.44L423.02,26.57L439.29,27.58L455.56,27.1L504.37,27.98L520.63,29.85L536.9,30.1L553.17,31.4L569.44,31.14L585.71,32.57L601.98,32.67L618.25,31.45L650.79,31.63L667.06,32.13L683.33,33.75L699.6,34.11L748.41,36.37L764.68,37.93L780.95,39.68L797.22,40.55L829.76,42.42L846.03,44.61L862.3,45.37L878.57,47.14L959.92,53.47L976.19,55.61L1008.73,56.8L1025,63.05" style="vector-effect: none; fill: none; stroke: rgb(92, 184, 92); stroke-opacity: 1; stroke-width: 2px; opacity: 1;"/></g><g class="points"/><g class="text"/></g><g class="trace scatter trace227824" style="stroke-miterlimit: 2; opacity: 1;"><g class="fills"/><g class="errorbars"/><g class="lines"><path class="js-line" d="M16.27,37.5L32.54,23.13L48.81,23.68L65.08,22.96L81.35,23.49L113.89,24.23L130.16,24.37L146.43,74.68L162.7,56.31L178.97,36.97L195.24,30.14L227.78,26.67L244.05,26.53L260.32,25.45L276.59,26.27L292.86,27.79L309.13,27.28L325.4,27.91L341.67,26.31L357.94,25.72L374.21,26L390.48,27.27L406.75,26.69L455.56,27.82L471.83,26.88L488.1,28.28L504.37,28.62L536.9,28.91L553.17,28.3L601.98,28.59L618.25,29.76L634.52,44.57L650.79,38.95L667.06,35.48L683.33,33.79L715.87,34.87L732.14,35.81L846.03,44.72L862.3,47.36L894.84,49.1L911.11,50.5L943.65,54.13L959.92,53.56L976.19,54.76L992.46,54.99L1008.73,56.26L1025,62.94" style="vector-effect: none; fill: none; stroke: rgb(92, 184, 92); stroke-opacity: 1; stroke-width: 2px; opacity: 1;"/></g><g class="points"/><g class="text"/></g><g class="trace scatter trace5fc7bb" style="stroke-miterlimit: 2; opacity: 1;"><g class="fills"/><g class="errorbars"/><g class="lines"><path class="js-line" d="M16.27,36.71L32.54,22.27L48.81,23.24L65.08,23.38L81.35,22.41L146.43,23.49L162.7,25.2L211.51,23.78L227.78,24.12L276.59,26.21L292.86,26.35L309.13,26.91L325.4,26.26L374.21,25.99L390.48,27.29L439.29,27.24L455.56,28.05L504.37,29.82L520.63,30.44L536.9,30.52L553.17,32.25L601.98,33.19L618.25,34.53L634.52,34.8L650.79,36.34L667.06,37.45L683.33,37.79L780.95,44.41L797.22,48.13L846.03,50.12L862.3,51.82L927.38,57.6L943.65,58.64L976.19,59.58L992.46,60.17L1008.73,60.72L1025,75.11" style="vector-effect: none; fill: none; stroke: rgb(92, 184, 92); stroke-opacity: 1; stroke-width: 2px; opacity: 1;"/></g><g class="points"/><g class="text"/></g><g class="trace scatter tracea0d6ef" style="stroke-miterlimit: 2; opacity: 1;"><g class="fills"/><g class="errorbars"/><g class="lines"><path class="js-line" d="M16.27,36.48L32.54,22.7L48.81,22.99L113.89,23.34L130.16,23.93L227.78,26.89L244.05,29.14L260.32,27.11L276.59,27.25L325.4,28.02L341.67,26.82L406.75,26.83L423.02,27.33L488.1,29.13L504.37,29.19L618.25,34.49L634.52,50.58L650.79,44.31L667.06,40.9L683.33,38.26L699.6,38.07L715.87,38.05L732.14,39.22L748.41,39.81L764.68,41.18L927.38,53.97L943.65,55.56L1008.73,58.44L1025,69.83" style="vector-effect: none; fill: none; stroke: rgb(92, 184, 92); stroke-opacity: 1; stroke-width: 2px; opacity: 1;"/></g><g class="points"/><g class="text"/></g><g class="trace scatter tracecd85ef" style="stroke-miterlimit: 2; opacity: 1;"><g class="fills"/><g class="errorbars"/><g class="lines"><path class="js-line" d="M16.27,39.57L32.54,26.41L48.81,27.49L65.08,28.09L81.35,26.87L97.62,27.29L113.89,26.79L146.43,27.14L162.7,28.7L195.24,28.46L211.51,28.15L276.59,30.38L292.86,30.85L309.13,32.51L325.4,31.05L374.21,31.12L390.48,31.91L423.02,31.67L439.29,32.5L455.56,33.55L471.83,33.34L504.37,34.78L520.63,34.48L536.9,34.57L553.17,37.16L569.44,36.66L585.71,37.3L601.98,40.15L618.25,39.14L634.52,38.83L650.79,40.64L667.06,42.6L683.33,43.02L699.6,42.24L715.87,42.54L732.14,44.24L748.41,47.6L780.95,48.23L797.22,53.15L813.49,54.58L829.76,54.79L862.3,54.61L878.57,55.74L894.84,56.95L911.11,59.59L927.38,61.55L943.65,61.43L959.92,61.87L976.19,63.13L992.46,63.9L1008.73,63.32L1025,75.46" style="vector-effect: none; fill: none; stroke: rgb(92, 184, 92); stroke-opacity: 1; stroke-width: 2px; opacity: 1;"/></g><g class="points"/><g class="text"/></g><g class="trace scatter trace2ba88b" style="stroke-miterlimit: 2; opacity: 1;"><g class="fills"/><g class="errorbars"/><g class="lines"><path class="js-line" d="M16.27,40.98L32.54,28.83L48.81,27.95L146.43,29.55L162.7,31.33L195.24,32.47L211.51,31.88L227.78,34.08L244.05,34.23L260.32,32.57L276.59,32.76L292.86,33.63L309.13,33.45L325.4,34.4L341.67,32.51L357.94,34.4L374.21,32.62L406.75,34.18L423.02,33.71L455.56,33.24L471.83,34.77L504.37,35.38L520.63,35.34L569.44,36.78L585.71,38.1L601.98,38.27L618.25,39.35L634.52,56.33L650.79,49.74L667.06,44.69L683.33,42.48L732.14,43.77L748.41,44.94L780.95,46.22L797.22,47.48L846.03,50.06L862.3,52.97L878.57,54.67L894.84,55.1L911.11,55.61L927.38,57.37L943.65,58.58L959.92,59.01L1008.73,62L1025,72.05" style="vector-effect: none; fill: none; stroke: rgb(92, 184, 92); stroke-opacity: 1; stroke-width: 2px; opacity: 1;"/></g><g class="points"/><g class="text"/></g><g class="trace scatter trace1fcab2" style="stroke-miterlimit: 2; opacity: 1;"><g class="fills"/><g class="errorbars"/><g class="lines"><path class="js-line" d="M16.27,40.69L32.54,26.44L48.81,26.51L65.08,26.95L81.35,26.39L130.16,26.17L146.43,26.78L178.97,27.37L195.24,29.59L211.51,28.53L227.78,28.23L309.13,30.62L325.4,29.67L374.21,30.18L390.48,32.08L423.02,30.67L439.29,31.02L471.83,32L488.1,32.39L504.37,34.86L520.63,34.58L536.9,34.51L553.17,35.29L585.71,36.46L601.98,37.94L650.79,40.26L667.06,41.09L715.87,43.25L732.14,45.36L780.95,50.94L797.22,52.35L829.76,54.63L846.03,57.1L862.3,59.61L878.57,58.41L894.84,61.19L911.11,61.74L943.65,61.81L959.92,62.86L976.19,63.59L992.46,65.13L1008.73,63.71L1025,76.11" style="vector-effect: none; fill: none; stroke: rgb(92, 184, 92); stroke-opacity: 1; stroke-width: 2px; opacity: 1;"/></g><g class="points"/><g class="text"/></g><g class="trace scatter tracec90234" style="stroke-miterlimit: 2; opacity: 1;"><g class="fills"/><g class="errorbars"/><g class="lines"><path class="js-line" d="M16.27,39.73L32.54,26.83L48.81,27.08L97.62,27.72L113.89,27.86L146.43,30.26L162.7,29.45L178.97,31.89L195.24,31.1L211.51,32.6L227.78,32.83L325.4,33.44L341.67,31.48L357.94,31.97L374.21,31.2L406.75,32.54L423.02,31.98L439.29,32.2L455.56,33.27L520.63,34.95L536.9,36.4L569.44,37.31L585.71,38.35L601.98,38.5L618.25,41.09L634.52,56.63L650.79,48.84L667.06,44.34L683.33,42.73L748.41,44.42L764.68,45.16L780.95,46.44L797.22,48.98L813.49,49.46L829.76,50.76L846.03,52.09L862.3,52.21L894.84,55.73L911.11,56.45L943.65,58.65L959.92,63.21L992.46,61.76L1008.73,61.66L1025,72.02" style="vector-effect: none; fill: none; stroke: rgb(92, 184, 92); stroke-opacity: 1; stroke-width: 2px; opacity: 1;"/></g><g class="points"/><g class="text"/></g><g class="trace scatter tracea5f51f" style="stroke-miterlimit: 2; opacity: 1;"><g class="fills"/><g class="errorbars"/><g class="lines"><path class="js-line" d="M16.27,41.38L32.54,27.56L48.81,27.38L65.08,27.86L81.35,27.17L130.16,27.11L146.43,27.83L178.97,28.47L195.24,30.43L211.51,29.46L227.78,29.32L309.13,31.98L325.4,30.99L357.94,31.1L374.21,31.33L390.48,33.56L406.75,32.89L423.02,32.13L439.29,32.44L488.1,34.07L504.37,36.36L536.9,36.08L553.17,36.7L585.71,37.91L601.98,39.37L715.87,44.8L732.14,46.93L764.68,50.83L780.95,52.53L829.76,56.02L846.03,58.31L862.3,60.73L878.57,59.94L894.84,62.24L911.11,62.73L976.19,64.55L992.46,65.91L1008.73,64.47L1025,77.11" style="vector-effect: none; fill: none; stroke: rgb(92, 184, 92); stroke-opacity: 1; stroke-width: 2px; opacity: 1;"/></g><g class="points"/><g class="text"/></g><g class="trace scatter tracea2929c" style="stroke-miterlimit: 2; opacity: 1;"><g class="fills"/><g class="errorbars"/><g class="lines"><path class="js-line" d="M16.27,39.88L32.54,27.08L48.81,27.29L97.62,28.02L113.89,28.12L146.43,30.51L162.7,29.86L178.97,32.35L195.24,31.49L211.51,32.81L227.78,33.05L325.4,33.78L341.67,31.81L357.94,32.33L374.21,31.68L406.75,32.92L423.02,32.43L455.56,33.76L471.83,34.22L504.37,34.89L520.63,35.62L536.9,36.95L553.17,37.19L601.98,39.21L618.25,41.84L634.52,57.23L650.79,49.45L667.06,45.1L683.33,43.48L748.41,45.05L764.68,45.75L780.95,47.04L797.22,49.46L813.49,50L829.76,51.38L846.03,52.72L862.3,52.87L894.84,56.35L911.11,57.06L943.65,59.21L959.92,63.43L992.46,62.2L1008.73,62.08L1025,72.46" style="vector-effect: none; fill: none; stroke: rgb(92, 184, 92); stroke-opacity: 1; stroke-width: 2px; opacity: 1;"/></g><g class="points"/><g class="text"/></g><g class="trace scatter trace2d6c00" style="stroke-miterlimit: 2; opacity: 1;"><g class="fills"/><g class="errorbars"/><g class="lines"><path class="js-line" d="M16.27,39.6L32.54,26.44L48.81,27.11L65.08,27.38L81.35,26.53L113.89,27.32L130.16,27.27L146.43,27.3L162.7,28.44L178.97,29.06L195.24,28.38L227.78,28.87L244.05,29.34L309.13,32.3L325.4,31.32L374.21,31.25L390.48,31.85L423.02,31.81L439.29,32.51L455.56,33.48L471.83,33.47L504.37,35.8L520.63,35.92L536.9,35.3L553.17,37.81L569.44,37.4L585.71,37.8L601.98,40.48L618.25,39.79L634.52,39.66L650.79,41.2L667.06,42.89L683.33,43.49L715.87,43.62L732.14,45.1L748.41,47.66L764.68,48.16L780.95,49.12L797.22,52.71L813.49,55.26L829.76,56.23L862.3,55.27L878.57,56.69L911.11,60.4L927.38,62.16L959.92,62.75L976.19,63.72L992.46,64.51L1008.73,63.99L1025,75.85" style="vector-effect: none; fill: none; stroke: rgb(92, 184, 92); stroke-opacity: 1; stroke-width: 2px; opacity: 1;"/></g><g class="points"/><g class="text"/></g><g class="trace scatter traceb9a946" style="stroke-miterlimit: 2; opacity: 1;"><g class="fills"/><g class="errorbars"/><g class="lines"><path class="js-line" d="M16.27,40.19L32.54,27.93L48.81,27.86L113.89,28.19L130.16,28.82L178.97,32.37L195.24,32.19L244.05,33.62L260.32,32.46L309.13,33.12L325.4,34.17L341.67,32.54L357.94,33.6L374.21,32.3L390.48,32.9L423.02,33.43L439.29,33.91L455.56,33.43L471.83,34.59L553.17,37.15L569.44,37.66L585.71,39.11L601.98,39.01L618.25,39.87L634.52,56.44L650.79,50.48L667.06,45.39L683.33,43.39L699.6,44.1L732.14,44.9L748.41,45.88L780.95,47.36L797.22,48.52L813.49,49.52L829.76,51.41L846.03,51.75L862.3,53.77L894.84,56.81L911.11,56.89L943.65,59.48L959.92,60.27L1008.73,62.22L1025,72.19" style="vector-effect: none; fill: none; stroke: rgb(92, 184, 92); stroke-opacity: 1; stroke-width: 2px; opacity: 1;"/></g><g class="points"/><g class="text"/></g><g class="trace scatter trace5a580a" style="stroke-miterlimit: 2; opacity: 1;"><g class="fills"/><g class="errorbars"/><g class="lines"><path class="js-line" d="M16.27,39.94L32.54,26.62L48.81,27.29L65.08,27.79L81.35,26.95L113.89,28L130.16,27.89L146.43,27.69L162.7,28.98L178.97,29.66L195.24,29.01L211.51,28.77L227.78,29.5L292.86,31.76L309.13,33.04L325.4,32.02L341.67,31.85L423.02,32.71L439.29,33.48L455.56,34.51L471.83,34.18L504.37,36.79L520.63,36.89L536.9,36.1L553.17,38.73L585.71,38.46L601.98,41.3L634.52,40.23L650.79,41.83L667.06,43.58L683.33,44.05L715.87,44.06L732.14,45.54L748.41,48.14L764.68,48.53L780.95,49.35L797.22,53.07L813.49,55.83L829.76,56.79L846.03,55.71L862.3,55.52L894.84,58.26L911.11,60.59L927.38,62.32L943.65,62.55L976.19,63.91L992.46,64.73L1008.73,64.1L1025,76.07" style="vector-effect: none; fill: none; stroke: rgb(92, 184, 92); stroke-opacity: 1; stroke-width: 2px; opacity: 1;"/></g><g class="points"/><g class="text"/></g><g class="trace scatter trace8a4024" style="stroke-miterlimit: 2; opacity: 1;"><g class="fills"/><g class="errorbars"/><g class="lines"><path class="js-line" d="M16.27,41.01L32.54,28.78L48.81,28.5L130.16,29.55L146.43,30.62L178.97,33.04L195.24,32.93L211.51,33.31L227.78,34.5L244.05,34.38L260.32,33.01L309.13,33.8L325.4,34.86L341.67,33.07L357.94,34.31L374.21,32.98L390.48,33.62L406.75,34.36L423.02,34.24L439.29,34.69L455.56,34.11L488.1,35.73L504.37,36.06L520.63,36.09L536.9,36.97L585.71,39.63L601.98,39.51L618.25,40.33L634.52,56.91L667.06,45.89L683.33,43.88L797.22,48.86L813.49,49.86L829.76,51.74L846.03,51.97L878.57,55.58L894.84,57.06L911.11,57.06L927.38,58.54L959.92,60.37L976.19,60.96L1008.73,62.24L1025,72.3" style="vector-effect: none; fill: none; stroke: rgb(92, 184, 92); stroke-opacity: 1; stroke-width: 2px; opacity: 1;"/></g><g class="points"/><g class="text"/></g></g></g></g><g class="zerolinelayer-above"/><path class="xlines-above crisp" d="M0,0" style="fill: none;"/><path class="ylines-above crisp" d="M0,0" style="fill: none;"/><g class="overlines-above"/><g class="xaxislayer-above"><g class="xtick"><text text-anchor="middle" x="0" y="451" transform="translate(60,0)" style="font-family: system-ui, -apple-system, 'Segoe UI', Roboto, 'Helvetica Neue', 'Noto Sans', 'Liberation Sans', Arial, sans-serif, 'Apple Color Emoji', 'Segoe UI Emoji', 'Segoe UI Symbol', 'Noto Color Emoji'; font-size: 10px; fill: rgb(80, 80, 80); fill-opacity: 1; white-space: pre;">0 bp</text></g><g class="xtick"><text text-anchor="middle" x="0" y="451" style="font-family: system-ui, -apple-system, 'Segoe UI', Roboto, 'Helvetica Neue', 'Noto Sans', 'Liberation Sans', Arial, sans-serif, 'Apple Color Emoji', 'Segoe UI Emoji', 'Segoe UI Symbol', 'Noto Color Emoji'; font-size: 10px; fill: rgb(80, 80, 80); fill-opacity: 1; white-space: pre;" transform="translate(222.7,0)">10 bp</text></g><g class="xtick"><text text-anchor="middle" x="0" y="451" style="font-family: system-ui, -apple-system, 'Segoe UI', Roboto, 'Helvetica Neue', 'Noto Sans', 'Liberation Sans', Arial, sans-serif, 'Apple Color Emoji', 'Segoe UI Emoji', 'Segoe UI Symbol', 'Noto Color Emoji'; font-size: 10px; fill: rgb(80, 80, 80); fill-opacity: 1; white-space: pre;" transform="translate(385.4,0)">20 bp</text></g><g class="xtick"><text text-anchor="middle" x="0" y="451" style="font-family: system-ui, -apple-system, 'Segoe UI', Roboto, 'Helvetica Neue', 'Noto Sans', 'Liberation Sans', Arial, sans-serif, 'Apple Color Emoji', 'Segoe UI Emoji', 'Segoe UI Symbol', 'Noto Color Emoji'; font-size: 10px; fill: rgb(80, 80, 80); fill-opacity: 1; white-space: pre;" transform="translate(548.1,0)">30 bp</text></g><g class="xtick"><text text-anchor="middle" x="0" y="451" style="font-family: system-ui, -apple-system, 'Segoe UI', Roboto, 'Helvetica Neue', 'Noto Sans', 'Liberation Sans', Arial, sans-serif, 'Apple Color Emoji', 'Segoe UI Emoji', 'Segoe UI Symbol', 'Noto Color Emoji'; font-size: 10px; fill: rgb(80, 80, 80); fill-opacity: 1; white-space: pre;" transform="translate(710.79,0)">40 bp</text></g><g class="xtick"><text text-anchor="middle" x="0" y="451" style="font-family: system-ui, -apple-system, 'Segoe UI', Roboto, 'Helvetica Neue', 'Noto Sans', 'Liberation Sans', Arial, sans-serif, 'Apple Color Emoji', 'Segoe UI Emoji', 'Segoe UI Symbol', 'Noto Color Emoji'; font-size: 10px; fill: rgb(80, 80, 80); fill-opacity: 1; white-space: pre;" transform="translate(873.49,0)">50 bp</text></g><g class="xtick"><text text-anchor="middle" x="0" y="451" style="font-family: system-ui, -apple-system, 'Segoe UI', Roboto, 'Helvetica Neue', 'Noto Sans', 'Liberation Sans', Arial, sans-serif, 'Apple Color Emoji', 'Segoe UI Emoji', 'Segoe UI Symbol', 'Noto Color Emoji'; font-size: 10px; fill: rgb(80, 80, 80); fill-opacity: 1; white-space: pre;" transform="translate(1036.19,0)">60 bp</text></g></g><g class="yaxislayer-above"><g class="ytick"><text text-anchor="end" x="54" y="3.5" transform="translate(0,435)" style="font-family: system-ui, -apple-system, 'Segoe UI', Roboto, 'Helvetica Neue', 'Noto Sans', 'Liberation Sans', Arial, sans-serif, 'Apple Color Emoji', 'Segoe UI Emoji', 'Segoe UI Symbol', 'Noto Color Emoji'; font-size: 10px; fill: rgb(80, 80, 80); fill-opacity: 1; white-space: pre;">0</text></g><g class="ytick"><text text-anchor="end" x="54" y="3.5" style="font-family: system-ui, -apple-system, 'Segoe UI', Roboto, 'Helvetica Neue', 'Noto Sans', 'Liberation Sans', Arial, sans-serif, 'Apple Color Emoji', 'Segoe UI Emoji', 'Segoe UI Symbol', 'Noto Color Emoji'; font-size: 10px; fill: rgb(80, 80, 80); fill-opacity: 1; white-space: pre;" transform="translate(0,389.33)">5</text></g><g class="ytick"><text text-anchor="end" x="54" y="3.5" style="font-family: system-ui, -apple-system, 'Segoe UI', Roboto, 'Helvetica Neue', 'Noto Sans', 'Liberation Sans', Arial, sans-serif, 'Apple Color Emoji', 'Segoe UI Emoji', 'Segoe UI Symbol', 'Noto Color Emoji'; font-size: 10px; fill: rgb(80, 80, 80); fill-opacity: 1; white-space: pre;" transform="translate(0,343.65)">10</text></g><g class="ytick"><text text-anchor="end" x="54" y="3.5" style="font-family: system-ui, -apple-system, 'Segoe UI', Roboto, 'Helvetica Neue', 'Noto Sans', 'Liberation Sans', Arial, sans-serif, 'Apple Color Emoji', 'Segoe UI Emoji', 'Segoe UI Symbol', 'Noto Color Emoji'; font-size: 10px; fill: rgb(80, 80, 80); fill-opacity: 1; white-space: pre;" transform="translate(0,297.98)">15</text></g><g class="ytick"><text text-anchor="end" x="54" y="3.5" style="font-family: system-ui, -apple-system, 'Segoe UI', Roboto, 'Helvetica Neue', 'Noto Sans', 'Liberation Sans', Arial, sans-serif, 'Apple Color Emoji', 'Segoe UI Emoji', 'Segoe UI Symbol', 'Noto Color Emoji'; font-size: 10px; fill: rgb(80, 80, 80); fill-opacity: 1; white-space: pre;" transform="translate(0,252.3)">20</text></g><g class="ytick"><text text-anchor="end" x="54" y="3.5" style="font-family: system-ui, -apple-system, 'Segoe UI', Roboto, 'Helvetica Neue', 'Noto Sans', 'Liberation Sans', Arial, sans-serif, 'Apple Color Emoji', 'Segoe UI Emoji', 'Segoe UI Symbol', 'Noto Color Emoji'; font-size: 10px; fill: rgb(80, 80, 80); fill-opacity: 1; white-space: pre;" transform="translate(0,206.63)">25</text></g><g class="ytick"><text text-anchor="end" x="54" y="3.5" style="font-family: system-ui, -apple-system, 'Segoe UI', Roboto, 'Helvetica Neue', 'Noto Sans', 'Liberation Sans', Arial, sans-serif, 'Apple Color Emoji', 'Segoe UI Emoji', 'Segoe UI Symbol', 'Noto Color Emoji'; font-size: 10px; fill: rgb(80, 80, 80); fill-opacity: 1; white-space: pre;" transform="translate(0,160.95)">30</text></g><g class="ytick"><text text-anchor="end" x="54" y="3.5" style="font-family: system-ui, -apple-system, 'Segoe UI', Roboto, 'Helvetica Neue', 'Noto Sans', 'Liberation Sans', Arial, sans-serif, 'Apple Color Emoji', 'Segoe UI Emoji', 'Segoe UI Symbol', 'Noto Color Emoji'; font-size: 10px; fill: rgb(80, 80, 80); fill-opacity: 1; white-space: pre;" transform="translate(0,115.28)">35</text></g><g class="ytick"><text text-anchor="end" x="54" y="3.5" style="font-family: system-ui, -apple-system, 'Segoe UI', Roboto, 'Helvetica Neue', 'Noto Sans', 'Liberation Sans', Arial, sans-serif, 'Apple Color Emoji', 'Segoe UI Emoji', 'Segoe UI Symbol', 'Noto Color Emoji'; font-size: 10px; fill: rgb(80, 80, 80); fill-opacity: 1; white-space: pre;" transform="translate(0,69.6)">40</text></g></g><g class="overaxes-above"/></g></g><g class="polarlayer"/><g class="smithlayer"/><g class="ternarylayer"/><g class="geolayer"/><g class="funnelarealayer"/><g class="pielayer"/><g class="iciclelayer"/><g class="treemaplayer"/><g class="sunburstlayer"/><g class="glimages"/><defs id="topdefs-09afcf"><g class="clips"/></defs><g class="layer-above"><g class="imagelayer"/><g class="shapelayer"/></g><g class="infolayer"><g class="g-gtitle"><text class="gtitle" x="550" y="25" text-anchor="middle" dy="0em" style="opacity: 1; font-family: system-ui, -apple-system, 'Segoe UI', Roboto, 'Helvetica Neue', 'Noto Sans', 'Liberation Sans', Arial, sans-serif, 'Apple Color Emoji', 'Segoe UI Emoji', 'Segoe UI Symbol', 'Noto Color Emoji'; font-size: 20px; fill: rgb(60, 60, 60); fill-opacity: 1; white-space: pre;"><tspan class="line" dy="0em" x="550" y="25">FastQC: Mean Quality Scores</tspan><tspan class="line" dy="1.3em" x="550" y="25">​<tspan style="font-size:70%" dy="-0.6em">16 lines</tspan><tspan dy="0.42em">​</tspan></tspan></text></g><g class="g-xtitle"><text class="xtitle" x="572.5" y="487" text-anchor="middle" style="opacity: 1; font-family: system-ui, -apple-system, 'Segoe UI', Roboto, 'Helvetica Neue', 'Noto Sans', 'Liberation Sans', Arial, sans-serif, 'Apple Color Emoji', 'Segoe UI Emoji', 'Segoe UI Symbol', 'Noto Color Emoji'; font-size: 14px; fill: rgb(100, 100, 100); fill-opacity: 1; white-space: pre;">Position (bp)</text></g><g class="g-ytitle"><text class="ytitle" transform="rotate(-90,22,242.5)" x="22" y="242.5" text-anchor="middle" style="opacity: 1; font-family: system-ui, -apple-system, 'Segoe UI', Roboto, 'Helvetica Neue', 'Noto Sans', 'Liberation Sans', Arial, sans-serif, 'Apple Color Emoji', 'Segoe UI Emoji', 'Segoe UI Symbol', 'Noto Color Emoji'; font-size: 14px; fill: rgb(100, 100, 100); fill-opacity: 1; white-space: pre;">Phred Score</text></g></g></svg>