<svg class="main-svg" xmlns="http://www.w3.org/2000/svg" xmlns:xlink="http://www.w3.org/1999/xlink" width="2200" height="1000" style="" viewBox="0 0 1100 500"><rect x="0" y="0" width="1100" height="500" style="fill: rgb(255, 255, 255); fill-opacity: 1;"/><defs id="defs-7b5ba3"><g class="clips"><clipPath id="clip7b5ba3xyplot" class="plotclip"><rect width="1014" height="385"/></clipPath><clipPath class="axesclip" id="clip7b5ba3x"><rect x="60" y="0" width="1014" height="500"/></clipPath><clipPath class="axesclip" id="clip7b5ba3y"><rect x="0" y="50" width="1100" height="385"/></clipPath><clipPath class="axesclip" id="clip7b5ba3xy"><rect x="60" y="50" width="1014" height="385"/></clipPath></g><g class="gradients"/><g class="patterns"/></defs><g class="bglayer"/><g class="layer-below"><g class="imagelayer"/><g class="shapelayer"/></g><g class="cartesianlayer"><g class="subplot xy"><g class="layer-subplot"><g class="shapelayer"/><g class="imagelayer"/></g><g class="minor-gridlayer"><g class="x"/><g class="y"/></g><g class="gridlayer"><g class="x"><path class="xgrid crisp" transform="translate(262.8,0)" d="M0,50v385" style="stroke: rgb(128, 128, 128); stroke-opacity: 0.15; stroke-width: 1px;"/><path class="xgrid crisp" transform="translate(465.6,0)" d="M0,50v385" style="stroke: rgb(128, 128, 128); stroke-opacity: 0.15; stroke-width: 1px;"/><path class="xgrid crisp" transform="translate(668.4,0)" d="M0,50v385" style="stroke: rgb(128, 128, 128); stroke-opacity: 0.15; stroke-width: 1px;"/><path class="xgrid crisp" transform="translate(871.2,0)" d="M0,50v385" style="stroke: rgb(128, 128, 128); stroke-opacity: 0.15; stroke-width: 1px;"/></g><g class="y"><path class="ygrid crisp" transform="translate(0,378.23)" d="M60,0h1014" style="stroke: rgb(128, 128, 128); stroke-opacity: 0.15; stroke-width: 1px;"/><path class="ygrid crisp" transform="translate(0,321.46)" d="M60,0h1014" style="stroke: rgb(128, 128, 128); stroke-opacity: 0.15; stroke-width: 1px;"/><path class="ygrid crisp" transform="translate(0,264.68)" d="M60,0h1014" style="stroke: rgb(128, 128, 128); stroke-opacity: 0.15; stroke-width: 1px;"/><path class="ygrid crisp" transform="translate(0,207.91)" d="M60,0h1014" style="stroke: rgb(128, 128, 128); stroke-opacity: 0.15; stroke-width: 1px;"/><path class="ygrid crisp" transform="translate(0,151.14)" d="M60,0h1014" style="stroke: rgb(128, 128, 128); stroke-opacity: 0.15; stroke-width: 1px;"/><path class="ygrid crisp" transform="translate(0,94.37)" d="M60,0h1014" style="stroke: rgb(128, 128, 128); stroke-opacity: 0.15; stroke-width: 1px;"/></g></g><g class="zerolinelayer"><path class="xzl zl crisp" transform="translate(60,0)" d="M0,50v385" style="stroke: rgb(128, 128, 128); stroke-opacity: 0.2; stroke-width: 1px;"/><path class="yzl zl crisp" transform="translate(0,435)" d="M60,0h1014" style="stroke: rgb(128, 128, 128); stroke-opacity: 0.2; stroke-width: 1px;"/></g><g class="layer-between"><g class="shapelayer"/><g class="imagelayer"/></g><path class="xlines-below"/><path class="ylines-below"/><g class="overlines-below"/><g class="xaxislayer-below"/><g class="yaxislayer-below"/><g class="overaxes-below"/><g class="overplot"><g class="xy" transform="translate(60,50)" clip-path="url(#clip7b5ba3xyplot)"><g class="scatterlayer mlayer"><g class="trace scatter trace6404f3" style="stroke-miterlimit: 2; opacity: 1;"><g class="fills"/><g class="errorbars"/><g class="lines"><path class="js-line" d="M0,384.93L121.68,384.48L131.82,384.03L162.24,382.61L172.38,381.45L182.52,378.28L192.66,376.27L202.8,373.29L212.94,366.45L223.08,362.58L233.22,356.76L243.36,350.94L253.5,344.07L263.64,329.59L273.78,321.97L283.92,312.67L294.06,292.01L304.2,280.64L314.34,270.95L324.48,261.26L334.62,249.34L344.76,223.43L354.9,209.43L365.04,194.45L375.18,165.23L395.46,136.38L405.6,99.93L415.74,78.07L425.88,72.44L436.02,66.8L446.16,63.61L456.3,54.87L466.44,49.33L476.58,48.19L486.72,42.11L496.86,37.17L507,37.24L517.14,37.32L527.28,34.48L537.42,33.43L547.56,35.22L557.7,39.47L567.84,47.55L577.98,51.38L588.12,58.65L598.26,65.92L608.4,78.22L618.54,104.12L628.68,117.73L638.82,133.9L648.96,169L669.24,206.21L679.38,241.39L709.8,291.82L719.94,305.17L730.08,327.75L740.22,336.99L750.36,343.57L760.5,354.93L780.78,363.88L790.92,368.06L801.06,371.45L811.2,376.69L841.62,382.35L851.76,383.18L892.32,384.71L902.46,384.81L1014,384.99" style="vector-effect: none; fill: none; stroke: rgb(92, 184, 92); stroke-opacity: 1; stroke-width: 2px; opacity: 1;"/></g><g class="points"/><g class="text"/></g><g class="trace scatter trace412c26" style="stroke-miterlimit: 2; opacity: 1;"><g class="fills"/><g class="errorbars"/><g class="lines"><path class="js-line" d="M0,384.88L121.68,384.27L131.82,383.77L162.24,382.21L172.38,380.99L182.52,377.65L192.66,375.52L202.8,372.48L212.94,365.41L223.08,361.38L233.22,355.44L253.5,342.72L263.64,328.22L273.78,320.51L283.92,311.21L294.06,290.73L304.2,279.53L324.48,259.5L334.62,247.66L344.76,221.55L354.9,207.27L365.04,189.3L375.18,155.82L385.32,140.3L395.46,127.34L405.6,102.97L415.74,91.56L436.02,73.22L446.16,66.38L456.3,53.93L466.44,48.32L476.58,46.74L486.72,40.59L496.86,36.02L507,36.76L517.14,37.51L527.28,35.85L537.42,35.43L547.56,36.67L557.7,41.38L567.84,50.02L577.98,53.95L588.12,61.21L598.26,68.48L608.4,80.33L618.54,106.01L628.68,119.84L638.82,135.93L648.96,170.81L669.24,207.66L679.38,242.6L709.8,292.99L719.94,305.76L730.08,327.67L740.22,336.81L750.36,343.33L760.5,354.72L780.78,363.67L790.92,367.74L801.06,371.19L811.2,376.59L841.62,382.32L851.76,383.16L892.32,384.64L902.46,384.74L1014,384.93" style="vector-effect: none; fill: none; stroke: rgb(92, 184, 92); stroke-opacity: 1; stroke-width: 2px; opacity: 1;"/></g><g class="points"/><g class="text"/></g><g class="trace scatter trace161bfd" style="stroke-miterlimit: 2; opacity: 1;"><g class="fills"/><g class="errorbars"/><g class="lines"><path class="js-line" d="M0,384.92L111.54,384.63L121.68,384.45L162.24,382.34L172.38,381.14L182.52,377.8L192.66,375.67L202.8,372.56L212.94,365.35L223.08,361.25L233.22,355.03L243.36,348.81L253.5,341.7L263.64,326.43L273.78,318.27L283.92,309.11L294.06,288.29L304.2,276.63L314.34,266.5L324.48,256.36L334.62,244.24L344.76,218.61L354.9,205.1L365.04,190.09L375.18,160.68L395.46,131.12L405.6,84.51L415.74,53.07L425.88,54.02L436.02,54.97L446.16,54.67L466.44,47.78L476.58,46.89L486.72,41.49L496.86,36.99L517.14,36.89L527.28,34.97L537.42,38.21L547.56,43.37L557.7,47.37L567.84,56.23L577.98,61.08L588.12,69.88L598.26,78.68L608.4,90.13L618.54,115.43L628.68,129.3L638.82,144.63L648.96,177.98L669.24,213.69L679.38,247.53L709.8,294.58L719.94,307.31L730.08,328.97L740.22,337.9L750.36,344.32L760.5,355.38L780.78,364.17L790.92,368.34L801.06,371.65L811.2,376.91L841.62,382.53L851.76,383.36L892.32,384.74L902.46,384.83L1014,384.97" style="vector-effect: none; fill: none; stroke: rgb(92, 184, 92); stroke-opacity: 1; stroke-width: 2px; opacity: 1;"/></g><g class="points"/><g class="text"/></g><g class="trace scatter trace1c68b9" style="stroke-miterlimit: 2; opacity: 1;"><g class="fills"/><g class="errorbars"/><g class="lines"><path class="js-line" d="M0,384.87L111.54,384.42L121.68,384.19L162.24,381.87L172.38,380.56L182.52,377.14L192.66,375.03L202.8,371.78L212.94,364.25L223.08,359.97L233.22,353.75L253.5,340.5L263.64,325.25L273.78,317.02L283.92,307.56L294.06,286.79L304.2,275.48L324.48,255.44L334.62,243.57L344.76,217.06L354.9,202.42L365.04,182.53L375.18,146.33L385.32,130.02L395.46,118.9L405.6,97.57L415.74,87.35L436.02,69.43L446.16,63.19L456.3,52.82L466.44,48.68L476.58,45.99L486.72,38.54L496.86,33.79L507,35.27L517.14,36.75L527.28,35.7L537.42,35.92L547.56,37.2L557.7,43.44L567.84,55.54L577.98,61.4L588.12,69.81L598.26,78.21L608.4,90.44L618.54,116.22L628.68,129.77L638.82,145.19L648.96,178.46L669.24,214.28L679.38,247.87L709.8,294.6L719.94,307.14L730.08,328.59L740.22,337.51L750.36,343.91L760.5,355.11L780.78,364.05L790.92,368.21L801.06,371.58L811.2,376.9L841.62,382.49L851.76,383.28L892.32,384.67L902.46,384.75L1014,384.92" style="vector-effect: none; fill: none; stroke: rgb(92, 184, 92); stroke-opacity: 1; stroke-width: 2px; opacity: 1;"/></g><g class="points"/><g class="text"/></g><g class="trace scatter trace290672" style="stroke-miterlimit: 2; opacity: 1;"><g class="fills"/><g class="errorbars"/><g class="lines"><path class="js-line" d="M0,384.95L121.68,384.44L131.82,383.99L162.24,382.63L172.38,381.53L182.52,378.56L192.66,376.7L202.8,374.19L212.94,368.1L223.08,364.51L233.22,358.94L253.5,347.01L263.64,332.97L273.78,325.29L283.92,316.45L294.06,295.33L304.2,283.06L324.48,262.67L334.62,249.4L344.76,220.64L354.9,205.14L365.04,189.03L375.18,158.6L385.32,144.27L395.46,126.65L405.6,96.34L415.74,83.65L436.02,63.96L446.16,55.94L456.3,39.86L466.44,31.81L476.58,29.63L486.72,23.35L496.86,19.25L507,22.73L517.14,26.22L527.28,27.56L537.42,30.76L547.56,32.63L557.7,37.17L567.84,46.82L577.98,51.93L588.12,63.09L608.4,85.1L618.54,110.28L628.68,124.6L638.82,143.2L648.96,181.04L659.1,200.27L669.24,217.63L679.38,251.66L689.52,268.33L699.66,283L709.8,297.67L719.94,310.41L730.08,331.96L740.22,340.77L750.36,346.94L760.5,357.59L770.64,362.07L780.78,365.73L801.06,372.5L811.2,377.41L841.62,382.45L851.76,383.14L902.46,384.67L912.6,384.75L1003.86,384.99L1014,384.99" style="vector-effect: none; fill: none; stroke: rgb(92, 184, 92); stroke-opacity: 1; stroke-width: 2px; opacity: 1;"/></g><g class="points"/><g class="text"/></g><g class="trace scatter trace44e66d" style="stroke-miterlimit: 2; opacity: 1;"><g class="fills"/><g class="errorbars"/><g class="lines"><path class="js-line" d="M0,384.85L111.54,384.51L121.68,384.31L162.24,382.46L172.38,381.33L182.52,378.26L192.66,376.33L202.8,373.73L212.94,367.3L223.08,363.46L233.22,357.76L253.5,345.6L263.64,331.2L283.92,314.52L294.06,293.3L304.2,280.82L314.34,270.44L324.48,260.05L334.62,247.04L344.76,218.27L354.9,202.5L365.04,185.96L375.18,155.39L385.32,141.36L395.46,124.06L405.6,94.59L415.74,82.42L436.02,63L446.16,55.13L456.3,39.41L466.44,31.56L476.58,30.51L486.72,25.7L496.86,21.94L507,25.93L517.14,29.91L527.28,32.15L537.42,36.08L547.56,37.76L557.7,42.64L567.84,52.77L577.98,58.02L588.12,68.65L608.4,89.93L618.54,113.8L628.68,127.03L638.82,145.17L648.96,181.98L659.1,200.64L669.24,217.66L679.38,250.96L689.52,267.24L699.66,281.86L709.8,296.48L719.94,309.28L730.08,330.82L740.22,339.56L750.36,345.86L760.5,356.57L780.78,364.72L790.92,368.46L801.06,371.64L811.2,376.67L841.62,381.88L851.76,382.62L902.46,384.35L912.6,384.45L983.58,384.9L993.72,384.91L1014,384.94" style="vector-effect: none; fill: none; stroke: rgb(92, 184, 92); stroke-opacity: 1; stroke-width: 2px; opacity: 1;"/></g><g class="points"/><g class="text"/></g><g class="trace scatter trace17e702" style="stroke-miterlimit: 2; opacity: 1;"><g class="fills"/><g class="errorbars"/><g class="lines"><path class="js-line" d="M0,384.93L111.54,384.57L121.68,384.36L162.24,381.9L172.38,380.46L182.52,376.53L192.66,374.02L202.8,370.58L212.94,362.32L223.08,357.51L233.22,350.3L253.5,335.06L263.64,317.49L283.92,297.53L294.06,273.63L304.2,260.14L314.34,249.62L324.48,239.1L334.62,226.02L344.76,197.78L354.9,182.62L365.04,166.23L375.18,137.06L385.32,124.29L395.46,109.03L405.6,82.83L415.74,71.9L436.02,54.28L446.16,47.44L456.3,35.09L466.44,29.58L476.58,28.84L486.72,25.16L496.86,22.22L507,26.38L517.14,30.54L527.28,33.56L537.42,41.58L547.56,46.58L557.7,52.35L567.84,66.37L577.98,74.61L588.12,86.63L608.4,110.52L618.54,136.2L628.68,150.01L638.82,167.29L648.96,202.49L659.1,220.4L669.24,236.96L679.38,268.36L689.52,283.22L699.66,296.16L709.8,309.11L719.94,320.04L730.08,338.94L740.22,346.91L750.36,352.23L760.5,361.43L780.78,368.44L790.92,371.58L801.06,374.13L811.2,378.25L841.62,382.61L851.76,383.24L902.46,384.68L912.6,384.76L1003.86,384.99L1014,384.99" style="vector-effect: none; fill: none; stroke: rgb(92, 184, 92); stroke-opacity: 1; stroke-width: 2px; opacity: 1;"/></g><g class="points"/><g class="text"/></g><g class="trace scatter trace5d78d4" style="stroke-miterlimit: 2; opacity: 1;"><g class="fills"/><g class="errorbars"/><g class="lines"><path class="js-line" d="M0,384.84L101.4,384.48L111.54,384.37L141.96,383.11L152.1,382.31L172.38,380.03L182.52,375.97L192.66,373.39L202.8,369.63L212.94,361L223.08,356.14L253.5,333.21L263.64,315.82L273.78,306.42L283.92,295.87L294.06,271.89L304.2,258.45L324.48,237.26L334.62,224.03L344.76,195.83L354.9,180.86L365.04,164.56L375.18,135.17L385.32,122.08L395.46,107.64L405.6,82.48L415.74,71.77L446.16,48.7L456.3,36.7L466.44,31.87L476.58,31.21L496.86,25.97L507,30.83L517.14,35.68L527.28,39.05L537.42,47.33L547.56,52.24L557.7,58.01L567.84,71.08L577.98,78.37L588.12,89.62L608.4,112.63L618.54,137.89L628.68,151.39L638.82,168.04L648.96,202.5L659.1,220.31L669.24,235.97L679.38,266.65L689.52,281.66L699.66,294.5L709.8,307.35L719.94,318.29L730.08,337.36L740.22,345.49L750.36,350.7L760.5,359.97L770.64,364.04L780.78,367.17L801.06,372.92L811.2,377.22L841.62,381.8L851.76,382.52L902.46,384.27L912.6,384.36L973.44,384.84L983.58,384.87L1014,384.93" style="vector-effect: none; fill: none; stroke: rgb(92, 184, 92); stroke-opacity: 1; stroke-width: 2px; opacity: 1;"/></g><g class="points"/><g class="text"/></g><g class="trace scatter trace97da30" style="stroke-miterlimit: 2; opacity: 1;"><g class="fills"/><g class="errorbars"/><g class="lines"><path class="js-line" d="M0,384.93L111.54,384.58L121.68,384.41L162.24,382.61L172.38,381.51L182.52,378.54L192.66,376.68L202.8,374.23L212.94,368.05L223.08,364.33L233.22,358.9L243.36,353.47L253.5,346.88L263.64,332.3L273.78,324.3L283.92,314.92L294.06,293.4L304.2,281.27L314.34,270.43L324.48,259.59L334.62,244.88L344.76,213.98L354.9,197.8L365.04,180.06L375.18,146.78L385.32,131.24L395.46,113.04L405.6,82.27L415.74,69.69L436.02,48.09L446.16,45.02L456.3,35L466.44,28.06L476.58,27.02L486.72,22.76L496.86,19.54L507,24.25L517.14,28.95L527.28,30.79L537.42,35.4L547.56,38.16L557.7,44.07L567.84,56.06L577.98,62.14L588.12,72.06L598.26,81.98L608.4,94.18L618.54,120.62L628.68,134.86L638.82,152.93L648.96,189.88L659.1,208.75L669.24,225.4L679.38,257.75L689.52,273.45L709.8,301.82L719.94,313.63L730.08,333.73L740.22,342.03L750.36,347.97L760.5,358.19L790.92,370.52L801.06,373.44L811.2,378.21L821.34,380.07L851.76,383.45L861.9,383.81L902.46,384.74L912.6,384.79L1014,384.99" style="vector-effect: none; fill: none; stroke: rgb(92, 184, 92); stroke-opacity: 1; stroke-width: 2px; opacity: 1;"/></g><g class="points"/><g class="text"/></g><g class="trace scatter tracec125ac" style="stroke-miterlimit: 2; opacity: 1;"><g class="fills"/><g class="errorbars"/><g class="lines"><path class="js-line" d="M0,384.83L111.54,384.44L121.68,384.25L162.24,382.37L172.38,381.23L182.52,378.21L192.66,376.34L202.8,373.92L212.94,367.75L223.08,363.98L233.22,358.24L243.36,352.5L253.5,345.85L263.64,331.28L273.78,323.36L283.92,314L294.06,292.63L314.34,269.72L324.48,258.82L334.62,244.07L344.76,213.14L354.9,196.94L365.04,178.97L375.18,145.14L385.32,129.27L395.46,111.38L405.6,83.06L415.74,72.63L425.88,64.03L436.02,55.44L446.16,50.19L456.3,37.76L466.44,30.57L476.58,29.74L486.72,26.01L496.86,23.11L507,28.04L517.14,32.98L527.28,35.24L537.42,39.68L547.56,41.85L557.7,47.11L567.84,58.32L577.98,64.26L588.12,73.37L598.26,82.48L608.4,94.1L618.54,119.26L628.68,132.8L638.82,150.67L648.96,187.24L659.1,205.94L669.24,222.46L679.38,255.05L689.52,271.11L709.8,299.65L719.94,311.61L730.08,332.01L740.22,340.45L750.36,346.4L760.5,356.85L780.78,365.31L790.92,369.26L801.06,372.27L811.2,377.24L821.34,379.21L831.48,380.37L841.62,382.2L851.76,382.88L912.6,384.49L922.74,384.64L1014,384.94" style="vector-effect: none; fill: none; stroke: rgb(92, 184, 92); stroke-opacity: 1; stroke-width: 2px; opacity: 1;"/></g><g class="points"/><g class="text"/></g><g class="trace scatter trace7af77d" style="stroke-miterlimit: 2; opacity: 1;"><g class="fills"/><g class="errorbars"/><g class="lines"><path class="js-line" d="M0,384.96L121.68,384.46L131.82,383.99L162.24,382.56L172.38,381.41L182.52,378.4L192.66,376.53L202.8,373.8L212.94,367.19L223.08,363.32L233.22,357.46L253.5,344.98L263.64,330.47L273.78,322.57L283.92,313.26L294.06,292.29L304.2,280.64L324.48,259.09L334.62,244.77L344.76,215.14L354.9,199.82L365.04,183.21L375.18,152.23L385.32,137.85L395.46,121.48L405.6,94.54L415.74,83.96L436.02,64.48L446.16,59.05L456.3,46.51L466.44,39.4L476.58,36.93L486.72,31.09L496.86,27.74L507,31.1L517.14,34.47L527.28,36.34L537.42,40.29L547.56,42.37L557.7,45.82L567.84,54.73L577.98,60.2L588.12,69.03L608.4,87.59L618.54,110.48L628.68,123.62L638.82,141.26L648.96,178.38L659.1,197.87L669.24,215.17L679.38,248.63L689.52,264.8L699.66,279.28L709.8,293.77L719.94,306.36L730.08,328.04L740.22,337.13L750.36,343.56L760.5,354.75L780.78,363.59L790.92,367.67L801.06,370.95L811.2,376.36L821.34,378.5L831.48,379.86L841.62,382.05L851.76,382.88L902.46,384.63L912.6,384.72L993.72,384.98L1003.86,384.99L1014,384.99" style="vector-effect: none; fill: none; stroke: rgb(92, 184, 92); stroke-opacity: 1; stroke-width: 2px; opacity: 1;"/></g><g class="points"/><g class="text"/></g><g class="trace scatter trace92447d" style="stroke-miterlimit: 2; opacity: 1;"><g class="fills"/><g class="errorbars"/><g class="lines"><path class="js-line" d="M0,384.9L121.68,384.36L131.82,383.87L162.24,382.38L172.38,381.18L182.52,378.01L192.66,376.04L202.8,373.22L212.94,366.38L223.08,362.37L233.22,356.42L243.36,350.46L253.5,343.53L263.64,328.61L273.78,320.63L283.92,311.37L294.06,290.27L314.34,267.71L324.48,256.98L334.62,242.92L344.76,213.27L365.04,181.46L375.18,151.03L385.32,136.81L395.46,121.11L405.6,94.76L415.74,84.1L436.02,65.34L446.16,59.95L456.3,47.49L466.44,40.42L476.58,38.76L486.72,33.64L496.86,30.17L507,33.24L517.14,36.31L527.28,38.13L537.42,42.63L547.56,45.31L557.7,49.04L567.84,58.5L577.98,64.24L588.12,73.16L608.4,91.51L618.54,113.46L628.68,126L638.82,143.3L648.96,179.47L659.1,198.34L669.24,215.27L679.38,248.1L699.66,278.52L709.8,293.06L719.94,305.21L730.08,326.54L740.22,335.71L750.36,342.19L760.5,353.43L770.64,358.17L790.92,366.52L801.06,369.85L811.2,375.41L821.34,377.64L831.48,379.08L841.62,381.39L872.04,383.33L882.18,383.61L912.6,384.41L922.74,384.6L1014,384.97" style="vector-effect: none; fill: none; stroke: rgb(92, 184, 92); stroke-opacity: 1; stroke-width: 2px; opacity: 1;"/></g><g class="points"/><g class="text"/></g><g class="trace scatter trace05cfd6" style="stroke-miterlimit: 2; opacity: 1;"><g class="fills"/><g class="errorbars"/><g class="lines"><path class="js-line" d="M0,384.95L121.68,384.39L131.82,383.84L162.24,382.17L172.38,380.86L182.52,377.15L192.66,374.75L202.8,371.99L212.94,365.3L223.08,361.37L233.22,355.21L253.5,342.45L263.64,327.88L273.78,319.89L283.92,310.64L294.06,289.01L304.2,276.63L324.48,257.29L334.62,243.99L344.76,215.75L354.9,200.82L365.04,184.8L375.18,155.68L385.32,142.59L395.46,126.99L405.6,98.94L415.74,86.49L436.02,66.77L446.16,58.25L456.3,43.51L466.44,37.29L476.58,35.62L486.72,30.53L496.86,27.11L507,30.45L517.14,33.79L527.28,34.38L547.56,39.45L557.7,44.73L567.84,55.36L577.98,60.72L608.4,90.8L618.54,114.84L628.68,128.47L638.82,146.02L648.96,182.34L659.1,201.11L669.24,217.76L679.38,250.65L689.52,266.88L699.66,281.28L709.8,295.68L719.94,308.09L730.08,328.94L740.22,337.36L750.36,343.45L760.5,354.03L780.78,362.53L790.92,366.53L801.06,369.73L811.2,374.91L841.62,381L851.76,381.99L902.46,384.47L912.6,384.58L973.44,384.95L983.58,384.96L1014,384.99" style="vector-effect: none; fill: none; stroke: rgb(92, 184, 92); stroke-opacity: 1; stroke-width: 2px; opacity: 1;"/></g><g class="points"/><g class="text"/></g><g class="trace scatter trace25d3b8" style="stroke-miterlimit: 2; opacity: 1;"><g class="fills"/><g class="errorbars"/><g class="lines"><path class="js-line" d="M0,384.9L121.68,384.29L131.82,383.76L162.24,382.06L172.38,380.71L182.52,376.95L192.66,374.55L202.8,371.53L212.94,364.5L223.08,360.48L233.22,354.31L253.5,341.35L263.64,326.62L273.78,318.68L283.92,309.13L294.06,286.81L304.2,274.03L324.48,254.83L334.62,241.54L344.76,213.09L354.9,197.94L365.04,181.98L375.18,153.01L385.32,140.01L395.46,124.89L405.6,97.16L415.74,84.56L446.16,58.55L456.3,44.22L466.44,38.37L476.58,37.43L486.72,34.07L496.86,31.65L517.14,37.95L527.28,39.66L537.42,43.29L547.56,45.21L557.7,50.07L567.84,60.52L577.98,66.09L588.12,75.57L608.4,94.69L618.54,117.25L628.68,130.16L638.82,147.42L648.96,182.53L659.1,200.39L669.24,216.89L679.38,249.32L699.66,279.79L709.8,294.34L719.94,306.46L730.08,327.22L740.22,335.85L750.36,341.98L760.5,352.68L770.64,357.25L801.06,368.41L811.2,373.81L841.62,380.16L851.76,381.2L892.32,383.72L902.46,383.99L993.72,384.88L1003.86,384.91L1014,384.93" style="vector-effect: none; fill: none; stroke: rgb(92, 184, 92); stroke-opacity: 1; stroke-width: 2px; opacity: 1;"/></g><g class="points"/><g class="text"/></g><g class="trace scatter traceee6e93" style="stroke-miterlimit: 2; opacity: 1;"><g class="fills"/><g class="errorbars"/><g class="lines"><path class="js-line" d="M0,384.93L111.54,384.56L121.68,384.36L162.24,381.99L172.38,380.68L182.52,377.01L192.66,374.64L202.8,371.62L212.94,364.49L223.08,360.39L233.22,354.33L243.36,348.27L253.5,341.28L263.64,326.26L273.78,318.22L283.92,308.6L294.06,286.93L304.2,274.87L314.34,264.82L324.48,254.77L334.62,241.2L344.76,212.8L354.9,197.98L365.04,182.47L375.18,153.89L385.32,140.84L395.46,125.56L405.6,97.78L415.74,85.28L436.02,65.88L446.16,57.63L456.3,43.17L466.44,36.95L476.58,34.84L486.72,29.42L496.86,26.11L507,28.37L527.28,32.27L537.42,37.19L547.56,40.47L557.7,45.46L567.84,56.91L577.98,63.38L608.4,94.61L618.54,117.78L628.68,131.17L638.82,148.66L648.96,184.47L659.1,202.78L669.24,219.63L679.38,252.5L689.52,268.53L699.66,282.67L709.8,296.82L719.94,308.91L730.08,329.58L740.22,338.17L750.36,344.28L760.5,354.97L780.78,363.5L790.92,367.44L801.06,370.59L811.2,375.79L841.62,381.7L851.76,382.58L902.46,384.59L912.6,384.67L983.58,384.97L993.72,384.98L1014,384.99" style="vector-effect: none; fill: none; stroke: rgb(92, 184, 92); stroke-opacity: 1; stroke-width: 2px; opacity: 1;"/></g><g class="points"/><g class="text"/></g><g class="trace scatter tracef2178e" style="stroke-miterlimit: 2; opacity: 1;"><g class="fills"/><g class="errorbars"/><g class="lines"><path class="js-line" d="M0,384.88L111.54,384.46L121.68,384.24L162.24,381.85L172.38,380.42L182.52,376.53L192.66,374.07L202.8,371.04L212.94,363.82L223.08,359.63L233.22,353.3L253.5,339.83L263.64,324.43L273.78,316.18L283.92,306.44L294.06,284.51L304.2,272.31L324.48,251.7L334.62,238.41L344.76,210.29L354.9,195.47L365.04,179.87L375.18,151.05L395.46,123.43L405.6,97.11L415.74,85.2L425.88,75.48L436.02,65.77L446.16,57.92L456.3,44.43L466.44,38.78L476.58,37.38L486.72,32.88L496.86,29.78L507,33.19L517.14,36.6L527.28,38.38L537.42,43.12L547.56,46.09L557.7,51.2L567.84,62.03L577.98,67.75L588.12,78.57L598.26,89.39L608.4,98.88L618.54,120.63L628.68,132.9L638.82,149.71L648.96,184.45L669.24,218.98L679.38,251.14L689.52,266.7L699.66,280.79L709.8,294.88L719.94,307.01L730.08,327.9L740.22,336.66L750.36,342.74L760.5,353.51L780.78,362.25L790.92,366.3L801.06,369.49L811.2,374.76L841.62,380.85L851.76,381.85L902.46,384.13L912.6,384.27L963.3,384.79L973.44,384.82L1014,384.92" style="vector-effect: none; fill: none; stroke: rgb(92, 184, 92); stroke-opacity: 1; stroke-width: 2px; opacity: 1;"/></g><g class="points"/><g class="text"/></g></g></g></g><g class="zerolinelayer-above"/><path class="xlines-above crisp" d="M0,0" style="fill: none;"/><path class="ylines-above crisp" d="M0,0" style="fill: none;"/><g class="overlines-above"/><g class="xaxislayer-above"><g class="xtick"><text text-anchor="middle" x="0" y="451" transform="translate(60,0)" style="font-family: system-ui, -apple-system, 'Segoe UI', Roboto, 'Helvetica Neue', 'Noto Sans', 'Liberation Sans', Arial, sans-serif, 'Apple Color Emoji', 'Segoe UI Emoji', 'Segoe UI Symbol', 'Noto Color Emoji'; font-size: 10px; fill: rgb(80, 80, 80); fill-opacity: 1; white-space: pre;">0%</text></g><g class="xtick"><text text-anchor="middle" x="0" y="451" style="font-family: system-ui, -apple-system, 'Segoe UI', Roboto, 'Helvetica Neue', 'Noto Sans', 'Liberation Sans', Arial, sans-serif, 'Apple Color Emoji', 'Segoe UI Emoji', 'Segoe UI Symbol', 'Noto Color Emoji'; font-size: 10px; fill: rgb(80, 80, 80); fill-opacity: 1; white-space: pre;" transform="translate(262.8,0)">20%</text></g><g class="xtick"><text text-anchor="middle" x="0" y="451" style="font-family: system-ui, -apple-system, 'Segoe UI', Roboto, 'Helvetica Neue', 'Noto Sans', 'Liberation Sans', Arial, sans-serif, 'Apple Color Emoji', 'Segoe UI Emoji', 'Segoe UI Symbol', 'Noto Color Emoji'; font-size: 10px; fill: rgb(80, 80, 80); fill-opacity: 1; white-space: pre;" transform="translate(465.6,0)">40%</text></g><g class="xtick"><text text-anchor="middle" x="0" y="451" style="font-family: system-ui, -apple-system, 'Segoe UI', Roboto, 'Helvetica Neue', 'Noto Sans', 'Liberation Sans', Arial, sans-serif, 'Apple Color Emoji', 'Segoe UI Emoji', 'Segoe UI Symbol', 'Noto Color Emoji'; font-size: 10px; fill: rgb(80, 80, 80); fill-opacity: 1; white-space: pre;" transform="translate(668.4,0)">60%</text></g><g class="xtick"><text text-anchor="middle" x="0" y="451" style="font-family: system-ui, -apple-system, 'Segoe UI', Roboto, 'Helvetica Neue', 'Noto Sans', 'Liberation Sans', Arial, sans-serif, 'Apple Color Emoji', 'Segoe UI Emoji', 'Segoe UI Symbol', 'Noto Color Emoji'; font-size: 10px; fill: rgb(80, 80, 80); fill-opacity: 1; white-space: pre;" transform="translate(871.2,0)">80%</text></g><g class="xtick"><text text-anchor="middle" x="0" y="451" style="font-family: system-ui, -apple-system, 'Segoe UI', Roboto, 'Helvetica Neue', 'Noto Sans', 'Liberation Sans', Arial, sans-serif, 'Apple Color Emoji', 'Segoe UI Emoji', 'Segoe UI Symbol', 'Noto Color Emoji'; font-size: 10px; fill: rgb(80, 80, 80); fill-opacity: 1; white-space: pre;" transform="translate(1074,0)">100%</text></g></g><g class="yaxislayer-above"><g class="ytick"><text text-anchor="end" x="54" y="3.5" transform="translate(0,435)" style="font-family: system-ui, -apple-system, 'Segoe UI', Roboto, 'Helvetica Neue', 'Noto Sans', 'Liberation Sans', Arial, sans-serif, 'Apple Color Emoji', 'Segoe UI Emoji', 'Segoe UI Symbol', 'Noto Color Emoji'; font-size: 10px; fill: rgb(80, 80, 80); fill-opacity: 1; white-space: pre;">0%</text></g><g class="ytick"><text text-anchor="end" x="54" y="3.5" style="font-family: system-ui, -apple-system, 'Segoe UI', Roboto, 'Helvetica Neue', 'Noto Sans', 'Liberation Sans', Arial, sans-serif, 'Apple Color Emoji', 'Segoe UI Emoji', 'Segoe UI Symbol', 'Noto Color Emoji'; font-size: 10px; fill: rgb(80, 80, 80); fill-opacity: 1; white-space: pre;" transform="translate(0,378.23)">0.5%</text></g><g class="ytick"><text text-anchor="end" x="54" y="3.5" style="font-family: system-ui, -apple-system, 'Segoe UI', Roboto, 'Helvetica Neue', 'Noto Sans', 'Liberation Sans', Arial, sans-serif, 'Apple Color Emoji', 'Segoe UI Emoji', 'Segoe UI Symbol', 'Noto Color Emoji'; font-size: 10px; fill: rgb(80, 80, 80); fill-opacity: 1; white-space: pre;" transform="translate(0,321.46)">1%</text></g><g class="ytick"><text text-anchor="end" x="54" y="3.5" style="font-family: system-ui, -apple-system, 'Segoe UI', Roboto, 'Helvetica Neue', 'Noto Sans', 'Liberation Sans', Arial, sans-serif, 'Apple Color Emoji', 'Segoe UI Emoji', 'Segoe UI Symbol', 'Noto Color Emoji'; font-size: 10px; fill: rgb(80, 80, 80); fill-opacity: 1; white-space: pre;" transform="translate(0,264.68)">1.5%</text></g><g class="ytick"><text text-anchor="end" x="54" y="3.5" style="font-family: system-ui, -apple-system, 'Segoe UI', Roboto, 'Helvetica Neue', 'Noto Sans', 'Liberation Sans', Arial, sans-serif, 'Apple Color Emoji', 'Segoe UI Emoji', 'Segoe UI Symbol', 'Noto Color Emoji'; font-size: 10px; fill: rgb(80, 80, 80); fill-opacity: 1; white-space: pre;" transform="translate(0,207.91)">2%</text></g><g class="ytick"><text text-anchor="end" x="54" y="3.5" style="font-family: system-ui, -apple-system, 'Segoe UI', Roboto, 'Helvetica Neue', 'Noto Sans', 'Liberation Sans', Arial, sans-serif, 'Apple Color Emoji', 'Segoe UI Emoji', 'Segoe UI Symbol', 'Noto Color Emoji'; font-size: 10px; fill: rgb(80, 80, 80); fill-opacity: 1; white-space: pre;" transform="translate(0,151.14)">2.5%</text></g><g class="ytick"><text text-anchor="end" x="54" y="3.5" style="font-family: system-ui, -apple-system, 'Segoe UI', Roboto, 'Helvetica Neue', 'Noto Sans', 'Liberation Sans', Arial, sans-serif, 'Apple Color Emoji', 'Segoe UI Emoji', 'Segoe UI Symbol', 'Noto Color Emoji'; font-size: 10px; fill: rgb(80, 80, 80); fill-opacity: 1; white-space: pre;" transform="translate(0,94.37)">3%</text></g></g><g class="overaxes-above"/></g></g><g class="polarlayer"/><g class="smithlayer"/><g class="ternarylayer"/><g class="geolayer"/><g class="funnelarealayer"/><g class="pielayer"/><g class="iciclelayer"/><g class="treemaplayer"/><g class="sunburstlayer"/><g class="glimages"/><defs id="topdefs-7b5ba3"><g class="clips"/></defs><g class="layer-above"><g class="imagelayer"/><g class="shapelayer"/></g><g class="infolayer"><g class="g-gtitle"><text class="gtitle" x="550" y="25" text-anchor="middle" dy="0em" style="opacity: 1; font-family: system-ui, -apple-system, 'Segoe UI', Roboto, 'Helvetica Neue', 'Noto Sans', 'Liberation Sans', Arial, sans-serif, 'Apple Color Emoji', 'Segoe UI Emoji', 'Segoe UI Symbol', 'Noto Color Emoji'; font-size: 20px; fill: rgb(60, 60, 60); fill-opacity: 1; white-space: pre;"><tspan class="line" dy="0em" x="550" y="25">FastQC: Per Sequence GC Content</tspan><tspan class="line" dy="1.3em" x="550" y="25">​<tspan style="font-size:70%" dy="-0.6em">Percentages, 16 lines</tspan><tspan dy="0.42em">​</tspan></tspan></text></g><g class="g-xtitle"><text class="xtitle" x="567" y="487" text-anchor="middle" style="opacity: 1; font-family: system-ui, -apple-system, 'Segoe UI', Roboto, 'Helvetica Neue', 'Noto Sans', 'Liberation Sans', Arial, sans-serif, 'Apple Color Emoji', 'Segoe UI Emoji', 'Segoe UI Symbol', 'Noto Color Emoji'; font-size: 14px; fill: rgb(100, 100, 100); fill-opacity: 1; white-space: pre;">% GC</text></g><g class="g-ytitle"><text class="ytitle" transform="rotate(-90,22,242.5)" x="22" y="242.5" text-anchor="middle" style="opacity: 1; font-family: system-ui, -apple-system, 'Segoe UI', Roboto, 'Helvetica Neue', 'Noto Sans', 'Liberation Sans', Arial, sans-serif, 'Apple Color Emoji', 'Segoe UI Emoji', 'Segoe UI Symbol', 'Noto Color Emoji'; font-size: 14px; fill: rgb(100, 100, 100); fill-opacity: 1; white-space: pre;">Percentage</text></g></g></svg>