<svg class="main-svg" xmlns="http://www.w3.org/2000/svg" xmlns:xlink="http://www.w3.org/1999/xlink" width="2200" height="1000" style="" viewBox="0 0 1100 500"><rect x="0" y="0" width="1100" height="500" style="fill: rgb(255, 255, 255); fill-opacity: 1;"/><defs id="defs-bc1b67"><g class="clips"><clipPath id="clipbc1b67xyplot" class="plotclip"><rect width="1014" height="385"/></clipPath><clipPath class="axesclip" id="clipbc1b67x"><rect x="60" y="0" width="1014" height="500"/></clipPath><clipPath class="axesclip" id="clipbc1b67y"><rect x="0" y="50" width="1100" height="385"/></clipPath><clipPath class="axesclip" id="clipbc1b67xy"><rect x="60" y="50" width="1014" height="385"/></clipPath></g><g class="gradients"/><g class="patterns"/></defs><g class="bglayer"/><g class="layer-below"><g class="imagelayer"/><g class="shapelayer"/></g><g class="cartesianlayer"><g class="subplot xy"><g class="layer-subplot"><g class="shapelayer"/><g class="imagelayer"/></g><g class="minor-gridlayer"><g class="x"/><g class="y"/></g><g class="gridlayer"><g class="x"><path class="xgrid crisp" transform="translate(262.8,0)" d="M0,50v385" style="stroke: rgb(128, 128, 128); stroke-opacity: 0.15; stroke-width: 1px;"/><path class="xgrid crisp" transform="translate(465.6,0)" d="M0,50v385" style="stroke: rgb(128, 128, 128); stroke-opacity: 0.15; stroke-width: 1px;"/><path class="xgrid crisp" transform="translate(668.4,0)" d="M0,50v385" style="stroke: rgb(128, 128, 128); stroke-opacity: 0.15; stroke-width: 1px;"/><path class="xgrid crisp" transform="translate(871.2,0)" d="M0,50v385" style="stroke: rgb(128, 128, 128); stroke-opacity: 0.15; stroke-width: 1px;"/></g><g class="y"><path class="ygrid crisp" transform="translate(0,392.31)" d="M60,0h1014" style="stroke: rgb(128, 128, 128); stroke-opacity: 0.15; stroke-width: 1px;"/><path class="ygrid crisp" transform="translate(0,349.62)" d="M60,0h1014" style="stroke: rgb(128, 128, 128); stroke-opacity: 0.15; stroke-width: 1px;"/><path class="ygrid crisp" transform="translate(0,306.93)" d="M60,0h1014" style="stroke: rgb(128, 128, 128); stroke-opacity: 0.15; stroke-width: 1px;"/><path class="ygrid crisp" transform="translate(0,264.24)" d="M60,0h1014" style="stroke: rgb(128, 128, 128); stroke-opacity: 0.15; stroke-width: 1px;"/><path class="ygrid crisp" transform="translate(0,221.55)" d="M60,0h1014" style="stroke: rgb(128, 128, 128); stroke-opacity: 0.15; stroke-width: 1px;"/><path class="ygrid crisp" transform="translate(0,178.86)" d="M60,0h1014" style="stroke: rgb(128, 128, 128); stroke-opacity: 0.15; stroke-width: 1px;"/><path class="ygrid crisp" transform="translate(0,136.17000000000002)" d="M60,0h1014" style="stroke: rgb(128, 128, 128); stroke-opacity: 0.15; stroke-width: 1px;"/><path class="ygrid crisp" transform="translate(0,93.47999999999999)" d="M60,0h1014" style="stroke: rgb(128, 128, 128); stroke-opacity: 0.15; stroke-width: 1px;"/></g></g><g class="zerolinelayer"><path class="xzl zl crisp" transform="translate(60,0)" d="M0,50v385" style="stroke: rgb(128, 128, 128); stroke-opacity: 0.2; stroke-width: 1px;"/><path class="yzl zl crisp" transform="translate(0,435)" d="M60,0h1014" style="stroke: rgb(128, 128, 128); stroke-opacity: 0.2; stroke-width: 1px;"/></g><g class="layer-between"><g class="shapelayer"/><g class="imagelayer"/></g><path class="xlines-below"/><path class="ylines-below"/><g class="overlines-below"/><g class="xaxislayer-below"/><g class="yaxislayer-below"/><g class="overaxes-below"/><g class="overplot"><g class="xy" transform="translate(60,50)" clip-path="url(#clipbc1b67xyplot)"><g class="scatterlayer mlayer"><g class="trace scatter tracea9e532" style="stroke-miterlimit: 2; opacity: 1;"><g class="fills"/><g class="errorbars"/><g class="lines"><path class="js-line" d="M0,384.95L121.68,384.65L131.82,384.33L162.24,383.36L172.38,382.57L182.52,380.39L192.66,379.01L202.8,376.97L212.94,372.28L223.08,369.63L233.22,365.64L253.5,356.94L263.64,347.01L273.78,341.79L283.92,335.42L294.06,321.25L304.2,313.46L324.48,300.18L334.62,292.01L344.76,274.24L354.9,264.65L365.04,254.38L375.18,234.35L395.46,214.57L405.6,189.58L415.74,174.6L425.88,170.74L436.02,166.87L446.16,164.68L456.3,158.7L466.44,154.9L476.58,154.11L486.72,149.95L496.86,146.56L507,146.61L517.14,146.66L527.28,144.72L537.42,144L547.56,145.23L557.7,148.14L567.84,153.68L577.98,156.3L588.12,161.29L598.26,166.27L608.4,174.7L618.54,192.46L628.68,201.79L638.82,212.87L648.96,236.93L669.24,262.44L679.38,286.56L709.8,321.13L719.94,330.28L730.08,345.76L740.22,352.09L750.36,356.6L760.5,364.38L780.78,370.52L790.92,373.38L801.06,375.71L811.2,379.3L851.76,383.75L861.9,384.08L902.46,384.87L912.6,384.89L1014,384.99" style="vector-effect: none; fill: none; stroke: rgb(92, 184, 92); stroke-opacity: 1; stroke-width: 2px; opacity: 1;"/></g><g class="points"/><g class="text"/></g><g class="trace scatter trace3b9379" style="stroke-miterlimit: 2; opacity: 1;"><g class="fills"/><g class="errorbars"/><g class="lines"><path class="js-line" d="M0,384.92L121.68,384.5L131.82,384.16L162.24,383.09L172.38,382.26L182.52,379.97L192.66,378.51L202.8,376.43L212.94,371.59L223.08,368.83L233.22,364.76L253.5,356.05L263.64,346.12L273.78,340.84L283.92,334.48L294.06,320.45L304.2,312.78L324.48,299.06L334.62,290.96L344.76,273.08L354.9,263.3L365.04,251L375.18,228.07L385.32,217.44L395.46,208.57L405.6,191.88L415.74,184.07L436.02,171.51L446.16,166.82L456.3,158.3L466.44,154.46L476.58,153.38L486.72,149.17L496.86,146.04L507,146.55L517.14,147.06L527.28,145.92L537.42,145.63L547.56,146.48L557.7,149.71L567.84,155.62L577.98,158.31L588.12,163.29L598.26,168.26L608.4,176.38L618.54,193.96L628.68,203.44L638.82,214.45L648.96,238.33L669.24,263.57L679.38,287.49L709.8,321.99L719.94,330.74L730.08,345.74L740.22,352L750.36,356.47L760.5,364.27L780.78,370.39L790.92,373.18L801.06,375.55L811.2,379.24L841.62,383.16L851.76,383.74L902.46,384.82L912.6,384.85L1014,384.95" style="vector-effect: none; fill: none; stroke: rgb(92, 184, 92); stroke-opacity: 1; stroke-width: 2px; opacity: 1;"/></g><g class="points"/><g class="text"/></g><g class="trace scatter trace1ad8c6" style="stroke-miterlimit: 2; opacity: 1;"><g class="fills"/><g class="errorbars"/><g class="lines"><path class="js-line" d="M0,384.95L121.68,384.65L131.82,384.33L162.24,383.32L172.38,382.56L192.66,379.1L202.8,377.13L212.94,372.57L223.08,369.97L253.5,357.6L263.64,347.94L283.92,336.98L294.06,323.81L304.2,316.43L314.34,310.02L324.48,303.61L334.62,295.94L344.76,279.72L354.9,271.17L365.04,261.67L375.18,243.07L395.46,224.36L405.6,194.88L415.74,174.98L425.88,175.58L436.02,176.18L446.16,175.99L466.44,171.63L476.58,171.07L496.86,164.81L507,164.77L517.14,164.74L527.28,163.53L537.42,165.58L547.56,168.85L557.7,171.38L567.84,176.98L577.98,180.05L588.12,185.62L598.26,191.19L608.4,198.43L618.54,214.44L628.68,223.22L638.82,232.91L648.96,254.01L669.24,276.61L679.38,298.02L709.8,327.79L719.94,335.84L730.08,349.55L740.22,355.2L750.36,359.26L760.5,366.26L790.92,374.46L801.06,376.55L811.2,379.88L821.34,381.11L851.76,383.96L861.9,384.25L902.46,384.89L912.6,384.91L1014,384.98" style="vector-effect: none; fill: none; stroke: rgb(92, 184, 92); stroke-opacity: 1; stroke-width: 2px; opacity: 1;"/></g><g class="points"/><g class="text"/></g><g class="trace scatter trace5c6146" style="stroke-miterlimit: 2; opacity: 1;"><g class="fills"/><g class="errorbars"/><g class="lines"><path class="js-line" d="M0,384.92L121.68,384.49L131.82,384.1L162.24,383.02L172.38,382.2L182.52,380.04L192.66,378.71L202.8,376.65L212.94,371.89L223.08,369.19L233.22,365.26L253.5,356.89L263.64,347.26L283.92,336.09L294.06,322.97L314.34,309.5L324.48,303.17L334.62,295.67L344.76,278.93L354.9,269.68L365.04,257.12L375.18,234.25L385.32,223.95L395.46,216.93L405.6,203.45L425.88,191.34L436.02,185.68L446.16,181.74L456.3,175.19L466.44,172.58L476.58,170.88L486.72,166.18L496.86,163.17L517.14,165.04L527.28,164.38L547.56,165.33L557.7,169.27L567.84,176.91L577.98,180.61L598.26,191.23L608.4,198.95L618.54,215.23L628.68,223.79L638.82,233.54L648.96,254.54L669.24,277.17L679.38,298.39L709.8,327.9L719.94,335.82L730.08,349.37L740.22,355L750.36,359.05L760.5,366.12L780.78,371.77L790.92,374.39L801.06,376.52L811.2,379.89L841.62,383.42L851.76,383.92L902.46,384.84L912.6,384.86L1014,384.95" style="vector-effect: none; fill: none; stroke: rgb(92, 184, 92); stroke-opacity: 1; stroke-width: 2px; opacity: 1;"/></g><g class="points"/><g class="text"/></g><g class="trace scatter trace016e06" style="stroke-miterlimit: 2; opacity: 1;"><g class="fills"/><g class="errorbars"/><g class="lines"><path class="js-line" d="M0,384.96L121.68,384.53L131.82,384.15L162.24,383L172.38,382.08L182.52,379.59L192.66,378.02L202.8,375.92L212.94,370.8L223.08,367.78L233.22,363.1L253.5,353.08L263.64,341.29L273.78,334.83L283.92,327.4L294.06,309.66L304.2,299.35L324.48,282.21L334.62,271.07L344.76,246.9L354.9,233.88L365.04,220.35L375.18,194.77L385.32,182.73L395.46,167.93L405.6,142.47L415.74,131.81L436.02,115.26L446.16,108.52L456.3,95.01L466.44,88.24L476.58,86.41L486.72,81.14L496.86,77.69L507,80.62L517.14,83.55L527.28,84.67L537.42,87.36L547.56,88.93L557.7,92.75L567.84,100.86L577.98,105.15L588.12,114.52L608.4,133.02L618.54,154.18L628.68,166.21L638.82,181.84L648.96,213.63L659.1,229.79L669.24,244.38L679.38,272.97L689.52,286.97L699.66,299.3L709.8,311.63L719.94,322.33L730.08,340.43L740.22,347.84L750.36,353.03L760.5,361.97L780.78,368.81L790.92,371.89L801.06,374.5L811.2,378.62L841.62,382.85L851.76,383.44L912.6,384.79L922.74,384.88L1014,384.99" style="vector-effect: none; fill: none; stroke: rgb(92, 184, 92); stroke-opacity: 1; stroke-width: 2px; opacity: 1;"/></g><g class="points"/><g class="text"/></g><g class="trace scatter trace4e117e" style="stroke-miterlimit: 2; opacity: 1;"><g class="fills"/><g class="errorbars"/><g class="lines"><path class="js-line" d="M0,384.87L121.68,384.42L131.82,384.02L162.24,382.87L172.38,381.91L182.52,379.33L192.66,377.71L202.8,375.53L212.94,370.13L223.08,366.9L233.22,362.11L253.5,351.89L263.64,339.79L283.92,325.78L294.06,307.95L304.2,297.46L314.34,288.73L324.48,280L334.62,269.07L344.76,244.9L354.9,231.65L365.04,217.74L375.18,192.05L385.32,180.27L395.46,165.73L405.6,140.97L415.74,130.74L436.02,114.42L446.16,107.81L456.3,94.6L466.44,88L476.58,87.12L486.72,83.08L496.86,79.92L507,83.27L517.14,86.61L527.28,88.5L537.42,91.8L547.56,93.21L557.7,97.31L567.84,105.82L577.98,110.23L588.12,119.17L608.4,137.05L618.54,157.11L628.68,168.23L638.82,183.47L648.96,214.4L659.1,230.08L669.24,244.38L679.38,272.37L689.52,286.05L699.66,298.33L709.8,310.61L719.94,321.37L730.08,339.47L740.22,346.81L750.36,352.11L760.5,361.11L780.78,367.96L790.92,371.1L801.06,373.77L811.2,378L841.62,382.38L851.76,383L912.6,384.54L922.74,384.68L1014,384.95" style="vector-effect: none; fill: none; stroke: rgb(92, 184, 92); stroke-opacity: 1; stroke-width: 2px; opacity: 1;"/></g><g class="points"/><g class="text"/></g><g class="trace scatter trace7f5545" style="stroke-miterlimit: 2; opacity: 1;"><g class="fills"/><g class="errorbars"/><g class="lines"><path class="js-line" d="M0,384.97L131.82,384.4L141.96,384.24L172.38,382.72L182.52,380.74L202.8,377.76L212.94,373.61L223.08,371.19L233.22,367.57L253.5,359.92L263.64,351.09L283.92,341.07L294.06,329.06L304.2,322.29L314.34,317L324.48,311.72L334.62,305.15L344.76,290.96L354.9,283.35L365.04,275.12L375.18,260.47L385.32,254.05L395.46,246.39L405.6,233.23L415.74,227.74L436.02,218.89L446.16,215.45L456.3,209.25L466.44,206.49L476.58,206.11L486.72,204.26L496.86,202.79L507,204.88L527.28,208.48L537.42,212.51L557.7,217.92L567.84,224.96L577.98,229.1L588.12,235.14L608.4,247.14L618.54,260.03L628.68,266.97L638.82,275.65L648.96,293.33L659.1,302.33L669.24,310.64L679.38,326.42L689.52,333.88L699.66,340.38L709.8,346.88L719.94,352.37L730.08,361.87L740.22,365.87L750.36,368.54L760.5,373.16L790.92,378.26L801.06,379.54L811.2,381.61L821.34,382.41L861.9,384.31L872.04,384.52L993.72,384.99L1003.86,384.99L1014,385" style="vector-effect: none; fill: none; stroke: rgb(92, 184, 92); stroke-opacity: 1; stroke-width: 2px; opacity: 1;"/></g><g class="points"/><g class="text"/></g><g class="trace scatter trace520670" style="stroke-miterlimit: 2; opacity: 1;"><g class="fills"/><g class="errorbars"/><g class="lines"><path class="js-line" d="M0,384.92L121.68,384.57L131.82,384.25L162.24,383.25L172.38,382.5L192.66,379.17L202.8,377.28L212.94,372.95L223.08,370.51L253.5,358.99L263.64,350.26L283.92,340.24L294.06,328.2L304.2,321.45L314.34,316.12L324.48,310.8L334.62,304.16L344.76,290L354.9,282.48L365.04,274.29L375.18,259.54L395.46,245.71L405.6,233.07L415.74,227.69L425.88,223.7L446.16,216.11L456.3,210.08L466.44,207.66L476.58,207.32L496.86,204.69L507,207.13L527.28,211.26L537.42,215.42L557.7,220.79L567.84,227.35L577.98,231.01L588.12,236.66L608.4,248.21L618.54,260.9L628.68,267.68L638.82,276.04L648.96,293.35L659.1,302.29L669.24,310.16L679.38,325.56L689.52,333.1L699.66,339.55L709.8,346L719.94,351.5L730.08,361.08L740.22,365.16L750.36,367.77L760.5,372.43L780.78,376.04L790.92,377.61L801.06,378.93L811.2,381.09L851.76,383.75L861.9,383.98L932.88,384.82L943.02,384.84L1014,384.97" style="vector-effect: none; fill: none; stroke: rgb(92, 184, 92); stroke-opacity: 1; stroke-width: 2px; opacity: 1;"/></g><g class="points"/><g class="text"/></g><g class="trace scatter tracecaeb45" style="stroke-miterlimit: 2; opacity: 1;"><g class="fills"/><g class="errorbars"/><g class="lines"><path class="js-line" d="M0,384.94L121.68,384.52L131.82,384.15L162.24,383.05L172.38,382.15L182.52,379.74L192.66,378.22L202.8,376.22L212.94,371.18L223.08,368.14L233.22,363.72L243.36,359.29L253.5,353.92L263.64,342.03L273.78,335.51L283.92,327.86L294.06,310.32L304.2,300.42L314.34,291.59L324.48,282.75L334.62,270.75L344.76,245.56L354.9,232.36L365.04,217.9L375.18,190.77L385.32,178.09L395.46,163.26L405.6,138.17L415.74,127.91L436.02,110.3L446.16,107.79L456.3,99.63L466.44,93.97L476.58,93.12L486.72,89.65L496.86,87.02L507,90.86L517.14,94.7L527.28,96.2L537.42,99.95L547.56,102.2L557.7,107.02L567.84,116.8L577.98,121.75L588.12,129.84L598.26,137.94L608.4,147.88L618.54,169.44L628.68,181.05L638.82,195.79L648.96,225.91L659.1,241.29L669.24,254.87L679.38,281.25L689.52,294.04L709.8,317.18L719.94,326.81L730.08,343.2L740.22,349.97L750.36,354.81L760.5,363.14L790.92,373.19L801.06,375.57L811.2,379.47L821.34,380.98L851.76,383.74L861.9,384.03L912.6,384.83L922.74,384.9L1014,384.99" style="vector-effect: none; fill: none; stroke: rgb(92, 184, 92); stroke-opacity: 1; stroke-width: 2px; opacity: 1;"/></g><g class="points"/><g class="text"/></g><g class="trace scatter trace2ec316" style="stroke-miterlimit: 2; opacity: 1;"><g class="fills"/><g class="errorbars"/><g class="lines"><path class="js-line" d="M0,384.86L121.68,384.39L131.82,384L162.24,382.86L172.38,381.93L182.52,379.47L192.66,377.94L202.8,375.97L212.94,370.94L223.08,367.87L233.22,363.19L253.5,353.09L263.64,341.22L273.78,334.76L283.92,327.14L294.06,309.72L304.2,299.93L324.48,282.16L334.62,270.14L344.76,244.93L354.9,231.73L365.04,217.08L375.18,189.51L385.32,176.58L395.46,161.99L405.6,138.91L415.74,130.41L436.02,116.4L446.16,112.13L456.3,101.99L466.44,96.13L476.58,95.45L486.72,92.41L496.86,90.05L507,94.07L517.14,98.09L527.28,99.94L537.42,103.55L547.56,105.32L557.7,109.61L567.84,118.74L577.98,123.59L588.12,131.01L598.26,138.44L608.4,147.91L618.54,168.42L628.68,179.45L638.82,194.02L648.96,223.82L659.1,239.06L669.24,252.53L679.38,279.09L689.52,292.18L709.8,315.44L719.94,325.18L730.08,341.81L740.22,348.69L750.36,353.54L760.5,362.06L780.78,368.95L790.92,372.18L801.06,374.62L811.2,378.67L831.48,381.22L841.62,382.72L872.04,383.9L882.18,384.09L922.74,384.71L932.88,384.76L1014,384.95" style="vector-effect: none; fill: none; stroke: rgb(92, 184, 92); stroke-opacity: 1; stroke-width: 2px; opacity: 1;"/></g><g class="points"/><g class="text"/></g><g class="trace scatter tracec8a172" style="stroke-miterlimit: 2; opacity: 1;"><g class="fills"/><g class="errorbars"/><g class="lines"><path class="js-line" d="M0,384.96L121.68,384.45L131.82,383.97L162.24,382.5L172.38,381.32L182.52,378.24L192.66,376.33L202.8,373.53L212.94,366.77L223.08,362.8L233.22,356.8L253.5,344.03L263.64,329.17L273.78,321.09L283.92,311.55L294.06,290.09L304.2,278.16L324.48,256.1L334.62,241.44L344.76,211.1L354.9,195.42L365.04,178.42L375.18,146.7L385.32,131.98L395.46,115.22L405.6,87.64L415.74,76.8L436.02,56.87L446.16,51.3L456.3,38.46L466.44,31.19L476.58,28.66L486.72,22.69L496.86,19.25L507,22.69L517.14,26.14L527.28,28.05L537.42,32.1L547.56,34.23L557.7,37.76L567.84,46.88L577.98,52.48L588.12,61.52L608.4,80.53L618.54,103.95L628.68,117.41L638.82,135.47L648.96,173.47L659.1,193.42L669.24,211.14L679.38,245.39L689.52,261.94L699.66,276.77L709.8,291.6L719.94,304.49L730.08,326.68L740.22,335.99L750.36,342.57L760.5,354.03L780.78,363.08L790.92,367.26L801.06,370.61L811.2,376.16L821.34,378.35L831.48,379.74L841.62,381.98L851.76,382.83L902.46,384.62L912.6,384.71L993.72,384.98L1003.86,384.99L1014,384.99" style="vector-effect: none; fill: none; stroke: rgb(92, 184, 92); stroke-opacity: 1; stroke-width: 2px; opacity: 1;"/></g><g class="points"/><g class="text"/></g><g class="trace scatter trace700091" style="stroke-miterlimit: 2; opacity: 1;"><g class="fills"/><g class="errorbars"/><g class="lines"><path class="js-line" d="M0,384.9L121.68,384.34L131.82,383.84L162.24,382.31L172.38,381.08L182.52,377.84L192.66,375.82L202.8,372.93L212.94,365.94L223.08,361.83L233.22,355.74L243.36,349.64L253.5,342.54L263.64,327.27L273.78,319.1L283.92,309.61L294.06,288.01L314.34,264.91L324.48,253.93L334.62,239.54L344.76,209.18L365.04,176.61L375.18,145.46L385.32,130.9L395.46,114.83L405.6,87.84L415.74,76.94L436.02,57.73L446.16,52.2L456.3,39.45L466.44,32.21L476.58,30.52L486.72,25.27L496.86,21.72L507,24.86L517.14,28.01L527.28,29.87L537.42,34.48L547.56,37.22L557.7,41.04L567.84,50.73L577.98,56.6L588.12,65.74L608.4,84.52L618.54,107L628.68,119.83L638.82,137.54L648.96,174.58L659.1,193.9L669.24,211.23L679.38,244.84L699.66,275.99L709.8,290.87L719.94,303.31L730.08,325.14L740.22,334.53L750.36,341.17L760.5,352.68L770.64,357.53L790.92,366.08L801.06,369.49L811.2,375.18L821.34,377.47L831.48,378.94L841.62,381.3L872.04,383.29L882.18,383.58L912.6,384.4L922.74,384.59L1014,384.97" style="vector-effect: none; fill: none; stroke: rgb(92, 184, 92); stroke-opacity: 1; stroke-width: 2px; opacity: 1;"/></g><g class="points"/><g class="text"/></g><g class="trace scatter traced3ab7a" style="stroke-miterlimit: 2; opacity: 1;"><g class="fills"/><g class="errorbars"/><g class="lines"><path class="js-line" d="M0,384.97L121.68,384.61L131.82,384.26L162.24,383.2L172.38,382.37L182.52,380.02L192.66,378.49L202.8,376.74L212.94,372.49L223.08,369.99L233.22,366.08L253.5,357.97L263.64,348.72L283.92,337.77L294.06,324.03L304.2,316.17L314.34,310.02L324.48,303.88L334.62,295.43L344.76,277.5L354.9,268.01L365.04,257.84L375.18,239.34L385.32,231.03L395.46,221.12L405.6,203.3L415.74,195.39L446.16,177.46L456.3,168.09L466.44,164.14L476.58,163.08L486.72,159.85L496.86,157.67L517.14,161.92L527.28,162.29L547.56,165.52L557.7,168.87L567.84,175.62L577.98,179.02L608.4,198.13L618.54,213.4L628.68,222.06L638.82,233.2L648.96,256.28L659.1,268.2L669.24,278.78L679.38,299.66L689.52,309.97L699.66,319.12L709.8,328.26L719.94,336.15L730.08,349.39L740.22,354.74L750.36,358.61L760.5,365.33L790.92,373.27L801.06,375.3L811.2,378.59L821.34,379.85L851.76,383.09L861.9,383.47L912.6,384.73L922.74,384.84L1014,384.99" style="vector-effect: none; fill: none; stroke: rgb(92, 184, 92); stroke-opacity: 1; stroke-width: 2px; opacity: 1;"/></g><g class="points"/><g class="text"/></g><g class="trace scatter tracec4d97a" style="stroke-miterlimit: 2; opacity: 1;"><g class="fills"/><g class="errorbars"/><g class="lines"><path class="js-line" d="M0,384.93L121.68,384.55L131.82,384.21L162.24,383.13L172.38,382.28L182.52,379.89L192.66,378.36L202.8,376.45L212.94,371.98L223.08,369.43L233.22,365.51L253.5,357.28L263.64,347.92L273.78,342.87L283.92,336.81L294.06,322.63L304.2,314.51L324.48,302.32L334.62,293.88L344.76,275.81L354.9,266.19L365.04,256.05L375.18,237.65L385.32,229.39L395.46,219.79L405.6,202.18L415.74,194.17L446.16,177.65L456.3,168.55L466.44,164.83L476.58,164.24L496.86,160.57L507,162.57L517.14,164.57L527.28,165.65L537.42,167.96L547.56,169.18L557.7,172.27L567.84,178.9L577.98,182.44L588.12,188.46L608.4,200.61L618.54,214.93L628.68,223.14L638.82,234.1L648.96,256.4L659.1,267.74L669.24,278.23L679.38,298.82L699.66,318.17L709.8,327.41L719.94,335.11L730.08,348.3L740.22,353.78L750.36,357.67L760.5,364.47L770.64,367.38L801.06,374.46L811.2,377.89L841.62,381.92L851.76,382.59L902.46,384.36L912.6,384.46L983.58,384.91L993.72,384.92L1014,384.96" style="vector-effect: none; fill: none; stroke: rgb(92, 184, 92); stroke-opacity: 1; stroke-width: 2px; opacity: 1;"/></g><g class="points"/><g class="text"/></g><g class="trace scatter trace54241b" style="stroke-miterlimit: 2; opacity: 1;"><g class="fills"/><g class="errorbars"/><g class="lines"><path class="js-line" d="M0,384.95L121.68,384.55L131.82,384.17L162.24,382.89L172.38,381.97L182.52,379.39L192.66,377.73L202.8,375.62L212.94,370.62L223.08,367.75L233.22,363.5L253.5,354.35L263.64,343.81L273.78,338.18L283.92,331.44L294.06,316.24L304.2,307.79L324.48,293.69L334.62,284.18L344.76,264.27L354.9,253.88L365.04,243L375.18,222.97L385.32,213.81L395.46,203.1L405.6,183.62L415.74,174.86L436.02,161.26L446.16,155.48L456.3,145.33L466.44,140.97L476.58,139.49L486.72,135.7L496.86,133.38L507,134.96L527.28,137.69L537.42,141.14L547.56,143.44L557.7,146.94L567.84,154.97L577.98,159.5L608.4,181.4L618.54,197.64L628.68,207.03L638.82,219.3L648.96,244.4L659.1,257.24L669.24,269.05L679.38,292.1L689.52,303.34L699.66,313.26L709.8,323.17L719.94,331.65L730.08,346.15L740.22,352.17L750.36,356.45L760.5,363.95L780.78,369.92L790.92,372.69L801.06,374.9L811.2,378.54L841.62,382.68L851.76,383.3L902.46,384.72L912.6,384.77L1014,384.99" style="vector-effect: none; fill: none; stroke: rgb(92, 184, 92); stroke-opacity: 1; stroke-width: 2px; opacity: 1;"/></g><g class="points"/><g class="text"/></g><g class="trace scatter tracec245b7" style="stroke-miterlimit: 2; opacity: 1;"><g class="fills"/><g class="errorbars"/><g class="lines"><path class="js-line" d="M0,384.91L121.68,384.47L131.82,384.06L162.24,382.79L172.38,381.79L182.52,379.06L192.66,377.33L202.8,375.21L212.94,370.15L223.08,367.21L233.22,362.77L253.5,353.32L263.64,342.53L273.78,336.74L283.92,329.92L294.06,314.54L304.2,305.98L324.48,291.53L334.62,282.21L344.76,262.5L354.9,252.1L365.04,241.17L375.18,220.96L395.46,201.6L405.6,183.14L415.74,174.78L425.88,167.97L436.02,161.16L446.16,155.66L456.3,146.2L466.44,142.24L476.58,141.26L486.72,138.1L496.86,135.93L507,138.32L517.14,140.71L527.28,141.96L537.42,145.28L547.56,147.36L557.7,150.95L567.84,158.54L577.98,162.55L588.12,170.14L598.26,177.73L608.4,184.38L618.54,199.63L628.68,208.23L638.82,220.02L648.96,244.38L669.24,268.59L679.38,291.14L699.66,311.93L709.8,321.81L719.94,330.31L730.08,344.96L740.22,351.11L750.36,355.37L760.5,362.92L770.64,366.21L801.06,374.12L811.2,377.82L841.62,382.09L851.76,382.79L902.46,384.39L912.6,384.49L983.58,384.89L993.72,384.92L1014,384.95" style="vector-effect: none; fill: none; stroke: rgb(92, 184, 92); stroke-opacity: 1; stroke-width: 2px; opacity: 1;"/></g><g class="points"/><g class="text"/></g></g></g></g><g class="zerolinelayer-above"/><path class="xlines-above crisp" d="M0,0" style="fill: none;"/><path class="ylines-above crisp" d="M0,0" style="fill: none;"/><g class="overlines-above"/><g class="xaxislayer-above"><g class="xtick"><text text-anchor="middle" x="0" y="451" transform="translate(60,0)" style="font-family: system-ui, -apple-system, 'Segoe UI', Roboto, 'Helvetica Neue', 'Noto Sans', 'Liberation Sans', Arial, sans-serif, 'Apple Color Emoji', 'Segoe UI Emoji', 'Segoe UI Symbol', 'Noto Color Emoji'; font-size: 10px; fill: rgb(80, 80, 80); fill-opacity: 1; white-space: pre;">0%</text></g><g class="xtick"><text text-anchor="middle" x="0" y="451" style="font-family: system-ui, -apple-system, 'Segoe UI', Roboto, 'Helvetica Neue', 'Noto Sans', 'Liberation Sans', Arial, sans-serif, 'Apple Color Emoji', 'Segoe UI Emoji', 'Segoe UI Symbol', 'Noto Color Emoji'; font-size: 10px; fill: rgb(80, 80, 80); fill-opacity: 1; white-space: pre;" transform="translate(262.8,0)">20%</text></g><g class="xtick"><text text-anchor="middle" x="0" y="451" style="font-family: system-ui, -apple-system, 'Segoe UI', Roboto, 'Helvetica Neue', 'Noto Sans', 'Liberation Sans', Arial, sans-serif, 'Apple Color Emoji', 'Segoe UI Emoji', 'Segoe UI Symbol', 'Noto Color Emoji'; font-size: 10px; fill: rgb(80, 80, 80); fill-opacity: 1; white-space: pre;" transform="translate(465.6,0)">40%</text></g><g class="xtick"><text text-anchor="middle" x="0" y="451" style="font-family: system-ui, -apple-system, 'Segoe UI', Roboto, 'Helvetica Neue', 'Noto Sans', 'Liberation Sans', Arial, sans-serif, 'Apple Color Emoji', 'Segoe UI Emoji', 'Segoe UI Symbol', 'Noto Color Emoji'; font-size: 10px; fill: rgb(80, 80, 80); fill-opacity: 1; white-space: pre;" transform="translate(668.4,0)">60%</text></g><g class="xtick"><text text-anchor="middle" x="0" y="451" style="font-family: system-ui, -apple-system, 'Segoe UI', Roboto, 'Helvetica Neue', 'Noto Sans', 'Liberation Sans', Arial, sans-serif, 'Apple Color Emoji', 'Segoe UI Emoji', 'Segoe UI Symbol', 'Noto Color Emoji'; font-size: 10px; fill: rgb(80, 80, 80); fill-opacity: 1; white-space: pre;" transform="translate(871.2,0)">80%</text></g><g class="xtick"><text text-anchor="middle" x="0" y="451" style="font-family: system-ui, -apple-system, 'Segoe UI', Roboto, 'Helvetica Neue', 'Noto Sans', 'Liberation Sans', Arial, sans-serif, 'Apple Color Emoji', 'Segoe UI Emoji', 'Segoe UI Symbol', 'Noto Color Emoji'; font-size: 10px; fill: rgb(80, 80, 80); fill-opacity: 1; white-space: pre;" transform="translate(1074,0)">100%</text></g></g><g class="yaxislayer-above"><g class="ytick"><text text-anchor="end" x="54" y="3.5" transform="translate(0,435)" style="font-family: system-ui, -apple-system, 'Segoe UI', Roboto, 'Helvetica Neue', 'Noto Sans', 'Liberation Sans', Arial, sans-serif, 'Apple Color Emoji', 'Segoe UI Emoji', 'Segoe UI Symbol', 'Noto Color Emoji'; font-size: 10px; fill: rgb(80, 80, 80); fill-opacity: 1; white-space: pre;">0</text></g><g class="ytick"><text text-anchor="end" x="54" y="3.5" style="font-family: system-ui, -apple-system, 'Segoe UI', Roboto, 'Helvetica Neue', 'Noto Sans', 'Liberation Sans', Arial, sans-serif, 'Apple Color Emoji', 'Segoe UI Emoji', 'Segoe UI Symbol', 'Noto Color Emoji'; font-size: 10px; fill: rgb(80, 80, 80); fill-opacity: 1; white-space: pre;" transform="translate(0,392.31)">0.2M</text></g><g class="ytick"><text text-anchor="end" x="54" y="3.5" style="font-family: system-ui, -apple-system, 'Segoe UI', Roboto, 'Helvetica Neue', 'Noto Sans', 'Liberation Sans', Arial, sans-serif, 'Apple Color Emoji', 'Segoe UI Emoji', 'Segoe UI Symbol', 'Noto Color Emoji'; font-size: 10px; fill: rgb(80, 80, 80); fill-opacity: 1; white-space: pre;" transform="translate(0,349.62)">0.4M</text></g><g class="ytick"><text text-anchor="end" x="54" y="3.5" style="font-family: system-ui, -apple-system, 'Segoe UI', Roboto, 'Helvetica Neue', 'Noto Sans', 'Liberation Sans', Arial, sans-serif, 'Apple Color Emoji', 'Segoe UI Emoji', 'Segoe UI Symbol', 'Noto Color Emoji'; font-size: 10px; fill: rgb(80, 80, 80); fill-opacity: 1; white-space: pre;" transform="translate(0,306.93)">0.6M</text></g><g class="ytick"><text text-anchor="end" x="54" y="3.5" style="font-family: system-ui, -apple-system, 'Segoe UI', Roboto, 'Helvetica Neue', 'Noto Sans', 'Liberation Sans', Arial, sans-serif, 'Apple Color Emoji', 'Segoe UI Emoji', 'Segoe UI Symbol', 'Noto Color Emoji'; font-size: 10px; fill: rgb(80, 80, 80); fill-opacity: 1; white-space: pre;" transform="translate(0,264.24)">0.8M</text></g><g class="ytick"><text text-anchor="end" x="54" y="3.5" style="font-family: system-ui, -apple-system, 'Segoe UI', Roboto, 'Helvetica Neue', 'Noto Sans', 'Liberation Sans', Arial, sans-serif, 'Apple Color Emoji', 'Segoe UI Emoji', 'Segoe UI Symbol', 'Noto Color Emoji'; font-size: 10px; fill: rgb(80, 80, 80); fill-opacity: 1; white-space: pre;" transform="translate(0,221.55)">1M</text></g><g class="ytick"><text text-anchor="end" x="54" y="3.5" style="font-family: system-ui, -apple-system, 'Segoe UI', Roboto, 'Helvetica Neue', 'Noto Sans', 'Liberation Sans', Arial, sans-serif, 'Apple Color Emoji', 'Segoe UI Emoji', 'Segoe UI Symbol', 'Noto Color Emoji'; font-size: 10px; fill: rgb(80, 80, 80); fill-opacity: 1; white-space: pre;" transform="translate(0,178.86)">1.2M</text></g><g class="ytick"><text text-anchor="end" x="54" y="3.5" style="font-family: system-ui, -apple-system, 'Segoe UI', Roboto, 'Helvetica Neue', 'Noto Sans', 'Liberation Sans', Arial, sans-serif, 'Apple Color Emoji', 'Segoe UI Emoji', 'Segoe UI Symbol', 'Noto Color Emoji'; font-size: 10px; fill: rgb(80, 80, 80); fill-opacity: 1; white-space: pre;" transform="translate(0,136.17000000000002)">1.4M</text></g><g class="ytick"><text text-anchor="end" x="54" y="3.5" style="font-family: system-ui, -apple-system, 'Segoe UI', Roboto, 'Helvetica Neue', 'Noto Sans', 'Liberation Sans', Arial, sans-serif, 'Apple Color Emoji', 'Segoe UI Emoji', 'Segoe UI Symbol', 'Noto Color Emoji'; font-size: 10px; fill: rgb(80, 80, 80); fill-opacity: 1; white-space: pre;" transform="translate(0,93.47999999999999)">1.6M</text></g><g class="ytick"><text text-anchor="end" x="54" y="3.5" style="font-family: system-ui, -apple-system, 'Segoe UI', Roboto, 'Helvetica Neue', 'Noto Sans', 'Liberation Sans', Arial, sans-serif, 'Apple Color Emoji', 'Segoe UI Emoji', 'Segoe UI Symbol', 'Noto Color Emoji'; font-size: 10px; fill: rgb(80, 80, 80); fill-opacity: 1; white-space: pre;" transform="translate(0,50.79)">1.8M</text></g></g><g class="overaxes-above"/></g></g><g class="polarlayer"/><g class="smithlayer"/><g class="ternarylayer"/><g class="geolayer"/><g class="funnelarealayer"/><g class="pielayer"/><g class="iciclelayer"/><g class="treemaplayer"/><g class="sunburstlayer"/><g class="glimages"/><defs id="topdefs-bc1b67"><g class="clips"/></defs><g class="layer-above"><g class="imagelayer"/><g class="shapelayer"/></g><g class="infolayer"><g class="g-gtitle"><text class="gtitle" x="550" y="25" text-anchor="middle" dy="0em" style="opacity: 1; font-family: system-ui, -apple-system, 'Segoe UI', Roboto, 'Helvetica Neue', 'Noto Sans', 'Liberation Sans', Arial, sans-serif, 'Apple Color Emoji', 'Segoe UI Emoji', 'Segoe UI Symbol', 'Noto Color Emoji'; font-size: 20px; fill: rgb(60, 60, 60); fill-opacity: 1; white-space: pre;"><tspan class="line" dy="0em" x="550" y="25">FastQC: Per Sequence GC Content</tspan><tspan class="line" dy="1.3em" x="550" y="25">​<tspan style="font-size:70%" dy="-0.6em">Counts, 16 lines</tspan><tspan dy="0.42em">​</tspan></tspan></text></g><g class="g-xtitle"><text class="xtitle" x="567" y="487" text-anchor="middle" style="opacity: 1; font-family: system-ui, -apple-system, 'Segoe UI', Roboto, 'Helvetica Neue', 'Noto Sans', 'Liberation Sans', Arial, sans-serif, 'Apple Color Emoji', 'Segoe UI Emoji', 'Segoe UI Symbol', 'Noto Color Emoji'; font-size: 14px; fill: rgb(100, 100, 100); fill-opacity: 1; white-space: pre;">% GC</text></g><g class="g-ytitle"><text class="ytitle" transform="rotate(-90,22,242.5)" x="22" y="242.5" text-anchor="middle" style="opacity: 1; font-family: system-ui, -apple-system, 'Segoe UI', Roboto, 'Helvetica Neue', 'Noto Sans', 'Liberation Sans', Arial, sans-serif, 'Apple Color Emoji', 'Segoe UI Emoji', 'Segoe UI Symbol', 'Noto Color Emoji'; font-size: 14px; fill: rgb(100, 100, 100); fill-opacity: 1; white-space: pre;">Count</text></g></g></svg>