<svg class="main-svg" xmlns="http://www.w3.org/2000/svg" xmlns:xlink="http://www.w3.org/1999/xlink" width="2200" height="546" style="" viewBox="0 0 1100 273"><rect x="0" y="0" width="1100" height="273" style="fill: rgb(255, 255, 255); fill-opacity: 1;"/><defs id="defs-14e02a"><g class="clips"><clipPath id="clip14e02axyplot" class="plotclip"><rect width="1005" height="42.230769230769226"/></clipPath><clipPath id="clip14e02ax2y2plot" class="plotclip"><rect width="1005" height="42.230769230769226"/></clipPath><clipPath id="clip14e02ax3y3plot" class="plotclip"><rect width="1005" height="42.230769230769226"/></clipPath><clipPath class="axesclip" id="clip14e02ax"><rect x="80" y="0" width="1005" height="273"/></clipPath><clipPath class="axesclip" id="clip14e02ay"><rect x="0" y="50.00000000000002" width="1100" height="42.230769230769226"/></clipPath><clipPath class="axesclip" id="clip14e02axy"><rect x="80" y="50.00000000000002" width="1005" height="42.230769230769226"/></clipPath><clipPath class="axesclip" id="clip14e02ay2"><rect x="0" y="120.3846153846154" width="1100" height="42.230769230769226"/></clipPath><clipPath class="axesclip" id="clip14e02axy2"><rect x="80" y="120.3846153846154" width="1005" height="42.230769230769226"/></clipPath><clipPath class="axesclip" id="clip14e02ay3"><rect x="0" y="190.76923076923077" width="1100" height="42.230769230769226"/></clipPath><clipPath class="axesclip" id="clip14e02axy3"><rect x="80" y="190.76923076923077" width="1005" height="42.230769230769226"/></clipPath><clipPath class="axesclip" id="clip14e02ax2"><rect x="80" y="0" width="1005" height="273"/></clipPath><clipPath class="axesclip" id="clip14e02ax2y"><rect x="80" y="50.00000000000002" width="1005" height="42.230769230769226"/></clipPath><clipPath class="axesclip" id="clip14e02ax2y2"><rect x="80" y="120.3846153846154" width="1005" height="42.230769230769226"/></clipPath><clipPath class="axesclip" id="clip14e02ax2y3"><rect x="80" y="190.76923076923077" width="1005" height="42.230769230769226"/></clipPath><clipPath class="axesclip" id="clip14e02ax3"><rect x="80" y="0" width="1005" height="273"/></clipPath><clipPath class="axesclip" id="clip14e02ax3y"><rect x="80" y="50.00000000000002" width="1005" height="42.230769230769226"/></clipPath><clipPath class="axesclip" id="clip14e02ax3y2"><rect x="80" y="120.3846153846154" width="1005" height="42.230769230769226"/></clipPath><clipPath class="axesclip" id="clip14e02ax3y3"><rect x="80" y="190.76923076923077" width="1005" height="42.230769230769226"/></clipPath></g><g class="gradients"/><g class="patterns"/></defs><g class="bglayer"/><g class="layer-below"><g class="imagelayer"/><g class="shapelayer"/></g><g class="cartesianlayer"><g class="subplot xy"><g class="layer-subplot"><g class="shapelayer"/><g class="imagelayer"/></g><g class="minor-gridlayer"><g class="x"/><g class="y"/></g><g class="gridlayer"><g class="x"><path class="xgrid crisp" transform="translate(333.73,0)" d="M0,50.00000000000002v42.230769230769226" style="stroke: rgb(0, 0, 0); stroke-opacity: 0.1; stroke-width: 1px;"/><path class="xgrid crisp" transform="translate(582.49,0)" d="M0,50.00000000000002v42.230769230769226" style="stroke: rgb(0, 0, 0); stroke-opacity: 0.1; stroke-width: 1px;"/><path class="xgrid crisp" transform="translate(831.24,0)" d="M0,50.00000000000002v42.230769230769226" style="stroke: rgb(0, 0, 0); stroke-opacity: 0.1; stroke-width: 1px;"/><path class="xgrid crisp" transform="translate(1080,0)" d="M0,50.00000000000002v42.230769230769226" style="stroke: rgb(0, 0, 0); stroke-opacity: 0.1; stroke-width: 1px;"/></g><g class="y"/></g><g class="zerolinelayer"><path class="xzl zl crisp" transform="translate(84.98,0)" d="M0,50.00000000000002v42.230769230769226" style="stroke: rgb(0, 0, 0); stroke-opacity: 0.1; stroke-width: 1px;"/><path class="yzl zl crisp" transform="translate(0,71.12000000000002)" d="M80,0h1005" style="stroke: rgb(0, 0, 0); stroke-opacity: 0.1; stroke-width: 1px;"/></g><g class="layer-between"><g class="shapelayer"/><g class="imagelayer"/></g><path class="xlines-below"/><path class="ylines-below"/><g class="overlines-below"/><g class="xaxislayer-below"/><g class="yaxislayer-below"/><g class="overaxes-below"/><g class="overplot"><g class="xy" transform="translate(80,50.00000000000002)" clip-path="url(#clip14e02axyplot)"><g class="violinlayer mlayer"><g class="trace violins" style="opacity: 1;"><path class="violin" d="M206.5,19.11Q238.08,18.14 253.87,17.5C269.66,16.85 285.45,16.07 301.24,15.24C317.03,14.4 332.82,13.42 348.61,12.49C364.4,11.56 380.18,10.52 395.97,9.68C411.76,8.84 427.55,7.99 443.34,7.43C459.13,6.87 474.92,6.45 490.71,6.33C506.5,6.21 522.29,6.35 538.08,6.69C553.87,7.03 569.66,7.67 585.45,8.36C601.24,9.05 617.03,10 632.82,10.84C648.61,11.69 664.4,12.64 680.19,13.43C695.98,14.21 711.77,14.98 727.56,15.55C743.35,16.12 759.14,16.55 774.93,16.84C790.72,17.13 806.51,17.24 822.3,17.28C838.09,17.32 853.88,17.19 869.67,17.08C885.46,16.97 901.25,16.75 917.04,16.6C932.83,16.45 948.62,16.27 964.41,16.2C980.2,16.13 995.98,16.09 1011.77,16.15C1027.56,16.21 1043.35,16.35 1059.14,16.54C1074.93,16.73 1090.72,17.02 1106.51,17.3C1122.3,17.58 1138.09,17.93 1153.88,18.24C1169.67,18.55 1185.46,18.88 1201.25,19.16C1217.04,19.44 1232.83,19.69 1248.62,19.91Q1264.41,20.12 1295.99,20.45L1295.99,21.78Q1264.41,22.11 1248.62,22.32C1232.83,22.54 1217.04,22.79 1201.25,23.07C1185.46,23.35 1169.67,23.68 1153.88,23.99C1138.09,24.3 1122.3,24.65 1106.51,24.93C1090.72,25.21 1074.93,25.5 1059.14,25.69C1043.35,25.88 1027.56,26.02 1011.77,26.08C995.98,26.14 980.2,26.1 964.41,26.03C948.62,25.96 932.83,25.78 917.04,25.63C901.25,25.48 885.46,25.26 869.67,25.15C853.88,25.04 838.09,24.91 822.3,24.95C806.51,24.99 790.72,25.1 774.93,25.39C759.14,25.68 743.35,26.11 727.56,26.68C711.77,27.25 695.98,28.01 680.19,28.8C664.4,29.59 648.61,30.55 632.82,31.4C617.03,32.24 601.24,33.18 585.45,33.87C569.66,34.56 553.87,35.21 538.08,35.55C522.29,35.89 506.5,36.02 490.71,35.9C474.92,35.78 459.13,35.36 443.34,34.8C427.55,34.24 411.76,33.39 395.97,32.55C380.18,31.71 364.4,30.67 348.61,29.74C332.82,28.81 317.03,27.83 301.24,26.99C285.45,26.16 269.66,25.38 253.87,24.73Q238.08,24.09 206.5,23.12Z" style="vector-effect: none; stroke-width: 0px; stroke: rgb(124, 181, 236); stroke-opacity: 1; fill: rgb(153, 153, 153); fill-opacity: 1;"/><path class="box" d="M503.49,24.81V17.42M502.49,24.81V17.42H751.24V24.81ZM502.49,21.12H502.49M751.24,21.12H1000" style="vector-effect: non-scaling-stroke; stroke-width: 0px; stroke: rgb(124, 181, 236); stroke-opacity: 1; fill: rgb(153, 153, 153); fill-opacity: 1;"/><path class="mean" d="M626.87,24.81V17.42" style="fill: none; vector-effect: non-scaling-stroke; stroke-width: 0px; stroke-dasharray: 0px, 0px; stroke: rgb(124, 181, 236); stroke-opacity: 1;"/></g></g><g class="scatterlayer mlayer"><g class="trace scatter trace300f02" style="stroke-miterlimit: 2; opacity: 1;"><g class="fills"/><g class="errorbars"/><g class="lines"/><g class="points"><path class="point" transform="translate(502.49,21.12)" d="M2,0A2,2 0 1,1 0,-2A2,2 0 0,1 2,0Z" style="opacity: 1; stroke-width: 0px; fill: rgb(11, 121, 230); fill-opacity: 1;"/></g><g class="text"/></g><g class="trace scatter trace281901" style="stroke-miterlimit: 2; opacity: 1;"><g class="fills"/><g class="errorbars"/><g class="lines"/><g class="points"><path class="point" transform="translate(1000,21.12)" d="M2,0A2,2 0 1,1 0,-2A2,2 0 0,1 2,0Z" style="opacity: 1; stroke-width: 0px; fill: rgb(11, 121, 230); fill-opacity: 1;"/></g><g class="text"/></g><g class="trace scatter tracebbee0e" style="stroke-miterlimit: 2; opacity: 1;"><g class="fills"/><g class="errorbars"/><g class="lines"/><g class="points"><path class="point" transform="translate(502.49,21.12)" d="M2,0A2,2 0 1,1 0,-2A2,2 0 0,1 2,0Z" style="opacity: 1; stroke-width: 0px; fill: rgb(11, 121, 230); fill-opacity: 1;"/></g><g class="text"/></g><g class="trace scatter traced76efd" style="stroke-miterlimit: 2; opacity: 1;"><g class="fills"/><g class="errorbars"/><g class="lines"/><g class="points"><path class="point" transform="translate(502.49,21.12)" d="M2,0A2,2 0 1,1 0,-2A2,2 0 0,1 2,0Z" style="opacity: 1; stroke-width: 0px; fill: rgb(11, 121, 230); fill-opacity: 1;"/></g><g class="text"/></g></g></g></g><g class="zerolinelayer-above"/><path class="xlines-above crisp" d="M0,0" style="fill: none;"/><path class="ylines-above crisp" d="M0,0" style="fill: none;"/><g class="overlines-above"/><g class="xaxislayer-above"><g class="xtick"><text text-anchor="middle" x="0" y="102.23076923076925" transform="translate(84.98,0)" style="font-family: system-ui, -apple-system, 'Segoe UI', Roboto, 'Helvetica Neue', 'Noto Sans', 'Liberation Sans', Arial, sans-serif, 'Apple Color Emoji', 'Segoe UI Emoji', 'Segoe UI Symbol', 'Noto Color Emoji'; font-size: 9px; fill: rgb(0, 0, 0); fill-opacity: 0.5; white-space: pre;">0</text></g><g class="xtick"><text text-anchor="middle" x="0" y="102.23076923076925" style="font-family: system-ui, -apple-system, 'Segoe UI', Roboto, 'Helvetica Neue', 'Noto Sans', 'Liberation Sans', Arial, sans-serif, 'Apple Color Emoji', 'Segoe UI Emoji', 'Segoe UI Symbol', 'Noto Color Emoji'; font-size: 9px; fill: rgb(0, 0, 0); fill-opacity: 0.5; white-space: pre;" transform="translate(333.73,0)">0.5</text></g><g class="xtick"><text text-anchor="middle" x="0" y="102.23076923076925" style="font-family: system-ui, -apple-system, 'Segoe UI', Roboto, 'Helvetica Neue', 'Noto Sans', 'Liberation Sans', Arial, sans-serif, 'Apple Color Emoji', 'Segoe UI Emoji', 'Segoe UI Symbol', 'Noto Color Emoji'; font-size: 9px; fill: rgb(0, 0, 0); fill-opacity: 0.5; white-space: pre;" transform="translate(582.49,0)">1</text></g><g class="xtick"><text text-anchor="middle" x="0" y="102.23076923076925" style="font-family: system-ui, -apple-system, 'Segoe UI', Roboto, 'Helvetica Neue', 'Noto Sans', 'Liberation Sans', Arial, sans-serif, 'Apple Color Emoji', 'Segoe UI Emoji', 'Segoe UI Symbol', 'Noto Color Emoji'; font-size: 9px; fill: rgb(0, 0, 0); fill-opacity: 0.5; white-space: pre;" transform="translate(831.24,0)">1.5</text></g><g class="xtick"><text text-anchor="middle" x="0" y="102.23076923076925" style="font-family: system-ui, -apple-system, 'Segoe UI', Roboto, 'Helvetica Neue', 'Noto Sans', 'Liberation Sans', Arial, sans-serif, 'Apple Color Emoji', 'Segoe UI Emoji', 'Segoe UI Symbol', 'Noto Color Emoji'; font-size: 9px; fill: rgb(0, 0, 0); fill-opacity: 0.5; white-space: pre;" transform="translate(1080,0)">2</text></g></g><g class="yaxislayer-above"><g class="ytick"><text text-anchor="end" x="79" y="3.15" transform="translate(0,71.12000000000002)" style="font-family: system-ui, -apple-system, 'Segoe UI', Roboto, 'Helvetica Neue', 'Noto Sans', 'Liberation Sans', Arial, sans-serif, 'Apple Color Emoji', 'Segoe UI Emoji', 'Segoe UI Symbol', 'Noto Color Emoji'; font-size: 9px; fill: rgb(0, 0, 0); fill-opacity: 0.5; white-space: pre;">Reports  </text></g></g><g class="overaxes-above"/></g><g class="subplot x2y2"><g class="layer-subplot"><g class="shapelayer"/><g class="imagelayer"/></g><g class="minor-gridlayer"><g class="x2"/><g class="y2"/></g><g class="gridlayer"><g class="x2"><path class="x2grid crisp" transform="translate(250.98,0)" d="M0,120.3846153846154v42.230769230769226" style="stroke: rgb(0, 0, 0); stroke-opacity: 0.1; stroke-width: 1px;"/><path class="x2grid crisp" transform="translate(416.98,0)" d="M0,120.3846153846154v42.230769230769226" style="stroke: rgb(0, 0, 0); stroke-opacity: 0.1; stroke-width: 1px;"/><path class="x2grid crisp" transform="translate(582.99,0)" d="M0,120.3846153846154v42.230769230769226" style="stroke: rgb(0, 0, 0); stroke-opacity: 0.1; stroke-width: 1px;"/><path class="x2grid crisp" transform="translate(748.99,0)" d="M0,120.3846153846154v42.230769230769226" style="stroke: rgb(0, 0, 0); stroke-opacity: 0.1; stroke-width: 1px;"/><path class="x2grid crisp" transform="translate(914.99,0)" d="M0,120.3846153846154v42.230769230769226" style="stroke: rgb(0, 0, 0); stroke-opacity: 0.1; stroke-width: 1px;"/><path class="x2grid crisp" transform="translate(1081,0)" d="M0,120.3846153846154v42.230769230769226" style="stroke: rgb(0, 0, 0); stroke-opacity: 0.1; stroke-width: 1px;"/></g><g class="y2"><path class="y2grid crisp" transform="translate(0,141.5046153846154)" d="M80,0h1005" style="stroke: rgb(0, 0, 0); stroke-opacity: 0.1; stroke-width: 1px;"/></g></g><g class="zerolinelayer"><path class="x2zl zl crisp" transform="translate(84.98,0)" d="M0,120.3846153846154v42.230769230769226" style="stroke: rgb(0, 0, 0); stroke-opacity: 0.1; stroke-width: 1px;"/></g><g class="layer-between"><g class="shapelayer"/><g class="imagelayer"/></g><path class="xlines-below"/><path class="ylines-below"/><g class="overlines-below"/><g class="xaxislayer-below"/><g class="yaxislayer-below"/><g class="overaxes-below"/><g class="overplot"><g class="x2y2" transform="translate(80,120.3846153846154)" clip-path="url(#clip14e02ax2y2plot)"><g class="violinlayer mlayer"><g class="trace violins" style="opacity: 1;"><path class="violin" d="M-373.68,20.26Q-312.08,19.82 -281.28,19.51C-250.48,19.2 -219.69,18.82 -188.89,18.38C-158.09,17.94 -127.29,17.43 -96.49,16.88C-65.69,16.33 -34.9,15.7 -4.1,15.08C26.7,14.46 57.5,13.79 88.3,13.16C119.1,12.54 149.89,11.9 180.69,11.33C211.49,10.76 242.29,10.22 273.09,9.75C303.89,9.28 334.69,8.86 365.49,8.49C396.29,8.12 427.08,7.8 457.88,7.53C488.68,7.25 519.48,7.03 550.28,6.84C581.08,6.65 611.87,6.5 642.67,6.41C673.47,6.32 704.27,6.27 735.07,6.33C765.87,6.39 796.66,6.51 827.46,6.75C858.26,6.99 889.06,7.34 919.86,7.79C950.66,8.24 981.45,8.82 1012.25,9.46C1043.05,10.1 1073.85,10.86 1104.65,11.61C1135.45,12.36 1166.25,13.19 1197.05,13.94C1227.85,14.69 1258.64,15.46 1289.44,16.13C1320.24,16.8 1351.04,17.42 1381.84,17.95C1412.64,18.48 1443.43,18.92 1474.23,19.29Q1505.03,19.66 1566.63,20.15L1566.63,22.08Q1505.03,22.57 1474.23,22.94C1443.43,23.31 1412.64,23.75 1381.84,24.28C1351.04,24.81 1320.24,25.43 1289.44,26.1C1258.64,26.77 1227.85,27.54 1197.05,28.29C1166.25,29.05 1135.45,29.88 1104.65,30.63C1073.85,31.38 1043.05,32.13 1012.25,32.77C981.45,33.4 950.66,33.99 919.86,34.44C889.06,34.89 858.26,35.24 827.46,35.48C796.66,35.72 765.87,35.84 735.07,35.9C704.27,35.96 673.47,35.91 642.67,35.82C611.87,35.73 581.08,35.58 550.28,35.39C519.48,35.2 488.68,34.98 457.88,34.7C427.08,34.43 396.29,34.11 365.49,33.74C334.69,33.37 303.89,32.95 273.09,32.48C242.29,32.01 211.49,31.47 180.69,30.9C149.89,30.33 119.1,29.69 88.3,29.07C57.5,28.44 26.7,27.77 -4.1,27.15C-34.9,26.53 -65.69,25.91 -96.49,25.36C-127.29,24.81 -158.09,24.29 -188.89,23.85C-219.69,23.41 -250.48,23.03 -281.28,22.72Q-312.08,22.41 -373.68,21.98Z" style="vector-effect: none; stroke-width: 0px; stroke: rgb(241, 92, 128); stroke-opacity: 1; fill: rgb(153, 153, 153); fill-opacity: 1;"/><path class="box" d="M647.73,24.81V17.42M344.88,24.81V17.42H899.32V24.81ZM344.88,21.12H192.95M899.32,21.12H1000" style="vector-effect: non-scaling-stroke; stroke-width: 0px; stroke: rgb(241, 92, 128); stroke-opacity: 1; fill: rgb(153, 153, 153); fill-opacity: 1;"/><path class="mean" d="M622.1,24.81V17.42" style="fill: none; vector-effect: non-scaling-stroke; stroke-width: 0px; stroke-dasharray: 0px, 0px; stroke: rgb(241, 92, 128); stroke-opacity: 1;"/></g></g><g class="scatterlayer mlayer"><g class="trace scatter trace57aa74" style="stroke-miterlimit: 2; opacity: 1;"><g class="fills"/><g class="errorbars"/><g class="lines"/><g class="points"><path class="point" transform="translate(1000,21.12)" d="M2,0A2,2 0 1,1 0,-2A2,2 0 0,1 2,0Z" style="opacity: 1; stroke-width: 0px; fill: rgb(11, 121, 230); fill-opacity: 1;"/></g><g class="text"/></g><g class="trace scatter trace7e7221" style="stroke-miterlimit: 2; opacity: 1;"><g class="fills"/><g class="errorbars"/><g class="lines"/><g class="points"><path class="point" transform="translate(798.65,21.12)" d="M2,0A2,2 0 1,1 0,-2A2,2 0 0,1 2,0Z" style="opacity: 1; stroke-width: 0px; fill: rgb(11, 121, 230); fill-opacity: 1;"/></g><g class="text"/></g><g class="trace scatter traceaf2ff8" style="stroke-miterlimit: 2; opacity: 1;"><g class="fills"/><g class="errorbars"/><g class="lines"/><g class="points"><path class="point" transform="translate(496.82,21.12)" d="M2,0A2,2 0 1,1 0,-2A2,2 0 0,1 2,0Z" style="opacity: 1; stroke-width: 0px; fill: rgb(11, 121, 230); fill-opacity: 1;"/></g><g class="text"/></g><g class="trace scatter trace84c7d5" style="stroke-miterlimit: 2; opacity: 1;"><g class="fills"/><g class="errorbars"/><g class="lines"/><g class="points"><path class="point" transform="translate(192.95,21.12)" d="M2,0A2,2 0 1,1 0,-2A2,2 0 0,1 2,0Z" style="opacity: 1; stroke-width: 0px; fill: rgb(11, 121, 230); fill-opacity: 1;"/></g><g class="text"/></g></g></g></g><g class="zerolinelayer-above"/><path class="xlines-above crisp" d="M0,0" style="fill: none;"/><path class="ylines-above crisp" d="M0,0" style="fill: none;"/><g class="overlines-above"/><g class="xaxislayer-above"><g class="x2tick"><text text-anchor="middle" x="0" y="172.61538461538464" transform="translate(84.98,0)" style="font-family: system-ui, -apple-system, 'Segoe UI', Roboto, 'Helvetica Neue', 'Noto Sans', 'Liberation Sans', Arial, sans-serif, 'Apple Color Emoji', 'Segoe UI Emoji', 'Segoe UI Symbol', 'Noto Color Emoji'; font-size: 9px; fill: rgb(0, 0, 0); fill-opacity: 0.5; white-space: pre;">0</text></g><g class="x2tick"><text text-anchor="middle" x="0" y="172.61538461538464" style="font-family: system-ui, -apple-system, 'Segoe UI', Roboto, 'Helvetica Neue', 'Noto Sans', 'Liberation Sans', Arial, sans-serif, 'Apple Color Emoji', 'Segoe UI Emoji', 'Segoe UI Symbol', 'Noto Color Emoji'; font-size: 9px; fill: rgb(0, 0, 0); fill-opacity: 0.5; white-space: pre;" transform="translate(250.98,0)">20k</text></g><g class="x2tick"><text text-anchor="middle" x="0" y="172.61538461538464" style="font-family: system-ui, -apple-system, 'Segoe UI', Roboto, 'Helvetica Neue', 'Noto Sans', 'Liberation Sans', Arial, sans-serif, 'Apple Color Emoji', 'Segoe UI Emoji', 'Segoe UI Symbol', 'Noto Color Emoji'; font-size: 9px; fill: rgb(0, 0, 0); fill-opacity: 0.5; white-space: pre;" transform="translate(416.98,0)">40k</text></g><g class="x2tick"><text text-anchor="middle" x="0" y="172.61538461538464" style="font-family: system-ui, -apple-system, 'Segoe UI', Roboto, 'Helvetica Neue', 'Noto Sans', 'Liberation Sans', Arial, sans-serif, 'Apple Color Emoji', 'Segoe UI Emoji', 'Segoe UI Symbol', 'Noto Color Emoji'; font-size: 9px; fill: rgb(0, 0, 0); fill-opacity: 0.5; white-space: pre;" transform="translate(582.99,0)">60k</text></g><g class="x2tick"><text text-anchor="middle" x="0" y="172.61538461538464" style="font-family: system-ui, -apple-system, 'Segoe UI', Roboto, 'Helvetica Neue', 'Noto Sans', 'Liberation Sans', Arial, sans-serif, 'Apple Color Emoji', 'Segoe UI Emoji', 'Segoe UI Symbol', 'Noto Color Emoji'; font-size: 9px; fill: rgb(0, 0, 0); fill-opacity: 0.5; white-space: pre;" transform="translate(748.99,0)">80k</text></g><g class="x2tick"><text text-anchor="middle" x="0" y="172.61538461538464" style="font-family: system-ui, -apple-system, 'Segoe UI', Roboto, 'Helvetica Neue', 'Noto Sans', 'Liberation Sans', Arial, sans-serif, 'Apple Color Emoji', 'Segoe UI Emoji', 'Segoe UI Symbol', 'Noto Color Emoji'; font-size: 9px; fill: rgb(0, 0, 0); fill-opacity: 0.5; white-space: pre;" transform="translate(914.99,0)">100k</text></g><g class="x2tick"><text text-anchor="middle" x="0" y="172.61538461538464" style="font-family: system-ui, -apple-system, 'Segoe UI', Roboto, 'Helvetica Neue', 'Noto Sans', 'Liberation Sans', Arial, sans-serif, 'Apple Color Emoji', 'Segoe UI Emoji', 'Segoe UI Symbol', 'Noto Color Emoji'; font-size: 9px; fill: rgb(0, 0, 0); fill-opacity: 0.5; white-space: pre;" transform="translate(1081,0)">120k</text></g></g><g class="yaxislayer-above"><g class="y2tick"><text text-anchor="end" x="79" y="3.15" transform="translate(0,141.5046153846154)" style="font-family: system-ui, -apple-system, 'Segoe UI', Roboto, 'Helvetica Neue', 'Noto Sans', 'Liberation Sans', Arial, sans-serif, 'Apple Color Emoji', 'Segoe UI Emoji', 'Segoe UI Symbol', 'Noto Color Emoji'; font-size: 9px; fill: rgb(0, 0, 0); fill-opacity: 0.5; white-space: pre;">Occurrences  </text></g></g><g class="overaxes-above"/></g><g class="subplot x3y3"><g class="layer-subplot"><g class="shapelayer"/><g class="imagelayer"/></g><g class="minor-gridlayer"><g class="x3"/><g class="y3"/></g><g class="gridlayer"><g class="x3"><path class="x3grid crisp" transform="translate(283.98,0)" d="M0,190.76923076923077v42.230769230769226" style="stroke: rgb(0, 0, 0); stroke-opacity: 0.1; stroke-width: 1px;"/><path class="x3grid crisp" transform="translate(482.99,0)" d="M0,190.76923076923077v42.230769230769226" style="stroke: rgb(0, 0, 0); stroke-opacity: 0.1; stroke-width: 1px;"/><path class="x3grid crisp" transform="translate(681.99,0)" d="M0,190.76923076923077v42.230769230769226" style="stroke: rgb(0, 0, 0); stroke-opacity: 0.1; stroke-width: 1px;"/><path class="x3grid crisp" transform="translate(881,0)" d="M0,190.76923076923077v42.230769230769226" style="stroke: rgb(0, 0, 0); stroke-opacity: 0.1; stroke-width: 1px;"/><path class="x3grid crisp" transform="translate(1080,0)" d="M0,190.76923076923077v42.230769230769226" style="stroke: rgb(0, 0, 0); stroke-opacity: 0.1; stroke-width: 1px;"/></g><g class="y3"><path class="y3grid crisp" transform="translate(0,211.88923076923078)" d="M80,0h1005" style="stroke: rgb(0, 0, 0); stroke-opacity: 0.1; stroke-width: 1px;"/></g></g><g class="zerolinelayer"><path class="x3zl zl crisp" transform="translate(84.98,0)" d="M0,190.76923076923077v42.230769230769226" style="stroke: rgb(0, 0, 0); stroke-opacity: 0.1; stroke-width: 1px;"/></g><g class="layer-between"><g class="shapelayer"/><g class="imagelayer"/></g><path class="xlines-below"/><path class="ylines-below"/><g class="overlines-below"/><g class="xaxislayer-below"/><g class="yaxislayer-below"/><g class="overaxes-below"/><g class="overplot"><g class="x3y3" transform="translate(80,190.76923076923077)" clip-path="url(#clip14e02ax3y3plot)"><g class="violinlayer mlayer"><g class="trace violins" style="opacity: 1;"><path class="violin" d="M4.86,20.26Q4.88,19.79 4.89,19.51C4.9,19.17 4.9,18.78 4.91,18.38C4.92,17.92 4.93,17.4 4.94,16.88C4.95,16.31 4.96,15.69 4.97,15.08C4.98,14.45 4.99,13.79 5,13.16C5.01,12.54 5.02,11.92 5.03,11.33C5.04,10.78 5.05,10.25 5.06,9.75C5.07,9.31 5.08,8.88 5.09,8.49C5.1,8.15 5.11,7.82 5.12,7.53C5.13,7.28 5.14,7.04 5.15,6.84C5.16,6.68 5.15,6.5 5.17,6.41C5.18,6.37 5.19,6.33 5.2,6.33C5.22,6.33 5.22,6.58 5.23,6.75C5.24,7.02 5.25,7.4 5.26,7.79C5.27,8.28 5.28,8.87 5.29,9.46C5.3,10.13 5.31,10.88 5.32,11.61C5.33,12.37 5.34,13.18 5.35,13.94C5.36,14.68 5.37,15.43 5.38,16.13C5.39,16.76 5.39,17.39 5.4,17.95C5.41,18.43 5.42,18.89 5.43,19.29Q5.44,19.61 5.46,20.15L5.46,22.08Q5.44,22.62 5.43,22.94C5.42,23.34 5.41,23.8 5.4,24.28C5.39,24.84 5.39,25.47 5.38,26.1C5.37,26.8 5.36,27.55 5.35,28.29C5.34,29.06 5.33,29.87 5.32,30.63C5.31,31.36 5.3,32.1 5.29,32.77C5.28,33.36 5.27,33.95 5.26,34.44C5.25,34.83 5.24,35.21 5.23,35.48C5.22,35.65 5.22,35.9 5.2,35.9C5.19,35.9 5.18,35.86 5.17,35.82C5.15,35.73 5.16,35.55 5.15,35.39C5.14,35.19 5.13,34.95 5.12,34.7C5.11,34.41 5.1,34.08 5.09,33.74C5.08,33.35 5.07,32.92 5.06,32.48C5.05,31.98 5.04,31.45 5.03,30.9C5.02,30.31 5.01,29.69 5,29.07C4.99,28.44 4.98,27.78 4.97,27.15C4.96,26.54 4.95,25.93 4.94,25.36C4.93,24.84 4.92,24.32 4.91,23.85C4.9,23.45 4.9,23.06 4.89,22.72Q4.88,22.45 4.86,21.98Z" style="vector-effect: none; stroke-width: 0px; stroke: rgb(124, 181, 236); stroke-opacity: 1; fill: rgb(153, 153, 153); fill-opacity: 1;"/><path class="box" d="M5.18,24.81V17.42M5.08,24.81V17.42H5.25V24.81ZM5.08,21.12H5.03M5.25,21.12H5.29" style="vector-effect: non-scaling-stroke; stroke-width: 0px; stroke: rgb(124, 181, 236); stroke-opacity: 1; fill: rgb(153, 153, 153); fill-opacity: 1;"/><path class="mean" d="M5.17,24.81V17.42" style="fill: none; vector-effect: non-scaling-stroke; stroke-width: 0px; stroke-dasharray: 0px, 0px; stroke: rgb(124, 181, 236); stroke-opacity: 1;"/></g></g><g class="scatterlayer mlayer"><g class="trace scatter tracedf7d5a" style="stroke-miterlimit: 2; opacity: 1;"><g class="fills"/><g class="errorbars"/><g class="lines"/><g class="points"><path class="point" transform="translate(5.29,21.12)" d="M2,0A2,2 0 1,1 0,-2A2,2 0 0,1 2,0Z" style="opacity: 1; stroke-width: 0px; fill: rgb(11, 121, 230); fill-opacity: 1;"/></g><g class="text"/></g><g class="trace scatter traceff54d7" style="stroke-miterlimit: 2; opacity: 1;"><g class="fills"/><g class="errorbars"/><g class="lines"/><g class="points"><path class="point" transform="translate(5.22,21.12)" d="M2,0A2,2 0 1,1 0,-2A2,2 0 0,1 2,0Z" style="opacity: 1; stroke-width: 0px; fill: rgb(11, 121, 230); fill-opacity: 1;"/></g><g class="text"/></g><g class="trace scatter trace3cc3cf" style="stroke-miterlimit: 2; opacity: 1;"><g class="fills"/><g class="errorbars"/><g class="lines"/><g class="points"><path class="point" transform="translate(5.13,21.12)" d="M2,0A2,2 0 1,1 0,-2A2,2 0 0,1 2,0Z" style="opacity: 1; stroke-width: 0px; fill: rgb(11, 121, 230); fill-opacity: 1;"/></g><g class="text"/></g><g class="trace scatter tracedd09ee" style="stroke-miterlimit: 2; opacity: 1;"><g class="fills"/><g class="errorbars"/><g class="lines"/><g class="points"><path class="point" transform="translate(5.03,21.12)" d="M2,0A2,2 0 1,1 0,-2A2,2 0 0,1 2,0Z" style="opacity: 1; stroke-width: 0px; fill: rgb(11, 121, 230); fill-opacity: 1;"/></g><g class="text"/></g></g></g></g><g class="zerolinelayer-above"/><path class="xlines-above crisp" d="M0,0" style="fill: none;"/><path class="ylines-above crisp" d="M0,0" style="fill: none;"/><g class="overlines-above"/><g class="xaxislayer-above"><g class="x3tick"><text text-anchor="middle" x="0" y="243" transform="translate(84.98,0)" style="font-family: system-ui, -apple-system, 'Segoe UI', Roboto, 'Helvetica Neue', 'Noto Sans', 'Liberation Sans', Arial, sans-serif, 'Apple Color Emoji', 'Segoe UI Emoji', 'Segoe UI Symbol', 'Noto Color Emoji'; font-size: 9px; fill: rgb(0, 0, 0); fill-opacity: 0.5; white-space: pre;">0%</text></g><g class="x3tick"><text text-anchor="middle" x="0" y="243" style="font-family: system-ui, -apple-system, 'Segoe UI', Roboto, 'Helvetica Neue', 'Noto Sans', 'Liberation Sans', Arial, sans-serif, 'Apple Color Emoji', 'Segoe UI Emoji', 'Segoe UI Symbol', 'Noto Color Emoji'; font-size: 9px; fill: rgb(0, 0, 0); fill-opacity: 0.5; white-space: pre;" transform="translate(283.98,0)">20%</text></g><g class="x3tick"><text text-anchor="middle" x="0" y="243" style="font-family: system-ui, -apple-system, 'Segoe UI', Roboto, 'Helvetica Neue', 'Noto Sans', 'Liberation Sans', Arial, sans-serif, 'Apple Color Emoji', 'Segoe UI Emoji', 'Segoe UI Symbol', 'Noto Color Emoji'; font-size: 9px; fill: rgb(0, 0, 0); fill-opacity: 0.5; white-space: pre;" transform="translate(482.99,0)">40%</text></g><g class="x3tick"><text text-anchor="middle" x="0" y="243" style="font-family: system-ui, -apple-system, 'Segoe UI', Roboto, 'Helvetica Neue', 'Noto Sans', 'Liberation Sans', Arial, sans-serif, 'Apple Color Emoji', 'Segoe UI Emoji', 'Segoe UI Symbol', 'Noto Color Emoji'; font-size: 9px; fill: rgb(0, 0, 0); fill-opacity: 0.5; white-space: pre;" transform="translate(681.99,0)">60%</text></g><g class="x3tick"><text text-anchor="middle" x="0" y="243" style="font-family: system-ui, -apple-system, 'Segoe UI', Roboto, 'Helvetica Neue', 'Noto Sans', 'Liberation Sans', Arial, sans-serif, 'Apple Color Emoji', 'Segoe UI Emoji', 'Segoe UI Symbol', 'Noto Color Emoji'; font-size: 9px; fill: rgb(0, 0, 0); fill-opacity: 0.5; white-space: pre;" transform="translate(881,0)">80%</text></g><g class="x3tick"><text text-anchor="middle" x="0" y="243" style="font-family: system-ui, -apple-system, 'Segoe UI', Roboto, 'Helvetica Neue', 'Noto Sans', 'Liberation Sans', Arial, sans-serif, 'Apple Color Emoji', 'Segoe UI Emoji', 'Segoe UI Symbol', 'Noto Color Emoji'; font-size: 9px; fill: rgb(0, 0, 0); fill-opacity: 0.5; white-space: pre;" transform="translate(1080,0)">100%</text></g></g><g class="yaxislayer-above"><g class="y3tick"><text text-anchor="end" x="79" y="3.15" transform="translate(0,211.88923076923078)" style="font-family: system-ui, -apple-system, 'Segoe UI', Roboto, 'Helvetica Neue', 'Noto Sans', 'Liberation Sans', Arial, sans-serif, 'Apple Color Emoji', 'Segoe UI Emoji', 'Segoe UI Symbol', 'Noto Color Emoji'; font-size: 9px; fill: rgb(0, 0, 0); fill-opacity: 0.5; white-space: pre;">% of all reads  </text></g></g><g class="overaxes-above"/></g></g><g class="polarlayer"/><g class="smithlayer"/><g class="ternarylayer"/><g class="geolayer"/><g class="funnelarealayer"/><g class="pielayer"/><g class="iciclelayer"/><g class="treemaplayer"/><g class="sunburstlayer"/><g class="glimages"/><defs id="topdefs-14e02a"><g class="clips"/></defs><g class="layer-above"><g class="imagelayer"/><g class="shapelayer"/></g><g class="infolayer"><g class="g-gtitle"><text class="gtitle" x="550" y="25" text-anchor="middle" dy="0em" style="opacity: 1; font-family: system-ui, -apple-system, 'Segoe UI', Roboto, 'Helvetica Neue', 'Noto Sans', 'Liberation Sans', Arial, sans-serif, 'Apple Color Emoji', 'Segoe UI Emoji', 'Segoe UI Symbol', 'Noto Color Emoji'; font-size: 20px; fill: rgb(60, 60, 60); fill-opacity: 1; white-space: pre;"><tspan class="line" dy="0em" x="550" y="25">FastQC: Top overrepresented sequences</tspan><tspan class="line" dy="1.3em" x="550" y="25">​<tspan style="font-size:70%" dy="-0.6em">4 samples</tspan><tspan dy="0.42em">​</tspan></tspan></text></g><g class="g-xtitle"/><g class="g-x2title"/><g class="g-x3title"/><g class="g-ytitle"/><g class="g-y2title"/><g class="g-y3title"/></g></svg>