<svg class="main-svg" xmlns="http://www.w3.org/2000/svg" xmlns:xlink="http://www.w3.org/1999/xlink" width="2200" height="1000" style="" viewBox="0 0 1100 500"><rect x="0" y="0" width="1100" height="500" style="fill: rgb(255, 255, 255); fill-opacity: 1;"/><defs id="defs-fb602c"><g class="clips"><clipPath id="clipfb602cxyplot" class="plotclip"><rect width="1014" height="385"/></clipPath><clipPath class="axesclip" id="clipfb602cx"><rect x="60" y="0" width="1014" height="500"/></clipPath><clipPath class="axesclip" id="clipfb602cy"><rect x="0" y="50" width="1100" height="385"/></clipPath><clipPath class="axesclip" id="clipfb602cxy"><rect x="60" y="50" width="1014" height="385"/></clipPath></g><g class="gradients"/><g class="patterns"/></defs><g class="bglayer"/><g class="layer-below"><g class="imagelayer"/><g class="shapelayer"/></g><g class="cartesianlayer"><g class="subplot xy"><g class="layer-subplot"><g class="shapelayer"/><g class="imagelayer"/></g><g class="minor-gridlayer"><g class="x"/><g class="y"/></g><g class="gridlayer"><g class="x"><path class="xgrid crisp" transform="translate(262.8,0)" d="M0,50v385" style="stroke: rgb(128, 128, 128); stroke-opacity: 0.15; stroke-width: 1px;"/><path class="xgrid crisp" transform="translate(465.6,0)" d="M0,50v385" style="stroke: rgb(128, 128, 128); stroke-opacity: 0.15; stroke-width: 1px;"/><path class="xgrid crisp" transform="translate(668.4,0)" d="M0,50v385" style="stroke: rgb(128, 128, 128); stroke-opacity: 0.15; stroke-width: 1px;"/><path class="xgrid crisp" transform="translate(871.2,0)" d="M0,50v385" style="stroke: rgb(128, 128, 128); stroke-opacity: 0.15; stroke-width: 1px;"/></g><g class="y"><path class="ygrid crisp" transform="translate(0,378.09)" d="M60,0h1014" style="stroke: rgb(128, 128, 128); stroke-opacity: 0.15; stroke-width: 1px;"/><path class="ygrid crisp" transform="translate(0,321.18)" d="M60,0h1014" style="stroke: rgb(128, 128, 128); stroke-opacity: 0.15; stroke-width: 1px;"/><path class="ygrid crisp" transform="translate(0,264.28)" d="M60,0h1014" style="stroke: rgb(128, 128, 128); stroke-opacity: 0.15; stroke-width: 1px;"/><path class="ygrid crisp" transform="translate(0,207.37)" d="M60,0h1014" style="stroke: rgb(128, 128, 128); stroke-opacity: 0.15; stroke-width: 1px;"/><path class="ygrid crisp" transform="translate(0,150.45999999999998)" d="M60,0h1014" style="stroke: rgb(128, 128, 128); stroke-opacity: 0.15; stroke-width: 1px;"/><path class="ygrid crisp" transform="translate(0,93.55)" d="M60,0h1014" style="stroke: rgb(128, 128, 128); stroke-opacity: 0.15; stroke-width: 1px;"/></g></g><g class="zerolinelayer"><path class="xzl zl crisp" transform="translate(60,0)" d="M0,50v385" style="stroke: rgb(128, 128, 128); stroke-opacity: 0.2; stroke-width: 1px;"/><path class="yzl zl crisp" transform="translate(0,435)" d="M60,0h1014" style="stroke: rgb(128, 128, 128); stroke-opacity: 0.2; stroke-width: 1px;"/></g><g class="layer-between"><g class="shapelayer"/><g class="imagelayer"/></g><path class="xlines-below"/><path class="ylines-below"/><g class="overlines-below"/><g class="xaxislayer-below"/><g class="yaxislayer-below"/><g class="overaxes-below"/><g class="overplot"><g class="xy" transform="translate(60,50)" clip-path="url(#clipfb602cxyplot)"><g class="scatterlayer mlayer"><g class="trace scatter trace282b10" style="stroke-miterlimit: 2; opacity: 1;"><g class="fills"/><g class="errorbars"/><g class="lines"><path class="js-line" d="M0,384.43L101.4,384.12L111.54,383.96L152.1,382.49L162.24,381.9L172.38,380.63L182.52,378.36L192.66,376.14L202.8,372.28L212.94,367.17L223.08,363.21L253.5,342.83L263.64,331.66L273.78,324.02L283.92,312.37L294.06,296.04L304.2,284.26L314.34,271.09L324.48,261.02L334.62,249.15L344.76,227.87L354.9,212.79L365.04,194.38L375.18,170.29L385.32,156.16L395.46,141.54L405.6,117.55L415.74,101.18L425.88,89.59L436.02,73.32L446.16,60.57L456.3,51.36L466.44,47.96L476.58,47.54L486.72,42.24L496.86,38.43L507,37.62L517.14,38L527.28,36.95L537.42,34.52L547.56,36.57L577.98,49.32L588.12,57.01L598.26,64.38L608.4,78.66L618.54,100.47L628.68,113.82L638.82,129.61L648.96,158.44L659.1,180.8L669.24,201.3L679.38,231.18L689.52,248.64L699.66,266.03L709.8,285.98L719.94,301.24L730.08,321.36L740.22,333.09L750.36,340.63L760.5,350.95L770.64,356.77L790.92,366.47L801.06,370.2L811.2,375.04L821.34,377.63L851.76,382.57L861.9,383.21L892.32,384.43L902.46,384.62L1014,384.98" style="vector-effect: none; fill: none; stroke: rgb(92, 184, 92); stroke-opacity: 1; stroke-width: 2px; opacity: 1;"/></g><g class="points"/><g class="text"/></g><g class="trace scatter trace10d0cb" style="stroke-miterlimit: 2; opacity: 1;"><g class="fills"/><g class="errorbars"/><g class="lines"><path class="js-line" d="M0,384.4L101.4,384L111.54,383.86L152.1,382.29L162.24,381.65L172.38,380.36L182.52,378.01L192.66,375.72L202.8,371.81L212.94,366.65L223.08,362.5L233.22,355.28L243.36,349.2L253.5,342.08L263.64,330.86L273.78,323.09L283.92,311.41L294.06,295.11L304.2,283.4L314.34,270.15L324.48,260.11L334.62,248.33L344.76,227.16L354.9,212.32L365.04,193.61L375.18,168.89L385.32,154.45L395.46,139.51L405.6,115.76L415.74,99.57L425.88,86.18L436.02,71.36L446.16,58.95L456.3,47.85L466.44,45.19L476.58,45.08L486.72,40.41L496.86,37.4L507,37.08L527.28,38.37L537.42,36.24L547.56,37.61L557.7,41.98L577.98,52.21L588.12,60L598.26,67.45L608.4,81.17L618.54,102.55L628.68,116.13L638.82,131.72L648.96,160.44L659.1,182.7L669.24,203.07L679.38,233.02L689.52,250.37L699.66,267.6L709.8,287.42L719.94,302.27L730.08,321.91L740.22,333.55L750.36,341.02L760.5,351.21L770.64,357.05L790.92,366.7L801.06,370.34L811.2,375.24L821.34,377.93L851.76,382.8L861.9,383.43L892.32,384.56L902.46,384.72L1014,384.98" style="vector-effect: none; fill: none; stroke: rgb(92, 184, 92); stroke-opacity: 1; stroke-width: 2px; opacity: 1;"/></g><g class="points"/><g class="text"/></g><g class="trace scatter trace06bd5f" style="stroke-miterlimit: 2; opacity: 1;"><g class="fills"/><g class="errorbars"/><g class="lines"><path class="js-line" d="M0,384.32L91.26,384.12L101.4,383.94L141.96,382.87L152.1,382.13L172.38,380.12L182.52,377.67L192.66,375.32L202.8,371.35L212.94,365.98L223.08,361.65L233.22,354.11L243.36,347.75L253.5,340.21L263.64,328.36L273.78,320.13L283.92,308.34L294.06,291.8L304.2,279.53L314.34,265.85L324.48,255.44L334.62,243.37L344.76,222.11L354.9,207.56L365.04,189.46L375.18,165.17L385.32,150.85L395.46,136.82L405.6,113.83L415.74,97.25L425.88,83.84L436.02,61.85L446.16,46.7L456.3,43.04L466.44,45.16L476.58,46.77L486.72,40.56L496.86,35.76L507,34.85L517.14,35.83L527.28,37.58L537.42,38.62L547.56,42.13L567.84,51.36L577.98,57.04L598.26,75.58L608.4,89.3L618.54,110.58L628.68,124.37L638.82,140.04L648.96,167.38L669.24,208.43L679.38,237.06L699.66,270.28L709.8,288.94L719.94,303.21L730.08,322.5L740.22,333.97L750.36,341.42L760.5,351.46L770.64,357.14L790.92,366.81L801.06,370.56L811.2,375.34L821.34,377.96L851.76,382.69L861.9,383.34L892.32,384.48L902.46,384.66L1014,384.96" style="vector-effect: none; fill: none; stroke: rgb(92, 184, 92); stroke-opacity: 1; stroke-width: 2px; opacity: 1;"/></g><g class="points"/><g class="text"/></g><g class="trace scatter tracee0d7fb" style="stroke-miterlimit: 2; opacity: 1;"><g class="fills"/><g class="errorbars"/><g class="lines"><path class="js-line" d="M0,384.3L91.26,384.01L101.4,383.84L141.96,382.66L152.1,381.88L172.38,379.8L182.52,377.32L192.66,374.97L202.8,370.87L212.94,365.34L223.08,360.96L233.22,353.39L243.36,346.99L253.5,339.51L263.64,327.75L273.78,319.45L283.92,307.33L294.06,290.77L304.2,278.99L314.34,265.67L324.48,255.39L334.62,243.6L344.76,222.4L354.9,207.7L365.04,189.54L375.18,164.95L385.32,150.13L395.46,136.05L405.6,113.42L425.88,81.15L436.02,62.04L446.16,48.73L456.3,40.22L466.44,40.5L476.58,42.16L486.72,37.26L496.86,34.08L507,34.86L517.14,36.4L537.42,38.23L547.56,41.76L557.7,46.52L567.84,52.25L577.98,59.12L588.12,68.18L598.26,76.75L608.4,91.27L618.54,113.08L628.68,126.43L638.82,141.41L648.96,168.59L669.24,209.93L679.38,238.66L699.66,271.34L709.8,289.82L719.94,304.1L730.08,323.2L740.22,334.46L750.36,341.85L760.5,351.95L770.64,357.73L790.92,367.21L801.06,370.95L811.2,375.78L821.34,378.35L851.76,382.99L861.9,383.58L892.32,384.6L902.46,384.75L1014,384.99" style="vector-effect: none; fill: none; stroke: rgb(92, 184, 92); stroke-opacity: 1; stroke-width: 2px; opacity: 1;"/></g><g class="points"/><g class="text"/></g><g class="trace scatter trace4ef79f" style="stroke-miterlimit: 2; opacity: 1;"><g class="fills"/><g class="errorbars"/><g class="lines"><path class="js-line" d="M0,384.37L101.4,384.01L111.54,383.84L152.1,382.33L162.24,381.68L172.38,380.45L182.52,378.42L192.66,376.37L202.8,373.03L223.08,364.74L233.22,358.1L243.36,352.32L253.5,345.6L263.64,334.81L273.78,327.09L283.92,315.89L294.06,299.63L314.34,272.36L324.48,262.02L334.62,248.77L344.76,225.59L354.9,208.4L365.04,187.66L375.18,162.74L385.32,148.19L395.46,130.95L405.6,104.41L415.74,88.02L425.88,78.86L436.02,68.48L446.16,56.97L456.3,42.41L466.44,33.82L476.58,30L486.72,23.7L496.86,20.2L507,21.85L527.28,29.13L537.42,31.68L547.56,33.05L557.7,35.73L577.98,48.96L588.12,60.43L598.26,72.38L608.4,86.19L618.54,108.51L628.68,124.11L638.82,141.65L648.96,172.6L659.1,196.14L669.24,216.44L679.38,244.3L689.52,261.21L699.66,277.33L709.8,295.1L719.94,309.37L730.08,327.34L740.22,338.28L750.36,345.89L760.5,355.14L770.64,360.55L811.2,376.74L821.34,378.91L851.76,383L861.9,383.52L902.46,384.57L912.6,384.68L1014,384.99" style="vector-effect: none; fill: none; stroke: rgb(92, 184, 92); stroke-opacity: 1; stroke-width: 2px; opacity: 1;"/></g><g class="points"/><g class="text"/></g><g class="trace scatter trace26a0be" style="stroke-miterlimit: 2; opacity: 1;"><g class="fills"/><g class="errorbars"/><g class="lines"><path class="js-line" d="M0,384.21L91.26,384.04L101.4,383.85L141.96,382.8L152.1,382.21L172.38,380.29L182.52,378.2L192.66,376.12L202.8,372.67L223.08,364.02L233.22,357.25L243.36,351.31L253.5,344.41L263.64,333.36L273.78,325.49L283.92,314.35L294.06,297.85L314.34,270.71L324.48,260.1L334.62,246.96L344.76,223.62L354.9,206.28L365.04,185.31L375.18,160.59L385.32,146.56L395.46,129.78L405.6,103.78L415.74,87.47L425.88,78.07L446.16,56.82L456.3,42.69L466.44,34.36L476.58,32.27L496.86,23.68L507,24.28L517.14,27.98L527.28,33.62L537.42,37.01L547.56,38.27L557.7,42.18L567.84,48.41L577.98,54.51L588.12,65.93L598.26,77.51L608.4,90.88L618.54,111.35L628.68,124.88L638.82,142.21L648.96,172.99L659.1,195.49L669.24,214.89L679.38,242.99L689.52,259.87L699.66,275.3L709.8,292.6L719.94,307.07L730.08,325.28L740.22,336.11L750.36,343.75L760.5,353.13L770.64,358.7L811.2,375.71L821.34,378.02L851.76,382.35L861.9,383L902.46,384.33L912.6,384.46L1014,384.98" style="vector-effect: none; fill: none; stroke: rgb(92, 184, 92); stroke-opacity: 1; stroke-width: 2px; opacity: 1;"/></g><g class="points"/><g class="text"/></g><g class="trace scatter trace1d9f1f" style="stroke-miterlimit: 2; opacity: 1;"><g class="fills"/><g class="errorbars"/><g class="lines"><path class="js-line" d="M0,384.19L81.12,384.11L91.26,384L141.96,382.5L152.1,381.64L172.38,379.21L182.52,376.47L192.66,373.73L202.8,369.24L212.94,363.21L223.08,358.24L233.22,349.65L243.36,342.27L253.5,333.82L263.64,320.45L273.78,310.87L283.92,297.51L294.06,278.88L304.2,264.9L314.34,250.44L324.48,239.73L334.62,226.68L344.76,204.15L354.9,187.73L365.04,167.31L375.18,143.4L385.32,130.62L395.46,116.04L405.6,92.71L415.74,78.52L425.88,70.59L446.16,51.08L456.3,39.29L466.44,33.26L476.58,31.42L486.72,27L496.86,24.72L507,27.09L517.14,30.98L527.28,35.94L537.42,41.95L557.7,53.33L567.84,62.24L577.98,71.46L588.12,84.51L598.26,96.31L608.4,110.81L618.54,132.78L628.68,146.78L638.82,163.28L648.96,192.2L659.1,214.04L669.24,232.72L679.38,258.61L689.52,274.06L699.66,288.06L709.8,303.72L719.94,316.11L730.08,332.16L740.22,342.33L750.36,349.03L760.5,357.17L770.64,362.1L811.2,376.76L821.34,378.84L851.76,382.58L861.9,383.2L902.46,384.42L912.6,384.55L1014,384.99" style="vector-effect: none; fill: none; stroke: rgb(92, 184, 92); stroke-opacity: 1; stroke-width: 2px; opacity: 1;"/></g><g class="points"/><g class="text"/></g><g class="trace scatter traced33c4a" style="stroke-miterlimit: 2; opacity: 1;"><g class="fills"/><g class="errorbars"/><g class="lines"><path class="js-line" d="M0,384.02L70.98,384.03L81.12,383.93L131.82,382.61L141.96,382.18L172.38,378.82L182.52,375.99L192.66,373.17L202.8,368.39L212.94,362.09L223.08,357.05L233.22,348.21L243.36,340.59L253.5,332.16L263.64,318.8L273.78,309.44L283.92,296.26L294.06,277.48L304.2,263.47L314.34,249L324.48,238.22L334.62,225.09L344.76,202.4L354.9,186.13L365.04,166.06L375.18,142.38L385.32,129.4L395.46,114.71L405.6,92.05L415.74,78.22L425.88,70.76L446.16,52.33L456.3,41.42L466.44,35.95L476.58,33.67L486.72,29.78L496.86,28.41L507,31.72L517.14,35.99L527.28,41.1L537.42,47.27L547.56,52.23L557.7,58.38L577.98,74.89L588.12,87.37L598.26,98.6L608.4,112.46L618.54,133.92L628.68,147.45L638.82,163.1L648.96,191.26L659.1,212.84L669.24,231.32L679.38,256.97L689.52,272.3L699.66,286.05L709.8,301.66L719.94,314.25L730.08,330.39L740.22,340.73L750.36,347.49L760.5,355.62L770.64,360.77L811.2,375.86L821.34,378.2L851.76,382.23L861.9,382.86L902.46,384.27L912.6,384.42L1014,384.98" style="vector-effect: none; fill: none; stroke: rgb(92, 184, 92); stroke-opacity: 1; stroke-width: 2px; opacity: 1;"/></g><g class="points"/><g class="text"/></g><g class="trace scatter tracef04da8" style="stroke-miterlimit: 2; opacity: 1;"><g class="fills"/><g class="errorbars"/><g class="lines"><path class="js-line" d="M0,384.26L91.26,384.09L101.4,383.89L141.96,382.77L152.1,382.17L172.38,380.36L182.52,378.42L192.66,376.39L202.8,372.97L223.08,364.56L233.22,358.05L243.36,352.39L253.5,345.33L263.64,334.1L273.78,326.19L283.92,314.4L294.06,297.62L304.2,284.81L314.34,270.1L324.48,258.87L334.62,244.09L344.76,218.81L354.9,200.84L365.04,178.73L375.18,151.5L385.32,135.68L395.46,118.39L405.6,92.55L415.74,77.43L425.88,68.88L436.02,57.91L446.16,49.2L456.3,38.34L466.44,29.16L476.58,24.44L486.72,20.59L496.86,19.25L507,21.57L517.14,26.85L527.28,32.41L537.42,35.25L547.56,37.15L557.7,42.29L567.84,51.32L577.98,58.94L588.12,68.72L598.26,79.8L608.4,95.32L618.54,119.19L638.82,151.36L648.96,181.36L659.1,204.1L669.24,223.59L679.38,250.4L689.52,266.72L699.66,282.11L709.8,299.04L719.94,312.38L730.08,328.9L740.22,339.12L750.36,346.48L760.5,355.34L770.64,360.6L801.06,373.34L811.2,377.19L821.34,379.44L831.48,380.79L851.76,383.15L861.9,383.64L902.46,384.58L912.6,384.69L1014,384.99" style="vector-effect: none; fill: none; stroke: rgb(92, 184, 92); stroke-opacity: 1; stroke-width: 2px; opacity: 1;"/></g><g class="points"/><g class="text"/></g><g class="trace scatter trace439394" style="stroke-miterlimit: 2; opacity: 1;"><g class="fills"/><g class="errorbars"/><g class="lines"><path class="js-line" d="M0,384.17L91.26,384L101.4,383.79L152.1,382.05L162.24,381.4L172.38,380.18L182.52,378.19L192.66,376.16L202.8,372.82L223.08,364.47L233.22,357.69L243.36,351.78L253.5,344.67L263.64,333.4L273.78,325.52L283.92,313.77L294.06,296.83L304.2,284.16L314.34,269.87L324.48,258.73L334.62,243.95L344.76,219L354.9,201.15L365.04,178.43L375.18,151.33L395.46,119.85L405.6,94.45L415.74,79.07L425.88,70.89L436.02,61.02L446.16,52.74L456.3,40.67L466.44,31.51L486.72,26.16L496.86,24.75L507,25.84L517.14,30.18L527.28,36.23L537.42,39.94L547.56,42.17L557.7,47.33L567.84,55.03L577.98,61.58L598.26,80.36L608.4,95.02L618.54,117.4L628.68,131.02L638.82,147.62L648.96,178.14L659.1,200.8L669.24,219.81L679.38,247.06L689.52,263.71L699.66,278.68L709.8,295.44L719.94,309.28L730.08,326.26L740.22,336.65L750.36,344.04L760.5,353.09L770.64,358.71L801.06,371.89L811.2,375.99L821.34,378.4L831.48,379.82L851.76,382.47L861.9,383.08L902.46,384.31L912.6,384.45L1014,384.98" style="vector-effect: none; fill: none; stroke: rgb(92, 184, 92); stroke-opacity: 1; stroke-width: 2px; opacity: 1;"/></g><g class="points"/><g class="text"/></g><g class="trace scatter tracea45850" style="stroke-miterlimit: 2; opacity: 1;"><g class="fills"/><g class="errorbars"/><g class="lines"><path class="js-line" d="M0,384.4L91.26,384.17L101.4,383.96L152.1,382.19L162.24,381.53L172.38,380.3L182.52,378.18L192.66,376.1L202.8,372.51L212.94,367.64L223.08,363.66L233.22,356.69L243.36,350.75L253.5,343.71L263.64,332.38L273.78,324.44L283.92,312.82L294.06,296.38L304.2,284.13L314.34,269.81L324.48,258.69L334.62,244.32L344.76,219.94L354.9,203.05L365.04,182.41L375.18,157.27L385.32,142.7L395.46,126.41L405.6,102.32L415.74,87.72L425.88,78.47L436.02,68.5L446.16,60.57L456.3,49.62L466.44,41.85L486.72,31.88L496.86,30L507,31.15L517.14,34.05L527.28,38.08L537.42,40.65L547.56,41.7L557.7,44.39L577.98,57.38L588.12,66.97L598.26,76.63L608.4,88.78L618.54,108.33L628.68,122.49L638.82,139.67L648.96,169.68L659.1,193.16L669.24,213.87L679.38,241.36L689.52,258.08L699.66,273.83L709.8,291.2L719.94,305.45L730.08,323.18L740.22,334.27L750.36,342.22L760.5,351.89L770.64,357.61L811.2,375.37L821.34,377.94L851.76,382.54L861.9,383.17L892.32,384.25L902.46,384.45L983.58,384.97L993.72,384.98L1014,385" style="vector-effect: none; fill: none; stroke: rgb(92, 184, 92); stroke-opacity: 1; stroke-width: 2px; opacity: 1;"/></g><g class="points"/><g class="text"/></g><g class="trace scatter tracec1b65f" style="stroke-miterlimit: 2; opacity: 1;"><g class="fills"/><g class="errorbars"/><g class="lines"><path class="js-line" d="M0,384.28L91.26,384.01L101.4,383.8L152.1,382.07L162.24,381.4L172.38,380.12L182.52,377.9L192.66,375.71L202.8,372.02L212.94,366.99L223.08,362.87L233.22,355.85L243.36,349.84L253.5,342.43L263.64,330.73L273.78,322.78L283.92,311.3L294.06,294.75L304.2,282.23L314.34,268.08L324.48,257.17L334.62,243.08L344.76,218.92L354.9,201.74L365.04,181.25L375.18,156.81L385.32,142.9L395.46,127.83L405.6,104.22L415.74,89.26L425.88,80.05L436.02,69.88L446.16,62.25L456.3,51.47L466.44,44.02L476.58,40.68L486.72,35.78L496.86,32.6L507,32.75L517.14,35.32L527.28,39.72L537.42,43.31L547.56,45.41L557.7,48.83L567.84,54.73L577.98,61.17L588.12,71.01L598.26,80.42L608.4,92.33L618.54,110.93L628.68,123.45L638.82,140.31L648.96,170.25L659.1,192.71L669.24,212.32L679.38,239.78L689.52,256.41L699.66,271.69L709.8,288.77L719.94,302.69L730.08,320.41L740.22,331.74L750.36,339.66L760.5,349.39L770.64,355.36L811.2,374.12L821.34,376.89L851.76,381.8L861.9,382.56L902.46,384.17L912.6,384.34L1014,384.99" style="vector-effect: none; fill: none; stroke: rgb(92, 184, 92); stroke-opacity: 1; stroke-width: 2px; opacity: 1;"/></g><g class="points"/><g class="text"/></g><g class="trace scatter trace93933e" style="stroke-miterlimit: 2; opacity: 1;"><g class="fills"/><g class="errorbars"/><g class="lines"><path class="js-line" d="M0,384.42L101.4,383.94L111.54,383.75L152.1,381.96L162.24,381.19L172.38,379.74L182.52,377.26L192.66,374.61L202.8,370.77L223.08,361.73L233.22,354.32L253.5,340.99L263.64,329.83L273.78,321.85L283.92,310.16L294.06,293.47L304.2,280.49L314.34,266.86L324.48,256.92L334.62,243.47L344.76,220.34L354.9,203.97L365.04,183.98L375.18,160.38L385.32,147L395.46,131.11L405.6,106.54L415.74,90.76L425.88,81.58L436.02,71.05L446.16,59.18L456.3,45.71L466.44,38.97L476.58,36.28L486.72,31.03L496.86,28.09L507,29.79L527.28,35.76L537.42,38L547.56,39.82L557.7,42.97L577.98,57.94L588.12,68.46L598.26,79.23L608.4,92.17L618.54,113.07L628.68,127.84L638.82,144.97L648.96,174.31L659.1,196.74L669.24,216.23L679.38,242.92L689.52,259.64L709.8,293.02L719.94,306.86L730.08,324.14L740.22,334.82L750.36,342.22L760.5,351.22L770.64,356.77L780.78,361.37L790.92,366.17L801.06,369.94L811.2,374.07L821.34,376.56L851.76,381.74L861.9,382.51L902.46,384.32L912.6,384.51L1014,384.99" style="vector-effect: none; fill: none; stroke: rgb(92, 184, 92); stroke-opacity: 1; stroke-width: 2px; opacity: 1;"/></g><g class="points"/><g class="text"/></g><g class="trace scatter traceaa476a" style="stroke-miterlimit: 2; opacity: 1;"><g class="fills"/><g class="errorbars"/><g class="lines"><path class="js-line" d="M0,384.33L91.26,383.96L101.4,383.76L141.96,382.58L152.1,381.81L172.38,379.58L182.52,377.09L192.66,374.44L202.8,370.36L212.94,365.24L223.08,361.05L233.22,353.72L243.36,347.33L253.5,340.14L263.64,328.97L273.78,321.02L283.92,309.07L294.06,291.7L304.2,278.37L314.34,265.03L324.48,255.31L334.62,241.96L344.76,218.86L354.9,202.35L365.04,182.37L375.18,158.7L385.32,145.51L395.46,130.62L405.6,106.7L415.74,90.7L425.88,81.75L436.02,72.1L446.16,61.06L456.3,47.68L466.44,40.97L476.58,39.82L486.72,36.04L496.86,33.05L507,33.95L517.14,36.85L527.28,41.53L537.42,44.48L547.56,45.82L557.7,49.4L567.84,56.11L577.98,62.74L588.12,73.01L598.26,83.3L608.4,95.34L618.54,114.37L628.68,127.4L638.82,144.29L648.96,173.44L659.1,194.81L669.24,213.77L679.38,240.7L689.52,257.29L699.66,272.63L709.8,289.73L719.94,303.66L730.08,320.93L740.22,331.66L750.36,339.27L760.5,348.6L770.64,354.52L811.2,372.61L821.34,375.29L851.76,380.82L861.9,381.79L892.32,383.55L902.46,383.96L973.44,384.91L983.58,384.92L1014,384.98" style="vector-effect: none; fill: none; stroke: rgb(92, 184, 92); stroke-opacity: 1; stroke-width: 2px; opacity: 1;"/></g><g class="points"/><g class="text"/></g><g class="trace scatter tracee26171" style="stroke-miterlimit: 2; opacity: 1;"><g class="fills"/><g class="errorbars"/><g class="lines"><path class="js-line" d="M0,384.44L91.26,384.22L101.4,384.04L141.96,382.73L152.1,381.91L172.38,379.64L182.52,377.09L192.66,374.45L202.8,370.37L212.94,365.18L223.08,360.88L233.22,353.49L243.36,347.19L253.5,339.79L263.64,328.22L273.78,320.09L283.92,308.07L294.06,291.11L304.2,278.34L314.34,264.55L324.48,254.15L334.62,240.42L344.76,217.1L354.9,200.86L365.04,181.51L375.18,158.19L385.32,144.86L395.46,129.61L405.6,105.55L415.74,90.04L425.88,80.86L446.16,58.96L456.3,45.67L466.44,38.65L476.58,35.41L486.72,29.52L496.86,26.61L517.14,30.58L527.28,33.85L537.42,37.58L547.56,40.24L557.7,44.15L567.84,52.1L577.98,60.48L588.12,72.15L608.4,96.21L618.54,115.91L628.68,129.97L638.82,147.11L648.96,176.49L659.1,198.78L669.24,218.39L679.38,245.01L709.8,294.27L719.94,307.94L730.08,324.86L740.22,335.44L750.36,342.92L760.5,352.08L770.64,357.69L780.78,362.07L790.92,366.92L801.06,370.84L811.2,375L821.34,377.5L851.76,382.24L861.9,382.94L892.32,384.19L902.46,384.44L973.44,384.96L983.58,384.96L1014,384.99" style="vector-effect: none; fill: none; stroke: rgb(92, 184, 92); stroke-opacity: 1; stroke-width: 2px; opacity: 1;"/></g><g class="points"/><g class="text"/></g><g class="trace scatter trace9eb841" style="stroke-miterlimit: 2; opacity: 1;"><g class="fills"/><g class="errorbars"/><g class="lines"><path class="js-line" d="M0,384.32L91.26,384.08L101.4,383.91L141.96,382.61L152.1,381.8L172.38,379.38L182.52,376.75L192.66,374.12L202.8,370L212.94,364.7L223.08,360.28L233.22,352.67L243.36,346.19L253.5,338.62L263.64,326.63L273.78,318.32L283.92,306.31L294.06,289.34L304.2,276.57L314.34,262.64L324.48,252.12L334.62,238.6L344.76,215.52L354.9,199.43L365.04,180.06L375.18,156.74L385.32,143.48L395.46,128.93L405.6,105.9L415.74,90.58L425.88,81.04L446.16,60.34L456.3,48.1L466.44,41.59L476.58,39.32L486.72,34.59L496.86,31.45L507,32.75L517.14,35.85L537.42,44.1L547.56,46.39L557.7,50.5L567.84,57.87L577.98,64.9L588.12,75.76L598.26,87.09L608.4,99.59L618.54,117.92L628.68,130.18L638.82,146.48L648.96,175.21L659.1,196.8L669.24,216.07L679.38,242.7L689.52,258.52L699.66,273.44L709.8,290.39L719.94,304.39L730.08,321.76L740.22,332.66L750.36,340.23L760.5,349.56L770.64,355.56L811.2,373.66L821.34,376.29L851.76,381.45L861.9,382.33L892.32,383.77L902.46,384.12L973.44,384.92L983.58,384.93L1014,384.98" style="vector-effect: none; fill: none; stroke: rgb(92, 184, 92); stroke-opacity: 1; stroke-width: 2px; opacity: 1;"/></g><g class="points"/><g class="text"/></g></g></g></g><g class="zerolinelayer-above"/><path class="xlines-above crisp" d="M0,0" style="fill: none;"/><path class="ylines-above crisp" d="M0,0" style="fill: none;"/><g class="overlines-above"/><g class="xaxislayer-above"><g class="xtick"><text text-anchor="middle" x="0" y="451" transform="translate(60,0)" style="font-family: system-ui, -apple-system, 'Segoe UI', Roboto, 'Helvetica Neue', 'Noto Sans', 'Liberation Sans', Arial, sans-serif, 'Apple Color Emoji', 'Segoe UI Emoji', 'Segoe UI Symbol', 'Noto Color Emoji'; font-size: 10px; fill: rgb(80, 80, 80); fill-opacity: 1; white-space: pre;">0%</text></g><g class="xtick"><text text-anchor="middle" x="0" y="451" style="font-family: system-ui, -apple-system, 'Segoe UI', Roboto, 'Helvetica Neue', 'Noto Sans', 'Liberation Sans', Arial, sans-serif, 'Apple Color Emoji', 'Segoe UI Emoji', 'Segoe UI Symbol', 'Noto Color Emoji'; font-size: 10px; fill: rgb(80, 80, 80); fill-opacity: 1; white-space: pre;" transform="translate(262.8,0)">20%</text></g><g class="xtick"><text text-anchor="middle" x="0" y="451" style="font-family: system-ui, -apple-system, 'Segoe UI', Roboto, 'Helvetica Neue', 'Noto Sans', 'Liberation Sans', Arial, sans-serif, 'Apple Color Emoji', 'Segoe UI Emoji', 'Segoe UI Symbol', 'Noto Color Emoji'; font-size: 10px; fill: rgb(80, 80, 80); fill-opacity: 1; white-space: pre;" transform="translate(465.6,0)">40%</text></g><g class="xtick"><text text-anchor="middle" x="0" y="451" style="font-family: system-ui, -apple-system, 'Segoe UI', Roboto, 'Helvetica Neue', 'Noto Sans', 'Liberation Sans', Arial, sans-serif, 'Apple Color Emoji', 'Segoe UI Emoji', 'Segoe UI Symbol', 'Noto Color Emoji'; font-size: 10px; fill: rgb(80, 80, 80); fill-opacity: 1; white-space: pre;" transform="translate(668.4,0)">60%</text></g><g class="xtick"><text text-anchor="middle" x="0" y="451" style="font-family: system-ui, -apple-system, 'Segoe UI', Roboto, 'Helvetica Neue', 'Noto Sans', 'Liberation Sans', Arial, sans-serif, 'Apple Color Emoji', 'Segoe UI Emoji', 'Segoe UI Symbol', 'Noto Color Emoji'; font-size: 10px; fill: rgb(80, 80, 80); fill-opacity: 1; white-space: pre;" transform="translate(871.2,0)">80%</text></g><g class="xtick"><text text-anchor="middle" x="0" y="451" style="font-family: system-ui, -apple-system, 'Segoe UI', Roboto, 'Helvetica Neue', 'Noto Sans', 'Liberation Sans', Arial, sans-serif, 'Apple Color Emoji', 'Segoe UI Emoji', 'Segoe UI Symbol', 'Noto Color Emoji'; font-size: 10px; fill: rgb(80, 80, 80); fill-opacity: 1; white-space: pre;" transform="translate(1074,0)">100%</text></g></g><g class="yaxislayer-above"><g class="ytick"><text text-anchor="end" x="54" y="3.5" transform="translate(0,435)" style="font-family: system-ui, -apple-system, 'Segoe UI', Roboto, 'Helvetica Neue', 'Noto Sans', 'Liberation Sans', Arial, sans-serif, 'Apple Color Emoji', 'Segoe UI Emoji', 'Segoe UI Symbol', 'Noto Color Emoji'; font-size: 10px; fill: rgb(80, 80, 80); fill-opacity: 1; white-space: pre;">0%</text></g><g class="ytick"><text text-anchor="end" x="54" y="3.5" style="font-family: system-ui, -apple-system, 'Segoe UI', Roboto, 'Helvetica Neue', 'Noto Sans', 'Liberation Sans', Arial, sans-serif, 'Apple Color Emoji', 'Segoe UI Emoji', 'Segoe UI Symbol', 'Noto Color Emoji'; font-size: 10px; fill: rgb(80, 80, 80); fill-opacity: 1; white-space: pre;" transform="translate(0,378.09)">0.5%</text></g><g class="ytick"><text text-anchor="end" x="54" y="3.5" style="font-family: system-ui, -apple-system, 'Segoe UI', Roboto, 'Helvetica Neue', 'Noto Sans', 'Liberation Sans', Arial, sans-serif, 'Apple Color Emoji', 'Segoe UI Emoji', 'Segoe UI Symbol', 'Noto Color Emoji'; font-size: 10px; fill: rgb(80, 80, 80); fill-opacity: 1; white-space: pre;" transform="translate(0,321.18)">1%</text></g><g class="ytick"><text text-anchor="end" x="54" y="3.5" style="font-family: system-ui, -apple-system, 'Segoe UI', Roboto, 'Helvetica Neue', 'Noto Sans', 'Liberation Sans', Arial, sans-serif, 'Apple Color Emoji', 'Segoe UI Emoji', 'Segoe UI Symbol', 'Noto Color Emoji'; font-size: 10px; fill: rgb(80, 80, 80); fill-opacity: 1; white-space: pre;" transform="translate(0,264.28)">1.5%</text></g><g class="ytick"><text text-anchor="end" x="54" y="3.5" style="font-family: system-ui, -apple-system, 'Segoe UI', Roboto, 'Helvetica Neue', 'Noto Sans', 'Liberation Sans', Arial, sans-serif, 'Apple Color Emoji', 'Segoe UI Emoji', 'Segoe UI Symbol', 'Noto Color Emoji'; font-size: 10px; fill: rgb(80, 80, 80); fill-opacity: 1; white-space: pre;" transform="translate(0,207.37)">2%</text></g><g class="ytick"><text text-anchor="end" x="54" y="3.5" style="font-family: system-ui, -apple-system, 'Segoe UI', Roboto, 'Helvetica Neue', 'Noto Sans', 'Liberation Sans', Arial, sans-serif, 'Apple Color Emoji', 'Segoe UI Emoji', 'Segoe UI Symbol', 'Noto Color Emoji'; font-size: 10px; fill: rgb(80, 80, 80); fill-opacity: 1; white-space: pre;" transform="translate(0,150.45999999999998)">2.5%</text></g><g class="ytick"><text text-anchor="end" x="54" y="3.5" style="font-family: system-ui, -apple-system, 'Segoe UI', Roboto, 'Helvetica Neue', 'Noto Sans', 'Liberation Sans', Arial, sans-serif, 'Apple Color Emoji', 'Segoe UI Emoji', 'Segoe UI Symbol', 'Noto Color Emoji'; font-size: 10px; fill: rgb(80, 80, 80); fill-opacity: 1; white-space: pre;" transform="translate(0,93.55)">3%</text></g></g><g class="overaxes-above"/></g></g><g class="polarlayer"/><g class="smithlayer"/><g class="ternarylayer"/><g class="geolayer"/><g class="funnelarealayer"/><g class="pielayer"/><g class="iciclelayer"/><g class="treemaplayer"/><g class="sunburstlayer"/><g class="glimages"/><defs id="topdefs-fb602c"><g class="clips"/></defs><g class="layer-above"><g class="imagelayer"/><g class="shapelayer"/></g><g class="infolayer"><g class="g-gtitle"><text class="gtitle" x="550" y="25" text-anchor="middle" dy="0em" style="opacity: 1; font-family: system-ui, -apple-system, 'Segoe UI', Roboto, 'Helvetica Neue', 'Noto Sans', 'Liberation Sans', Arial, sans-serif, 'Apple Color Emoji', 'Segoe UI Emoji', 'Segoe UI Symbol', 'Noto Color Emoji'; font-size: 20px; fill: rgb(60, 60, 60); fill-opacity: 1; white-space: pre;"><tspan class="line" dy="0em" x="550" y="25">FastQC: Per Sequence GC Content</tspan><tspan class="line" dy="1.3em" x="550" y="25">​<tspan style="font-size:70%" dy="-0.6em">Percentages, 16 lines</tspan><tspan dy="0.42em">​</tspan></tspan></text></g><g class="g-xtitle"><text class="xtitle" x="567" y="487" text-anchor="middle" style="opacity: 1; font-family: system-ui, -apple-system, 'Segoe UI', Roboto, 'Helvetica Neue', 'Noto Sans', 'Liberation Sans', Arial, sans-serif, 'Apple Color Emoji', 'Segoe UI Emoji', 'Segoe UI Symbol', 'Noto Color Emoji'; font-size: 14px; fill: rgb(100, 100, 100); fill-opacity: 1; white-space: pre;">% GC</text></g><g class="g-ytitle"><text class="ytitle" transform="rotate(-90,22,242.5)" x="22" y="242.5" text-anchor="middle" style="opacity: 1; font-family: system-ui, -apple-system, 'Segoe UI', Roboto, 'Helvetica Neue', 'Noto Sans', 'Liberation Sans', Arial, sans-serif, 'Apple Color Emoji', 'Segoe UI Emoji', 'Segoe UI Symbol', 'Noto Color Emoji'; font-size: 14px; fill: rgb(100, 100, 100); fill-opacity: 1; white-space: pre;">Percentage</text></g></g></svg>