<svg class="main-svg" xmlns="http://www.w3.org/2000/svg" xmlns:xlink="http://www.w3.org/1999/xlink" width="2200" height="1000" style="" viewBox="0 0 1100 500"><rect x="0" y="0" width="1100" height="500" style="fill: rgb(255, 255, 255); fill-opacity: 1;"/><defs id="defs-60a265"><g class="clips"><clipPath id="clip60a265xyplot" class="plotclip"><rect width="1025" height="385"/></clipPath><clipPath class="axesclip" id="clip60a265x"><rect x="60" y="0" width="1025" height="500"/></clipPath><clipPath class="axesclip" id="clip60a265y"><rect x="0" y="50" width="1100" height="385"/></clipPath><clipPath class="axesclip" id="clip60a265xy"><rect x="60" y="50" width="1025" height="385"/></clipPath></g><g class="gradients"/><g class="patterns"/></defs><g class="bglayer"/><g class="layer-below"><g class="imagelayer"/><g class="shapelayer"><g class="shape-group" data-index="0" clip-path="url(#clip60a265y)"><path data-index="0" fill-rule="evenodd" d="M60,179H1085V-479.27H60Z" style="opacity: 0.13; stroke: rgb(0, 0, 0); stroke-opacity: 0; fill: rgb(0, 149, 0); fill-opacity: 1; stroke-width: 0px;"/></g><g class="shape-group" data-index="1" clip-path="url(#clip60a265y)"><path data-index="1" fill-rule="evenodd" d="M60,252.15H1085V179H60Z" style="opacity: 0.13; stroke: rgb(0, 0, 0); stroke-opacity: 0; fill: rgb(160, 115, 0); fill-opacity: 1; stroke-width: 0px;"/></g><g class="shape-group" data-index="2" clip-path="url(#clip60a265y)"><path data-index="2" fill-rule="evenodd" d="M60,435H1085V252.15H60Z" style="opacity: 0.13; stroke: rgb(0, 0, 0); stroke-opacity: 0; fill: rgb(153, 1, 1); fill-opacity: 1; stroke-width: 0px;"/></g><g class="shape-group" data-index="3" clip-path="url(#clip60a265y)"><path data-index="3" fill-rule="evenodd" d="M60,179H1085V-479.27H60Z" style="opacity: 0.13; stroke: rgb(0, 0, 0); stroke-opacity: 0; fill: rgb(0, 149, 0); fill-opacity: 1; stroke-width: 0px;"/></g><g class="shape-group" data-index="4" clip-path="url(#clip60a265y)"><path data-index="4" fill-rule="evenodd" d="M60,252.15H1085V179H60Z" style="opacity: 0.13; stroke: rgb(0, 0, 0); stroke-opacity: 0; fill: rgb(160, 115, 0); fill-opacity: 1; stroke-width: 0px;"/></g><g class="shape-group" data-index="5" clip-path="url(#clip60a265y)"><path data-index="5" fill-rule="evenodd" d="M60,435H1085V252.15H60Z" style="opacity: 0.13; stroke: rgb(0, 0, 0); stroke-opacity: 0; fill: rgb(153, 1, 1); fill-opacity: 1; stroke-width: 0px;"/></g></g></g><g class="cartesianlayer"><g class="subplot xy"><g class="layer-subplot"><g class="shapelayer"/><g class="imagelayer"/></g><g class="minor-gridlayer"><g class="x"/><g class="y"/></g><g class="gridlayer"><g class="x"><path class="xgrid crisp" transform="translate(222.7,0)" d="M0,50v385" style="stroke: rgb(128, 128, 128); stroke-opacity: 0.15; stroke-width: 1px;"/><path class="xgrid crisp" transform="translate(385.4,0)" d="M0,50v385" style="stroke: rgb(128, 128, 128); stroke-opacity: 0.15; stroke-width: 1px;"/><path class="xgrid crisp" transform="translate(548.1,0)" d="M0,50v385" style="stroke: rgb(128, 128, 128); stroke-opacity: 0.15; stroke-width: 1px;"/><path class="xgrid crisp" transform="translate(710.79,0)" d="M0,50v385" style="stroke: rgb(128, 128, 128); stroke-opacity: 0.15; stroke-width: 1px;"/><path class="xgrid crisp" transform="translate(873.49,0)" d="M0,50v385" style="stroke: rgb(128, 128, 128); stroke-opacity: 0.15; stroke-width: 1px;"/><path class="xgrid crisp" transform="translate(1036.19,0)" d="M0,50v385" style="stroke: rgb(128, 128, 128); stroke-opacity: 0.15; stroke-width: 1px;"/></g><g class="y"><path class="ygrid crisp" transform="translate(0,389.29)" d="M60,0h1025" style="stroke: rgb(128, 128, 128); stroke-opacity: 0.15; stroke-width: 1px;"/><path class="ygrid crisp" transform="translate(0,343.57)" d="M60,0h1025" style="stroke: rgb(128, 128, 128); stroke-opacity: 0.15; stroke-width: 1px;"/><path class="ygrid crisp" transform="translate(0,297.86)" d="M60,0h1025" style="stroke: rgb(128, 128, 128); stroke-opacity: 0.15; stroke-width: 1px;"/><path class="ygrid crisp" transform="translate(0,252.15)" d="M60,0h1025" style="stroke: rgb(128, 128, 128); stroke-opacity: 0.15; stroke-width: 1px;"/><path class="ygrid crisp" transform="translate(0,206.43)" d="M60,0h1025" style="stroke: rgb(128, 128, 128); stroke-opacity: 0.15; stroke-width: 1px;"/><path class="ygrid crisp" transform="translate(0,160.72)" d="M60,0h1025" style="stroke: rgb(128, 128, 128); stroke-opacity: 0.15; stroke-width: 1px;"/><path class="ygrid crisp" transform="translate(0,115)" d="M60,0h1025" style="stroke: rgb(128, 128, 128); stroke-opacity: 0.15; stroke-width: 1px;"/><path class="ygrid crisp" transform="translate(0,69.28999999999999)" d="M60,0h1025" style="stroke: rgb(128, 128, 128); stroke-opacity: 0.15; stroke-width: 1px;"/></g></g><g class="zerolinelayer"><path class="xzl zl crisp" transform="translate(60,0)" d="M0,50v385" style="stroke: rgb(128, 128, 128); stroke-opacity: 0.2; stroke-width: 1px;"/><path class="yzl zl crisp" transform="translate(0,435)" d="M60,0h1025" style="stroke: rgb(128, 128, 128); stroke-opacity: 0.2; stroke-width: 1px;"/></g><g class="layer-between"><g class="shapelayer"/><g class="imagelayer"/></g><path class="xlines-below"/><path class="ylines-below"/><g class="overlines-below"/><g class="xaxislayer-below"/><g class="yaxislayer-below"/><g class="overaxes-below"/><g class="overplot"><g class="xy" transform="translate(60,50)" clip-path="url(#clip60a265xyplot)"><g class="scatterlayer mlayer"><g class="trace scatter traceda7e3f" style="stroke-miterlimit: 2; opacity: 1;"><g class="fills"/><g class="errorbars"/><g class="lines"><path class="js-line" d="M16.27,34.88L32.54,19.6L48.81,19.13L113.89,18.33L130.16,19.27L146.43,19.08L162.7,19.82L178.97,21.71L195.24,21.42L211.51,20.96L227.78,22.16L309.13,28.68L325.4,28.26L357.94,28.5L374.21,29.53L406.75,28.72L423.02,27.92L439.29,29.03L455.56,28.67L488.1,29.02L504.37,29.56L520.63,31.7L536.9,32.06L553.17,33.46L569.44,33.32L585.71,34.84L601.98,35.08L618.25,33.96L634.52,33.84L667.06,34.88L683.33,36.7L715.87,38.04L732.14,39.11L748.41,39.94L764.68,41.62L780.95,43.59L797.22,44.64L829.76,46.76L846.03,49.12L862.3,50.21L878.57,52.31L943.65,58.7L959.92,60.77L976.19,63.95L992.46,65.95L1008.73,67.86L1025,75.35" style="vector-effect: none; fill: none; stroke: rgb(92, 184, 92); stroke-opacity: 1; stroke-width: 2px; opacity: 1;"/></g><g class="points"/><g class="text"/></g><g class="trace scatter tracea5816f" style="stroke-miterlimit: 2; opacity: 1;"><g class="fills"/><g class="errorbars"/><g class="lines"><path class="js-line" d="M16.27,35.69L32.54,20.58L48.81,21.23L65.08,20.58L81.35,21.08L130.16,21.78L146.43,73.19L162.7,55.21L178.97,35.71L195.24,28.09L211.51,25.96L244.05,24.82L260.32,24.06L309.13,25.48L325.4,26.64L341.67,24.96L357.94,24.72L374.21,24.66L390.48,26.28L423.02,26.08L439.29,26.62L520.63,29.4L536.9,29.31L569.44,29.14L585.71,29.77L618.25,31.2L634.52,46.13L650.79,40.23L667.06,37.07L683.33,35.67L699.6,36.01L764.68,41.07L780.95,43.28L846.03,49.86L862.3,53.08L911.11,58.32L927.38,60.41L943.65,62.74L959.92,62.75L976.19,64.73L992.46,65.69L1008.73,68.16L1025,75.34" style="vector-effect: none; fill: none; stroke: rgb(92, 184, 92); stroke-opacity: 1; stroke-width: 2px; opacity: 1;"/></g><g class="points"/><g class="text"/></g><g class="trace scatter trace202f78" style="stroke-miterlimit: 2; opacity: 1;"><g class="fills"/><g class="errorbars"/><g class="lines"><path class="js-line" d="M16.27,34.99L32.54,19.73L48.81,19.25L113.89,18.44L130.16,19.36L146.43,19.21L162.7,20.1L178.97,21.81L195.24,21.66L211.51,21.27L227.78,22.5L309.13,29.02L325.4,28.71L357.94,28.83L374.21,29.88L406.75,28.92L423.02,28.12L439.29,29.32L455.56,28.9L504.37,30.18L520.63,32.09L536.9,32.48L553.17,33.99L569.44,33.79L585.71,35.3L601.98,35.51L618.25,34.36L650.79,34.78L667.06,35.52L683.33,37.16L699.6,37.63L748.41,40.3L764.68,42.06L780.95,43.96L797.22,45.01L829.76,47.42L846.03,49.98L862.3,51.06L878.57,53.07L959.92,62.24L976.19,65.55L1008.73,70.14L1025,77.6" style="vector-effect: none; fill: none; stroke: rgb(92, 184, 92); stroke-opacity: 1; stroke-width: 2px; opacity: 1;"/></g><g class="points"/><g class="text"/></g><g class="trace scatter tracee08375" style="stroke-miterlimit: 2; opacity: 1;"><g class="fills"/><g class="errorbars"/><g class="lines"><path class="js-line" d="M16.27,40.04L32.54,25.99L48.81,26.52L65.08,25.91L81.35,26.55L97.62,26.56L113.89,27.39L130.16,27.58L146.43,77.38L178.97,40.09L195.24,33.54L227.78,30.07L244.05,30.13L260.32,29.23L276.59,30.11L292.86,31.74L309.13,31.31L325.4,31.97L341.67,30.48L357.94,29.95L374.21,30.36L390.48,31.66L406.75,31.13L455.56,32.64L471.83,31.76L488.1,33.21L504.37,33.59L536.9,34.16L553.17,33.59L601.98,34.16L618.25,35.42L634.52,50.13L650.79,44.71L667.06,41.4L683.33,39.82L699.6,40.21L715.87,41.4L764.68,45.2L780.95,47.22L813.49,50.04L829.76,51.72L846.03,53.38L862.3,56.63L943.65,66.53L959.92,66.52L976.19,68.55L992.46,69.47L1008.73,71.88L1025,79.18" style="vector-effect: none; fill: none; stroke: rgb(92, 184, 92); stroke-opacity: 1; stroke-width: 2px; opacity: 1;"/></g><g class="points"/><g class="text"/></g><g class="trace scatter trace717ab5" style="stroke-miterlimit: 2; opacity: 1;"><g class="fills"/><g class="errorbars"/><g class="lines"><path class="js-line" d="M16.27,36.71L32.54,22.31L48.81,23.3L65.08,23.44L81.35,22.5L146.43,23.71L162.7,25.48L211.51,24.25L227.78,24.72L276.59,27.08L292.86,27.31L309.13,27.96L325.4,27.4L374.21,27.46L390.48,28.89L439.29,29.24L455.56,30.21L504.37,32.46L520.63,33.26L536.9,33.5L553.17,35.42L601.98,36.93L618.25,38.49L634.52,38.98L650.79,40.75L667.06,42.09L683.33,42.67L780.95,50.97L797.22,55.03L846.03,58.1L862.3,60.23L943.65,70.81L959.92,72.11L992.46,76.95L1008.73,79.65L1025,97.44" style="vector-effect: none; fill: none; stroke: rgb(92, 184, 92); stroke-opacity: 1; stroke-width: 2px; opacity: 1;"/></g><g class="points"/><g class="text"/></g><g class="trace scatter trace97bf4c" style="stroke-miterlimit: 2; opacity: 1;"><g class="fills"/><g class="errorbars"/><g class="lines"><path class="js-line" d="M16.27,38.02L32.54,23.95L48.81,24.24L113.89,24.95L130.16,25.65L227.78,29.21L244.05,31.61L260.32,29.66L276.59,29.92L325.4,31.06L341.67,29.96L406.75,30.55L423.02,31.2L488.1,33.73L504.37,33.96L601.98,39.96L618.25,40.93L634.52,57.45L650.79,51.27L667.06,48.02L683.33,45.57L715.87,45.8L732.14,47.22L748.41,48.07L764.68,49.72L846.03,57.74L862.3,59.73L911.11,64.81L927.38,66.94L943.65,69.35L959.92,70.99L976.19,72.95L992.46,75.74L1008.73,77.76L1025,91.46" style="vector-effect: none; fill: none; stroke: rgb(92, 184, 92); stroke-opacity: 1; stroke-width: 2px; opacity: 1;"/></g><g class="points"/><g class="text"/></g><g class="trace scatter trace4f3916" style="stroke-miterlimit: 2; opacity: 1;"><g class="fills"/><g class="errorbars"/><g class="lines"><path class="js-line" d="M16.27,39.72L32.54,26.61L48.81,27.71L65.08,28.32L81.35,27.13L97.62,27.62L113.89,27.15L146.43,27.55L162.7,29.17L195.24,29.08L211.51,28.84L260.32,30.74L276.59,31.57L292.86,32.15L309.13,33.94L325.4,32.58L341.67,32.68L374.21,33.06L390.48,33.99L423.02,34.06L439.29,35.06L455.56,36.28L471.83,36.25L504.37,38.09L520.63,37.96L536.9,38.26L553.17,41.11L569.44,40.82L585.71,41.71L601.98,44.8L618.25,44.04L634.52,43.99L650.79,46.09L667.06,48.32L683.33,49.03L699.6,48.55L715.87,49.17L732.14,51.23L748.41,54.95L764.68,55.29L780.95,56.39L797.22,61.68L813.49,63.51L862.3,65.08L878.57,66.81L894.84,68.72L911.11,72.24L927.38,75.42L943.65,76.73L959.92,78.72L976.19,81.8L992.46,84.71L1008.73,86.67L1025,102.53" style="vector-effect: none; fill: none; stroke: rgb(92, 184, 92); stroke-opacity: 1; stroke-width: 2px; opacity: 1;"/></g><g class="points"/><g class="text"/></g><g class="trace scatter trace89b718" style="stroke-miterlimit: 2; opacity: 1;"><g class="fills"/><g class="errorbars"/><g class="lines"><path class="js-line" d="M16.27,42.71L32.54,30.79L48.81,30L146.43,32.21L162.7,34.1L195.24,35.49L211.51,35.03L227.78,37.36L244.05,37.63L260.32,36.12L276.59,36.45L292.86,37.46L309.13,37.42L325.4,38.54L341.67,36.84L357.94,38.9L374.21,37.34L406.75,39.31L423.02,39.08L455.56,39.08L471.83,40.86L504.37,41.98L520.63,42.23L569.44,44.58L585.71,46.24L601.98,46.77L618.25,48.2L634.52,65.11L650.79,58.94L667.06,54.29L683.33,52.44L732.14,54.78L748.41,56.31L780.95,58.37L797.22,60.03L813.49,61.16L829.76,63.07L846.03,64.1L862.3,67.62L878.57,69.95L894.84,71.1L911.11,72.41L927.38,75.1L976.19,82.07L992.46,85.56L1008.73,89.09L1025,102.07" style="vector-effect: none; fill: none; stroke: rgb(92, 184, 92); stroke-opacity: 1; stroke-width: 2px; opacity: 1;"/></g><g class="points"/><g class="text"/></g><g class="trace scatter tracebcc05b" style="stroke-miterlimit: 2; opacity: 1;"><g class="fills"/><g class="errorbars"/><g class="lines"><path class="js-line" d="M16.27,40.8L32.54,26.62L48.81,26.7L65.08,27.14L81.35,26.61L130.16,26.51L146.43,27.15L178.97,27.83L195.24,30.12L211.51,29.16L227.78,29L309.13,31.97L325.4,31.13L374.21,32.02L390.48,34.05L423.02,32.96L439.29,33.48L471.83,34.84L488.1,35.43L504.37,38.13L520.63,38.11L536.9,38.2L553.17,39.19L585.71,40.88L601.98,42.61L667.06,46.83L683.33,47.87L715.87,49.98L732.14,52.47L780.95,59.27L797.22,61.15L829.76,64.39L846.03,67.33L862.3,70.44L878.57,70L894.84,73.45L911.11,74.95L943.65,77.59L959.92,80.39L976.19,83.2L992.46,87.43L1008.73,88.41L1025,103.93" style="vector-effect: none; fill: none; stroke: rgb(92, 184, 92); stroke-opacity: 1; stroke-width: 2px; opacity: 1;"/></g><g class="points"/><g class="text"/></g><g class="trace scatter trace47ae25" style="stroke-miterlimit: 2; opacity: 1;"><g class="fills"/><g class="errorbars"/><g class="lines"><path class="js-line" d="M16.27,42.08L32.54,28.98L48.81,29.23L97.62,30.16L113.89,30.44L146.43,33.09L162.7,32.35L178.97,34.96L195.24,34.26L211.51,35.92L227.78,36.25L276.59,36.79L292.86,36.81L325.4,37.72L341.67,35.88L357.94,36.54L374.21,35.93L406.75,37.67L423.02,37.28L439.29,37.71L455.56,39L520.63,41.68L536.9,43.38L569.44,44.83L585.71,46.09L601.98,46.71L618.25,49.73L634.52,65.62L650.79,58.01L667.06,53.75L683.33,52.41L748.41,55.3L764.68,56.41L780.95,58.07L797.22,61L813.49,61.92L829.76,63.72L846.03,65.61L862.3,66.39L894.84,71.4L911.11,72.9L943.65,77.33L959.92,83.39L992.46,85.51L1008.73,88L1025,101.8" style="vector-effect: none; fill: none; stroke: rgb(92, 184, 92); stroke-opacity: 1; stroke-width: 2px; opacity: 1;"/></g><g class="points"/><g class="text"/></g><g class="trace scatter tracef44a45" style="stroke-miterlimit: 2; opacity: 1;"><g class="fills"/><g class="errorbars"/><g class="lines"><path class="js-line" d="M16.27,41.49L32.54,27.74L48.81,27.57L65.08,28.06L81.35,27.4L130.16,27.46L146.43,28.22L178.97,28.96L195.24,31L211.51,30.12L227.78,30.15L309.13,33.42L325.4,32.53L357.94,32.91L374.21,33.29L390.48,35.66L406.75,35.17L423.02,34.56L439.29,35.06L488.1,37.29L504.37,39.8L536.9,39.95L553.17,40.8L585.71,42.5L601.98,44.23L715.87,51.78L732.14,54.32L764.68,59.05L780.95,61.18L829.76,66.14L846.03,68.95L862.3,71.95L878.57,71.9L894.84,74.94L911.11,76.46L959.92,82.16L976.19,84.81L992.46,88.88L1008.73,89.97L1025,106.05" style="vector-effect: none; fill: none; stroke: rgb(92, 184, 92); stroke-opacity: 1; stroke-width: 2px; opacity: 1;"/></g><g class="points"/><g class="text"/></g><g class="trace scatter trace47861d" style="stroke-miterlimit: 2; opacity: 1;"><g class="fills"/><g class="errorbars"/><g class="lines"><path class="js-line" d="M16.27,41.51L32.54,28.48L48.81,28.68L97.62,29.69L113.89,29.92L146.43,32.57L162.7,31.99L178.97,34.66L195.24,33.88L211.51,35.35L227.78,35.72L325.4,37.3L341.67,35.45L357.94,36.14L374.21,35.65L406.75,37.3L423.02,36.98L455.56,38.76L471.83,39.44L504.37,40.6L520.63,41.62L536.9,43.21L553.17,43.68L601.98,46.71L618.25,49.77L634.52,65.56L650.79,57.95L667.06,53.83L683.33,52.49L732.14,54.67L748.41,55.28L780.95,58.04L797.22,60.84L813.49,61.85L829.76,63.72L846.03,65.55L862.3,66.29L943.65,77.11L959.92,82.88L992.46,85.32L1008.73,87.82L1025,101.78" style="vector-effect: none; fill: none; stroke: rgb(92, 184, 92); stroke-opacity: 1; stroke-width: 2px; opacity: 1;"/></g><g class="points"/><g class="text"/></g><g class="trace scatter trace186c9c" style="stroke-miterlimit: 2; opacity: 1;"><g class="fills"/><g class="errorbars"/><g class="lines"><path class="js-line" d="M16.27,39.71L32.54,26.61L48.81,27.3L65.08,27.58L81.35,26.77L113.89,27.66L130.16,27.64L146.43,27.69L162.7,28.9L178.97,29.59L195.24,28.99L211.51,28.96L227.78,29.72L292.86,32.5L309.13,33.74L325.4,32.87L341.67,32.86L423.02,34.26L439.29,35.15L455.56,36.31L471.83,36.49L504.37,39.25L520.63,39.57L536.9,39.17L553.17,41.94L569.44,41.76L585.71,42.4L601.98,45.34L618.25,44.91L634.52,45.05L650.79,46.87L667.06,48.85L683.33,49.74L715.87,50.51L732.14,52.34L748.41,55.27L764.68,56.15L780.95,57.52L797.22,61.51L813.49,64.5L829.76,65.93L846.03,65.59L862.3,66.04L894.84,70.32L911.11,73.35L927.38,76.37L943.65,77.94L959.92,79.86L976.19,82.65L992.46,85.65L1008.73,87.69L1025,103.23" style="vector-effect: none; fill: none; stroke: rgb(92, 184, 92); stroke-opacity: 1; stroke-width: 2px; opacity: 1;"/></g><g class="points"/><g class="text"/></g><g class="trace scatter trace56ba72" style="stroke-miterlimit: 2; opacity: 1;"><g class="fills"/><g class="errorbars"/><g class="lines"><path class="js-line" d="M16.27,41.82L32.54,29.37L48.81,29.29L113.89,30.01L130.16,30.77L178.97,34.76L195.24,34.7L244.05,36.52L260.32,35.49L309.13,36.59L325.4,37.83L341.67,36.33L357.94,37.59L374.21,36.45L390.48,37.27L423.02,38.23L439.29,38.94L455.56,38.68L471.83,40.09L553.17,43.93L569.44,44.75L585.71,46.43L601.98,46.8L618.25,48.11L634.52,65.11L650.79,59.34L667.06,54.49L683.33,52.79L699.6,53.82L732.14,55.3L748.41,56.62L780.95,58.87L797.22,60.45L813.49,61.88L829.76,64.26L846.03,65.13L862.3,67.79L894.84,72.16L911.11,73.04L992.46,85.29L1008.73,88.29L1025,101" style="vector-effect: none; fill: none; stroke: rgb(92, 184, 92); stroke-opacity: 1; stroke-width: 2px; opacity: 1;"/></g><g class="points"/><g class="text"/></g><g class="trace scatter trace7105da" style="stroke-miterlimit: 2; opacity: 1;"><g class="fills"/><g class="errorbars"/><g class="lines"><path class="js-line" d="M16.27,40.13L32.54,26.88L48.81,27.58L65.08,28.09L81.35,27.3L113.89,28.47L130.16,28.38L146.43,28.21L162.7,29.57L178.97,30.32L195.24,29.76L211.51,29.6L227.78,30.52L292.86,33.28L309.13,34.68L325.4,33.78L341.67,33.75L423.02,35.42L439.29,36.38L455.56,37.59L471.83,37.47L504.37,40.52L520.63,40.83L536.9,40.26L553.17,43.15L585.71,43.37L601.98,46.46L634.52,45.93L650.79,47.83L667.06,49.87L683.33,50.64L715.87,51.3L732.14,53.16L748.41,56.12L764.68,56.92L780.95,58.16L797.22,62.31L813.49,65.53L829.76,66.97L846.03,66.44L862.3,66.84L894.84,70.95L911.11,74.22L927.38,77.38L943.65,79.13L959.92,81.14L976.19,84.11L992.46,87.27L1008.73,89.31L1025,105.08" style="vector-effect: none; fill: none; stroke: rgb(92, 184, 92); stroke-opacity: 1; stroke-width: 2px; opacity: 1;"/></g><g class="points"/><g class="text"/></g><g class="trace scatter trace72f086" style="stroke-miterlimit: 2; opacity: 1;"><g class="fills"/><g class="errorbars"/><g class="lines"><path class="js-line" d="M16.27,43.1L32.54,30.7L48.81,30.42L113.89,31.26L130.16,32L178.97,35.95L195.24,35.97L211.51,36.49L227.78,37.85L244.05,37.85L260.32,36.6L309.13,37.85L325.4,39.11L341.67,37.47L357.94,38.91L374.21,37.76L390.48,38.63L406.75,39.61L423.02,39.7L439.29,40.39L455.56,40.04L488.1,42.2L504.37,42.79L520.63,43.1L536.9,44.25L618.25,49.35L634.52,66.34L667.06,55.81L683.33,54.11L780.95,60.17L797.22,61.73L813.49,63.18L829.76,65.57L846.03,66.33L862.3,69L894.84,73.45L911.11,74.29L992.46,86.65L1008.73,89.72L1025,102.56" style="vector-effect: none; fill: none; stroke: rgb(92, 184, 92); stroke-opacity: 1; stroke-width: 2px; opacity: 1;"/></g><g class="points"/><g class="text"/></g></g></g></g><g class="zerolinelayer-above"/><path class="xlines-above crisp" d="M0,0" style="fill: none;"/><path class="ylines-above crisp" d="M0,0" style="fill: none;"/><g class="overlines-above"/><g class="xaxislayer-above"><g class="xtick"><text text-anchor="middle" x="0" y="451" transform="translate(60,0)" style="font-family: system-ui, -apple-system, 'Segoe UI', Roboto, 'Helvetica Neue', 'Noto Sans', 'Liberation Sans', Arial, sans-serif, 'Apple Color Emoji', 'Segoe UI Emoji', 'Segoe UI Symbol', 'Noto Color Emoji'; font-size: 10px; fill: rgb(80, 80, 80); fill-opacity: 1; white-space: pre;">0 bp</text></g><g class="xtick"><text text-anchor="middle" x="0" y="451" style="font-family: system-ui, -apple-system, 'Segoe UI', Roboto, 'Helvetica Neue', 'Noto Sans', 'Liberation Sans', Arial, sans-serif, 'Apple Color Emoji', 'Segoe UI Emoji', 'Segoe UI Symbol', 'Noto Color Emoji'; font-size: 10px; fill: rgb(80, 80, 80); fill-opacity: 1; white-space: pre;" transform="translate(222.7,0)">10 bp</text></g><g class="xtick"><text text-anchor="middle" x="0" y="451" style="font-family: system-ui, -apple-system, 'Segoe UI', Roboto, 'Helvetica Neue', 'Noto Sans', 'Liberation Sans', Arial, sans-serif, 'Apple Color Emoji', 'Segoe UI Emoji', 'Segoe UI Symbol', 'Noto Color Emoji'; font-size: 10px; fill: rgb(80, 80, 80); fill-opacity: 1; white-space: pre;" transform="translate(385.4,0)">20 bp</text></g><g class="xtick"><text text-anchor="middle" x="0" y="451" style="font-family: system-ui, -apple-system, 'Segoe UI', Roboto, 'Helvetica Neue', 'Noto Sans', 'Liberation Sans', Arial, sans-serif, 'Apple Color Emoji', 'Segoe UI Emoji', 'Segoe UI Symbol', 'Noto Color Emoji'; font-size: 10px; fill: rgb(80, 80, 80); fill-opacity: 1; white-space: pre;" transform="translate(548.1,0)">30 bp</text></g><g class="xtick"><text text-anchor="middle" x="0" y="451" style="font-family: system-ui, -apple-system, 'Segoe UI', Roboto, 'Helvetica Neue', 'Noto Sans', 'Liberation Sans', Arial, sans-serif, 'Apple Color Emoji', 'Segoe UI Emoji', 'Segoe UI Symbol', 'Noto Color Emoji'; font-size: 10px; fill: rgb(80, 80, 80); fill-opacity: 1; white-space: pre;" transform="translate(710.79,0)">40 bp</text></g><g class="xtick"><text text-anchor="middle" x="0" y="451" style="font-family: system-ui, -apple-system, 'Segoe UI', Roboto, 'Helvetica Neue', 'Noto Sans', 'Liberation Sans', Arial, sans-serif, 'Apple Color Emoji', 'Segoe UI Emoji', 'Segoe UI Symbol', 'Noto Color Emoji'; font-size: 10px; fill: rgb(80, 80, 80); fill-opacity: 1; white-space: pre;" transform="translate(873.49,0)">50 bp</text></g><g class="xtick"><text text-anchor="middle" x="0" y="451" style="font-family: system-ui, -apple-system, 'Segoe UI', Roboto, 'Helvetica Neue', 'Noto Sans', 'Liberation Sans', Arial, sans-serif, 'Apple Color Emoji', 'Segoe UI Emoji', 'Segoe UI Symbol', 'Noto Color Emoji'; font-size: 10px; fill: rgb(80, 80, 80); fill-opacity: 1; white-space: pre;" transform="translate(1036.19,0)">60 bp</text></g></g><g class="yaxislayer-above"><g class="ytick"><text text-anchor="end" x="54" y="3.5" transform="translate(0,435)" style="font-family: system-ui, -apple-system, 'Segoe UI', Roboto, 'Helvetica Neue', 'Noto Sans', 'Liberation Sans', Arial, sans-serif, 'Apple Color Emoji', 'Segoe UI Emoji', 'Segoe UI Symbol', 'Noto Color Emoji'; font-size: 10px; fill: rgb(80, 80, 80); fill-opacity: 1; white-space: pre;">0</text></g><g class="ytick"><text text-anchor="end" x="54" y="3.5" style="font-family: system-ui, -apple-system, 'Segoe UI', Roboto, 'Helvetica Neue', 'Noto Sans', 'Liberation Sans', Arial, sans-serif, 'Apple Color Emoji', 'Segoe UI Emoji', 'Segoe UI Symbol', 'Noto Color Emoji'; font-size: 10px; fill: rgb(80, 80, 80); fill-opacity: 1; white-space: pre;" transform="translate(0,389.29)">5</text></g><g class="ytick"><text text-anchor="end" x="54" y="3.5" style="font-family: system-ui, -apple-system, 'Segoe UI', Roboto, 'Helvetica Neue', 'Noto Sans', 'Liberation Sans', Arial, sans-serif, 'Apple Color Emoji', 'Segoe UI Emoji', 'Segoe UI Symbol', 'Noto Color Emoji'; font-size: 10px; fill: rgb(80, 80, 80); fill-opacity: 1; white-space: pre;" transform="translate(0,343.57)">10</text></g><g class="ytick"><text text-anchor="end" x="54" y="3.5" style="font-family: system-ui, -apple-system, 'Segoe UI', Roboto, 'Helvetica Neue', 'Noto Sans', 'Liberation Sans', Arial, sans-serif, 'Apple Color Emoji', 'Segoe UI Emoji', 'Segoe UI Symbol', 'Noto Color Emoji'; font-size: 10px; fill: rgb(80, 80, 80); fill-opacity: 1; white-space: pre;" transform="translate(0,297.86)">15</text></g><g class="ytick"><text text-anchor="end" x="54" y="3.5" style="font-family: system-ui, -apple-system, 'Segoe UI', Roboto, 'Helvetica Neue', 'Noto Sans', 'Liberation Sans', Arial, sans-serif, 'Apple Color Emoji', 'Segoe UI Emoji', 'Segoe UI Symbol', 'Noto Color Emoji'; font-size: 10px; fill: rgb(80, 80, 80); fill-opacity: 1; white-space: pre;" transform="translate(0,252.15)">20</text></g><g class="ytick"><text text-anchor="end" x="54" y="3.5" style="font-family: system-ui, -apple-system, 'Segoe UI', Roboto, 'Helvetica Neue', 'Noto Sans', 'Liberation Sans', Arial, sans-serif, 'Apple Color Emoji', 'Segoe UI Emoji', 'Segoe UI Symbol', 'Noto Color Emoji'; font-size: 10px; fill: rgb(80, 80, 80); fill-opacity: 1; white-space: pre;" transform="translate(0,206.43)">25</text></g><g class="ytick"><text text-anchor="end" x="54" y="3.5" style="font-family: system-ui, -apple-system, 'Segoe UI', Roboto, 'Helvetica Neue', 'Noto Sans', 'Liberation Sans', Arial, sans-serif, 'Apple Color Emoji', 'Segoe UI Emoji', 'Segoe UI Symbol', 'Noto Color Emoji'; font-size: 10px; fill: rgb(80, 80, 80); fill-opacity: 1; white-space: pre;" transform="translate(0,160.72)">30</text></g><g class="ytick"><text text-anchor="end" x="54" y="3.5" style="font-family: system-ui, -apple-system, 'Segoe UI', Roboto, 'Helvetica Neue', 'Noto Sans', 'Liberation Sans', Arial, sans-serif, 'Apple Color Emoji', 'Segoe UI Emoji', 'Segoe UI Symbol', 'Noto Color Emoji'; font-size: 10px; fill: rgb(80, 80, 80); fill-opacity: 1; white-space: pre;" transform="translate(0,115)">35</text></g><g class="ytick"><text text-anchor="end" x="54" y="3.5" style="font-family: system-ui, -apple-system, 'Segoe UI', Roboto, 'Helvetica Neue', 'Noto Sans', 'Liberation Sans', Arial, sans-serif, 'Apple Color Emoji', 'Segoe UI Emoji', 'Segoe UI Symbol', 'Noto Color Emoji'; font-size: 10px; fill: rgb(80, 80, 80); fill-opacity: 1; white-space: pre;" transform="translate(0,69.28999999999999)">40</text></g></g><g class="overaxes-above"/></g></g><g class="polarlayer"/><g class="smithlayer"/><g class="ternarylayer"/><g class="geolayer"/><g class="funnelarealayer"/><g class="pielayer"/><g class="iciclelayer"/><g class="treemaplayer"/><g class="sunburstlayer"/><g class="glimages"/><defs id="topdefs-60a265"><g class="clips"/></defs><g class="layer-above"><g class="imagelayer"/><g class="shapelayer"/></g><g class="infolayer"><g class="g-gtitle"><text class="gtitle" x="550" y="25" text-anchor="middle" dy="0em" style="opacity: 1; font-family: system-ui, -apple-system, 'Segoe UI', Roboto, 'Helvetica Neue', 'Noto Sans', 'Liberation Sans', Arial, sans-serif, 'Apple Color Emoji', 'Segoe UI Emoji', 'Segoe UI Symbol', 'Noto Color Emoji'; font-size: 20px; fill: rgb(60, 60, 60); fill-opacity: 1; white-space: pre;"><tspan class="line" dy="0em" x="550" y="25">FastQC: Mean Quality Scores</tspan><tspan class="line" dy="1.3em" x="550" y="25">​<tspan style="font-size:70%" dy="-0.6em">16 lines</tspan><tspan dy="0.42em">​</tspan></tspan></text></g><g class="g-xtitle"><text class="xtitle" x="572.5" y="487" text-anchor="middle" style="opacity: 1; font-family: system-ui, -apple-system, 'Segoe UI', Roboto, 'Helvetica Neue', 'Noto Sans', 'Liberation Sans', Arial, sans-serif, 'Apple Color Emoji', 'Segoe UI Emoji', 'Segoe UI Symbol', 'Noto Color Emoji'; font-size: 14px; fill: rgb(100, 100, 100); fill-opacity: 1; white-space: pre;">Position (bp)</text></g><g class="g-ytitle"><text class="ytitle" transform="rotate(-90,22,242.5)" x="22" y="242.5" text-anchor="middle" style="opacity: 1; font-family: system-ui, -apple-system, 'Segoe UI', Roboto, 'Helvetica Neue', 'Noto Sans', 'Liberation Sans', Arial, sans-serif, 'Apple Color Emoji', 'Segoe UI Emoji', 'Segoe UI Symbol', 'Noto Color Emoji'; font-size: 14px; fill: rgb(100, 100, 100); fill-opacity: 1; white-space: pre;">Phred Score</text></g></g></svg>