<svg class="main-svg" xmlns="http://www.w3.org/2000/svg" xmlns:xlink="http://www.w3.org/1999/xlink" width="2200" height="1000" style="" viewBox="0 0 1100 500"><rect x="0" y="0" width="1100" height="500" style="fill: rgb(255, 255, 255); fill-opacity: 1;"/><defs id="defs-70fa26"><g class="clips"><clipPath id="clip70fa26xyplot" class="plotclip"><rect width="1014" height="385"/></clipPath><clipPath class="axesclip" id="clip70fa26x"><rect x="60" y="0" width="1014" height="500"/></clipPath><clipPath class="axesclip" id="clip70fa26y"><rect x="0" y="50" width="1100" height="385"/></clipPath><clipPath class="axesclip" id="clip70fa26xy"><rect x="60" y="50" width="1014" height="385"/></clipPath></g><g class="gradients"/><g class="patterns"/></defs><g class="bglayer"/><g class="layer-below"><g class="imagelayer"/><g class="shapelayer"/></g><g class="cartesianlayer"><g class="subplot xy"><g class="layer-subplot"><g class="shapelayer"/><g class="imagelayer"/></g><g class="minor-gridlayer"><g class="x"/><g class="y"/></g><g class="gridlayer"><g class="x"><path class="xgrid crisp" transform="translate(262.8,0)" d="M0,50v385" style="stroke: rgb(128, 128, 128); stroke-opacity: 0.15; stroke-width: 1px;"/><path class="xgrid crisp" transform="translate(465.6,0)" d="M0,50v385" style="stroke: rgb(128, 128, 128); stroke-opacity: 0.15; stroke-width: 1px;"/><path class="xgrid crisp" transform="translate(668.4,0)" d="M0,50v385" style="stroke: rgb(128, 128, 128); stroke-opacity: 0.15; stroke-width: 1px;"/><path class="xgrid crisp" transform="translate(871.2,0)" d="M0,50v385" style="stroke: rgb(128, 128, 128); stroke-opacity: 0.15; stroke-width: 1px;"/></g><g class="y"><path class="ygrid crisp" transform="translate(0,392.69)" d="M60,0h1014" style="stroke: rgb(128, 128, 128); stroke-opacity: 0.15; stroke-width: 1px;"/><path class="ygrid crisp" transform="translate(0,350.37)" d="M60,0h1014" style="stroke: rgb(128, 128, 128); stroke-opacity: 0.15; stroke-width: 1px;"/><path class="ygrid crisp" transform="translate(0,308.06)" d="M60,0h1014" style="stroke: rgb(128, 128, 128); stroke-opacity: 0.15; stroke-width: 1px;"/><path class="ygrid crisp" transform="translate(0,265.74)" d="M60,0h1014" style="stroke: rgb(128, 128, 128); stroke-opacity: 0.15; stroke-width: 1px;"/><path class="ygrid crisp" transform="translate(0,223.43)" d="M60,0h1014" style="stroke: rgb(128, 128, 128); stroke-opacity: 0.15; stroke-width: 1px;"/><path class="ygrid crisp" transform="translate(0,181.11)" d="M60,0h1014" style="stroke: rgb(128, 128, 128); stroke-opacity: 0.15; stroke-width: 1px;"/><path class="ygrid crisp" transform="translate(0,138.8)" d="M60,0h1014" style="stroke: rgb(128, 128, 128); stroke-opacity: 0.15; stroke-width: 1px;"/><path class="ygrid crisp" transform="translate(0,96.47999999999999)" d="M60,0h1014" style="stroke: rgb(128, 128, 128); stroke-opacity: 0.15; stroke-width: 1px;"/><path class="ygrid crisp" transform="translate(0,54.17)" d="M60,0h1014" style="stroke: rgb(128, 128, 128); stroke-opacity: 0.15; stroke-width: 1px;"/></g></g><g class="zerolinelayer"><path class="xzl zl crisp" transform="translate(60,0)" d="M0,50v385" style="stroke: rgb(128, 128, 128); stroke-opacity: 0.2; stroke-width: 1px;"/><path class="yzl zl crisp" transform="translate(0,435)" d="M60,0h1014" style="stroke: rgb(128, 128, 128); stroke-opacity: 0.2; stroke-width: 1px;"/></g><g class="layer-between"><g class="shapelayer"/><g class="imagelayer"/></g><path class="xlines-below"/><path class="ylines-below"/><g class="overlines-below"/><g class="xaxislayer-below"/><g class="yaxislayer-below"/><g class="overaxes-below"/><g class="overplot"><g class="xy" transform="translate(60,50)" clip-path="url(#clip70fa26xyplot)"><g class="scatterlayer mlayer"><g class="trace scatter trace9d0fe0" style="stroke-miterlimit: 2; opacity: 1;"><g class="fills"/><g class="errorbars"/><g class="lines"><path class="js-line" d="M0,384.61L121.68,384.15L131.82,383.93L162.24,382.88L172.38,382.01L192.66,378.95L202.8,376.31L223.08,370.11L233.22,365.33L243.36,361.17L253.5,356.19L263.64,348.56L273.78,343.35L283.92,335.39L294.06,324.24L314.34,307.2L324.48,300.31L334.62,292.21L344.76,277.67L354.9,267.38L365.04,254.8L375.18,238.35L385.32,228.69L395.46,218.7L405.6,202.32L415.74,191.14L425.88,183.22L436.02,172.11L446.16,163.4L456.3,157.11L466.44,154.79L476.58,154.5L486.72,150.88L496.86,148.28L507,147.72L517.14,147.98L527.28,147.27L537.42,145.61L547.56,147.01L577.98,155.72L588.12,160.97L598.26,166L608.4,175.76L618.54,190.66L628.68,199.77L638.82,210.56L648.96,230.25L669.24,259.52L679.38,279.94L699.66,303.74L709.8,317.36L719.94,327.79L730.08,341.53L740.22,349.54L750.36,354.7L760.5,361.74L770.64,365.72L811.2,378.2L821.34,379.97L851.76,383.34L861.9,383.78L902.46,384.74L912.6,384.81L1014,384.99" style="vector-effect: none; fill: none; stroke: rgb(92, 184, 92); stroke-opacity: 1; stroke-width: 2px; opacity: 1;"/></g><g class="points"/><g class="text"/></g><g class="trace scatter trace908023" style="stroke-miterlimit: 2; opacity: 1;"><g class="fills"/><g class="errorbars"/><g class="lines"><path class="js-line" d="M0,384.59L111.54,384.22L121.68,384.07L162.24,382.71L172.38,381.83L192.66,378.66L202.8,375.98L223.08,369.62L233.22,364.68L253.5,355.66L263.64,347.99L273.78,342.67L283.92,334.69L294.06,323.54L304.2,315.54L314.34,306.48L324.48,299.61L334.62,291.56L344.76,277.09L354.9,266.94L365.04,254.15L375.18,237.25L385.32,227.37L395.46,217.16L405.6,200.93L415.74,189.85L425.88,180.7L436.02,170.57L446.16,162.08L456.3,154.5L466.44,152.68L476.58,152.6L486.72,149.41L496.86,147.35L507,147.13L527.28,148.01L537.42,146.56L547.56,147.49L557.7,150.48L577.98,157.48L588.12,162.8L598.26,167.89L608.4,177.27L618.54,191.89L628.68,201.17L638.82,211.84L648.96,231.47L669.24,260.62L679.38,281.1L699.66,304.73L709.8,318.29L719.94,328.44L730.08,341.86L740.22,349.83L750.36,354.93L760.5,361.9L770.64,365.89L811.2,378.33L821.34,380.17L851.76,383.49L861.9,383.93L902.46,384.81L912.6,384.87L1014,384.99" style="vector-effect: none; fill: none; stroke: rgb(92, 184, 92); stroke-opacity: 1; stroke-width: 2px; opacity: 1;"/></g><g class="points"/><g class="text"/></g><g class="trace scatter trace04b9cb" style="stroke-miterlimit: 2; opacity: 1;"><g class="fills"/><g class="errorbars"/><g class="lines"><path class="js-line" d="M0,384.58L111.54,384.23L121.68,384.09L162.24,382.78L172.38,381.95L192.66,378.95L202.8,376.47L223.08,370.4L233.22,365.68L253.5,356.99L263.64,349.58L273.78,344.43L283.92,337.06L294.06,326.71L304.2,319.04L314.34,310.49L324.48,303.97L334.62,296.42L344.76,283.13L354.9,274.03L365.04,262.71L375.18,247.52L385.32,238.56L395.46,229.79L405.6,215.41L415.74,205.04L425.88,196.66L436.02,182.9L446.16,173.43L456.3,171.14L466.44,172.46L476.58,173.47L486.72,169.59L496.86,166.59L507,166.02L537.42,168.37L547.56,170.57L577.98,179.89L588.12,185.83L598.26,191.49L608.4,200.07L618.54,213.37L628.68,222L638.82,231.8L648.96,248.9L669.24,274.57L679.38,292.48L699.66,313.25L709.8,324.92L719.94,333.85L730.08,345.91L740.22,353.08L750.36,357.74L760.5,364.03L770.64,367.58L811.2,378.96L821.34,380.6L851.76,383.55L861.9,383.96L902.46,384.79L912.6,384.84L1014,384.98" style="vector-effect: none; fill: none; stroke: rgb(92, 184, 92); stroke-opacity: 1; stroke-width: 2px; opacity: 1;"/></g><g class="points"/><g class="text"/></g><g class="trace scatter trace0e09cd" style="stroke-miterlimit: 2; opacity: 1;"><g class="fills"/><g class="errorbars"/><g class="lines"><path class="js-line" d="M0,384.56L111.54,384.16L121.68,384.01L162.24,382.61L172.38,381.74L192.66,378.72L202.8,376.15L223.08,369.94L233.22,365.19L253.5,356.5L263.64,349.13L273.78,343.93L283.92,336.33L294.06,325.95L304.2,318.57L314.34,310.22L324.48,303.78L334.62,296.39L344.76,283.11L354.9,273.9L365.04,262.52L375.18,247.11L385.32,237.82L395.46,229L405.6,214.82L425.88,194.59L436.02,182.62L446.16,174.28L456.3,168.95L466.44,169.12L476.58,170.16L486.72,167.09L496.86,165.1L517.14,166.56L527.28,167.35L537.42,167.7L547.56,169.91L567.84,176.49L577.98,180.79L598.26,191.84L608.4,200.94L618.54,214.61L628.68,222.97L638.82,232.36L648.96,249.39L669.24,275.29L679.38,293.3L699.66,313.78L709.8,325.36L719.94,334.3L730.08,346.27L740.22,353.33L750.36,357.96L760.5,364.29L770.64,367.91L811.2,379.22L821.34,380.83L851.76,383.74L861.9,384.11L902.46,384.84L912.6,384.89L1014,384.99" style="vector-effect: none; fill: none; stroke: rgb(92, 184, 92); stroke-opacity: 1; stroke-width: 2px; opacity: 1;"/></g><g class="points"/><g class="text"/></g><g class="trace scatter traceacdd4e" style="stroke-miterlimit: 2; opacity: 1;"><g class="fills"/><g class="errorbars"/><g class="lines"><path class="js-line" d="M0,384.47L111.54,384.03L121.68,383.83L162.24,382.21L172.38,381.17L192.66,377.73L202.8,374.92L223.08,367.94L233.22,362.35L253.5,351.82L263.64,342.74L273.78,336.23L283.92,326.8L294.06,313.11L304.2,302.11L314.34,290.15L324.48,281.44L334.62,270.28L344.76,250.75L354.9,236.28L365.04,218.81L375.18,197.83L385.32,185.58L395.46,171.06L405.6,148.71L415.74,134.91L425.88,127.19L446.16,108.76L456.3,96.5L466.44,89.26L476.58,86.05L486.72,80.74L496.86,77.79L507,79.18L517.14,82.11L527.28,85.32L537.42,87.46L547.56,88.61L557.7,90.87L577.98,102.02L588.12,111.67L598.26,121.74L608.4,133.36L618.54,152.16L628.68,165.3L638.82,180.07L648.96,206.13L659.1,225.96L669.24,243.05L679.38,266.51L689.52,280.75L699.66,294.33L709.8,309.29L719.94,321.31L730.08,336.44L740.22,345.66L750.36,352.07L760.5,359.86L770.64,364.41L811.2,378.04L821.34,379.87L851.76,383.32L861.9,383.75L902.46,384.63L912.6,384.73L1014,384.99" style="vector-effect: none; fill: none; stroke: rgb(92, 184, 92); stroke-opacity: 1; stroke-width: 2px; opacity: 1;"/></g><g class="points"/><g class="text"/></g><g class="trace scatter trace6d1a35" style="stroke-miterlimit: 2; opacity: 1;"><g class="fills"/><g class="errorbars"/><g class="lines"><path class="js-line" d="M0,384.33L101.4,384.03L111.54,383.9L152.1,382.65L162.24,382.1L182.52,379.27L192.66,377.51L202.8,374.6L212.94,370.61L223.08,367.3L233.22,361.59L253.5,350.76L263.64,341.43L273.78,334.79L283.92,325.39L294.06,311.47L304.2,300.51L314.34,288.58L324.48,279.63L334.62,268.54L344.76,248.85L354.9,234.23L365.04,216.53L375.18,195.68L385.32,183.84L395.46,169.69L405.6,147.75L415.74,133.99L425.88,126.06L446.16,108.13L456.3,96.21L466.44,89.19L476.58,87.43L496.86,80.18L507,80.68L517.14,83.8L527.28,88.57L537.42,91.42L547.56,92.49L557.7,95.78L567.84,101.04L577.98,106.19L588.12,115.82L598.26,125.59L608.4,136.87L618.54,154.14L628.68,165.55L638.82,180.17L648.96,206.14L659.1,225.12L669.24,241.49L679.38,265.19L689.52,279.43L699.66,292.45L709.8,307.05L719.94,319.26L730.08,334.62L740.22,343.75L750.36,350.2L760.5,358.11L770.64,362.81L811.2,377.16L821.34,379.11L851.76,382.76L861.9,383.31L902.46,384.43L912.6,384.55L1014,384.99" style="vector-effect: none; fill: none; stroke: rgb(92, 184, 92); stroke-opacity: 1; stroke-width: 2px; opacity: 1;"/></g><g class="points"/><g class="text"/></g><g class="trace scatter trace573123" style="stroke-miterlimit: 2; opacity: 1;"><g class="fills"/><g class="errorbars"/><g class="lines"><path class="js-line" d="M0,384.59L101.4,384.38L111.54,384.27L162.24,382.87L172.38,382.09L192.66,379.34L202.8,377.08L223.08,371.56L233.22,367.24L253.5,359.29L263.64,352.58L273.78,347.76L283.92,341.05L294.06,331.69L304.2,324.67L314.34,317.41L324.48,312.03L334.62,305.47L344.76,294.15L354.9,285.91L365.04,275.65L375.18,263.64L385.32,257.22L395.46,249.9L405.6,238.18L415.74,231.05L425.88,227.07L446.16,217.27L456.3,211.35L466.44,208.32L476.58,207.39L486.72,205.17L496.86,204.03L507,205.21L517.14,207.17L547.56,215.34L557.7,218.4L577.98,227.51L588.12,234.06L598.26,239.99L608.4,247.27L618.54,258.3L628.68,265.34L638.82,273.63L648.96,288.15L659.1,299.12L669.24,308.51L679.38,321.51L689.52,329.27L719.94,350.4L730.08,358.46L740.22,363.56L750.36,366.93L760.5,371.02L770.64,373.5L811.2,380.86L821.34,381.91L861.9,384.09L872.04,384.34L963.3,384.98L973.44,384.98L1014,384.99" style="vector-effect: none; fill: none; stroke: rgb(92, 184, 92); stroke-opacity: 1; stroke-width: 2px; opacity: 1;"/></g><g class="points"/><g class="text"/></g><g class="trace scatter tracec76577" style="stroke-miterlimit: 2; opacity: 1;"><g class="fills"/><g class="errorbars"/><g class="lines"><path class="js-line" d="M0,384.51L101.4,384.28L111.54,384.17L162.24,382.69L172.38,381.88L192.66,379.02L202.8,376.61L223.08,370.88L233.22,366.42L253.5,358.31L263.64,351.56L273.78,346.83L283.92,340.17L294.06,330.68L304.2,323.61L314.34,316.3L324.48,310.85L334.62,304.22L344.76,292.76L354.9,284.54L365.04,274.4L375.18,262.44L385.32,255.88L395.46,248.46L405.6,237.02L415.74,230.03L425.88,226.26L446.16,216.95L456.3,211.44L466.44,208.68L476.58,207.53L486.72,205.56L496.86,204.87L517.14,208.7L527.28,211.28L557.7,220.01L567.84,224.22L577.98,228.35L588.12,234.65L598.26,240.33L608.4,247.32L618.54,258.17L628.68,265L638.82,272.91L648.96,287.13L659.1,298.03L669.24,307.37L679.38,320.33L689.52,328.07L699.66,335.02L709.8,342.9L719.94,349.26L730.08,357.41L740.22,362.64L750.36,366.05L760.5,370.16L770.64,372.76L811.2,380.38L821.34,381.57L861.9,383.92L872.04,384.17L973.44,384.97L983.58,384.97L1014,384.99" style="vector-effect: none; fill: none; stroke: rgb(92, 184, 92); stroke-opacity: 1; stroke-width: 2px; opacity: 1;"/></g><g class="points"/><g class="text"/></g><g class="trace scatter trace8aea73" style="stroke-miterlimit: 2; opacity: 1;"><g class="fills"/><g class="errorbars"/><g class="lines"><path class="js-line" d="M0,384.39L91.26,384.26L101.4,384.09L152.1,382.68L162.24,382.17L182.52,379.62L192.66,377.96L202.8,375.17L212.94,371.41L223.08,368.3L233.22,362.98L243.36,358.35L253.5,352.58L263.64,343.4L273.78,336.93L283.92,327.3L294.06,313.59L304.2,303.12L314.34,291.1L324.48,281.92L334.62,269.83L344.76,249.18L354.9,234.49L365.04,216.42L375.18,194.16L395.46,167.11L405.6,145.98L415.74,133.63L425.88,126.64L436.02,117.68L446.16,110.56L456.3,101.68L466.44,94.18L486.72,87.18L496.86,86.08L507,87.98L517.14,92.29L527.28,96.84L537.42,99.16L547.56,100.71L557.7,104.91L567.84,112.29L577.98,118.52L588.12,126.51L598.26,135.57L608.4,148.25L618.54,167.76L638.82,194.05L648.96,218.57L659.1,237.16L669.24,253.08L679.38,274.99L689.52,288.33L699.66,300.91L709.8,314.74L719.94,325.65L730.08,339.15L740.22,347.5L750.36,353.52L760.5,360.76L770.64,365.06L801.06,375.47L811.2,378.62L831.48,381.56L841.62,382.75L861.9,383.89L872.04,384.21L953.16,384.96L963.3,384.98L1014,384.99" style="vector-effect: none; fill: none; stroke: rgb(92, 184, 92); stroke-opacity: 1; stroke-width: 2px; opacity: 1;"/></g><g class="points"/><g class="text"/></g><g class="trace scatter tracee555dc" style="stroke-miterlimit: 2; opacity: 1;"><g class="fills"/><g class="errorbars"/><g class="lines"><path class="js-line" d="M0,384.32L91.26,384.18L101.4,384.01L152.1,382.58L162.24,382.05L182.52,379.41L192.66,377.75L202.8,375.01L212.94,371.32L223.08,368.17L233.22,362.61L243.36,357.76L253.5,351.94L263.64,342.7L273.78,336.24L283.92,326.61L294.06,312.72L304.2,302.33L314.34,290.62L324.48,281.48L334.62,269.36L344.76,248.91L354.9,234.27L365.04,215.65L375.18,193.44L395.46,167.63L405.6,146.8L415.74,134.19L425.88,127.49L436.02,119.4L446.16,112.61L456.3,102.71L466.44,95.21L486.72,90.82L496.86,89.66L507,90.55L517.14,94.11L527.28,99.08L537.42,102.11L547.56,103.95L557.7,108.17L567.84,114.48L577.98,119.85L598.26,135.25L608.4,147.27L618.54,165.62L628.68,176.78L638.82,190.39L648.96,215.42L659.1,233.99L669.24,249.58L679.38,271.91L689.52,285.57L699.66,297.84L709.8,311.58L719.94,322.93L730.08,336.84L740.22,345.36L750.36,351.42L760.5,358.84L770.64,363.45L801.06,374.26L811.2,377.61L821.34,379.59L831.48,380.76L851.76,382.93L861.9,383.43L912.6,384.55L922.74,384.61L1014,384.98" style="vector-effect: none; fill: none; stroke: rgb(92, 184, 92); stroke-opacity: 1; stroke-width: 2px; opacity: 1;"/></g><g class="points"/><g class="text"/></g><g class="trace scatter trace108f5f" style="stroke-miterlimit: 2; opacity: 1;"><g class="fills"/><g class="errorbars"/><g class="lines"><path class="js-line" d="M0,384.38L91.26,384.15L101.4,383.93L152.1,382.1L162.24,381.43L172.38,380.15L182.52,377.97L192.66,375.83L202.8,372.13L212.94,367.12L223.08,363.01L233.22,355.84L243.36,349.71L253.5,342.46L263.64,330.79L273.78,322.6L283.92,310.63L294.06,293.7L304.2,281.08L314.34,266.33L324.48,254.87L334.62,240.06L344.76,214.95L354.9,197.54L365.04,176.28L375.18,150.37L385.32,135.36L395.46,118.59L405.6,93.76L415.74,78.73L425.88,69.19L436.02,58.92L446.16,50.75L456.3,39.46L466.44,31.46L486.72,21.19L496.86,19.25L507,20.44L517.14,23.43L527.28,27.58L537.42,30.23L547.56,31.31L557.7,34.08L577.98,47.46L588.12,57.34L598.26,67.3L608.4,79.81L618.54,99.96L628.68,114.55L638.82,132.25L648.96,163.16L659.1,187.36L669.24,208.69L679.38,237.01L689.52,254.23L699.66,270.46L709.8,288.36L719.94,303.04L730.08,321.3L740.22,332.74L750.36,340.93L760.5,350.89L770.64,356.78L811.2,375.08L821.34,377.73L851.76,382.47L861.9,383.12L892.32,384.22L902.46,384.43L983.58,384.97L993.72,384.98L1014,385" style="vector-effect: none; fill: none; stroke: rgb(92, 184, 92); stroke-opacity: 1; stroke-width: 2px; opacity: 1;"/></g><g class="points"/><g class="text"/></g><g class="trace scatter tracedd1fd6" style="stroke-miterlimit: 2; opacity: 1;"><g class="fills"/><g class="errorbars"/><g class="lines"><path class="js-line" d="M0,384.25L81.12,384.1L91.26,383.98L152.1,381.98L162.24,381.28L172.38,379.96L182.52,377.67L192.66,375.41L202.8,371.6L212.94,366.41L223.08,362.15L233.22,354.91L243.36,348.7L253.5,341.05L263.64,328.98L273.78,320.76L283.92,308.92L294.06,291.83L304.2,278.9L314.34,264.29L324.48,253.03L334.62,238.49L344.76,213.55L354.9,195.81L365.04,174.65L375.18,149.43L385.32,135.07L395.46,119.51L405.6,95.13L415.74,79.69L425.88,70.18L436.02,59.69L446.16,51.81L456.3,40.68L466.44,32.98L476.58,29.54L486.72,24.48L496.86,21.2L507,21.35L517.14,24L527.28,28.55L537.42,32.25L547.56,34.43L557.7,37.95L567.84,44.05L577.98,50.69L588.12,60.85L598.26,70.56L608.4,82.86L618.54,102.06L628.68,114.98L638.82,132.39L648.96,163.31L659.1,186.49L669.24,206.74L679.38,235.08L689.52,252.25L699.66,268.03L709.8,285.65L719.94,300.02L730.08,318.32L740.22,330.01L750.36,338.2L760.5,348.23L770.64,354.4L811.2,373.77L821.34,376.63L851.76,381.7L861.9,382.48L892.32,383.84L902.46,384.14L983.58,384.93L993.72,384.96L1014,384.98" style="vector-effect: none; fill: none; stroke: rgb(92, 184, 92); stroke-opacity: 1; stroke-width: 2px; opacity: 1;"/></g><g class="points"/><g class="text"/></g><g class="trace scatter trace1f5a24" style="stroke-miterlimit: 2; opacity: 1;"><g class="fills"/><g class="errorbars"/><g class="lines"><path class="js-line" d="M0,384.63L111.54,384.2L121.68,384.02L162.24,382.57L172.38,381.64L192.66,378.37L202.8,375.92L223.08,370.15L233.22,365.43L253.5,356.93L263.64,349.8L273.78,344.72L283.92,337.26L294.06,326.61L304.2,318.33L314.34,309.64L324.48,303.3L334.62,294.71L344.76,279.96L354.9,269.52L365.04,256.76L375.18,241.71L385.32,233.18L395.46,223.04L405.6,207.36L415.74,197.3L425.88,191.44L446.16,177.15L456.3,168.56L466.44,164.26L476.58,162.55L486.72,159.2L496.86,157.32L507,158.41L517.14,160.34L537.42,163.64L547.56,164.8L557.7,166.81L567.84,171.52L577.98,176.36L588.12,183.07L598.26,189.94L608.4,198.2L618.54,211.53L628.68,220.95L638.82,231.88L648.96,250.6L659.1,264.9L669.24,277.34L679.38,294.36L689.52,305.03L709.8,326.33L719.94,335.15L730.08,346.18L740.22,352.99L750.36,357.71L760.5,363.45L780.78,369.93L790.92,372.99L811.2,378.03L821.34,379.62L851.76,382.92L861.9,383.41L902.46,384.57L912.6,384.69L1014,384.99" style="vector-effect: none; fill: none; stroke: rgb(92, 184, 92); stroke-opacity: 1; stroke-width: 2px; opacity: 1;"/></g><g class="points"/><g class="text"/></g><g class="trace scatter tracee41273" style="stroke-miterlimit: 2; opacity: 1;"><g class="fills"/><g class="errorbars"/><g class="lines"><path class="js-line" d="M0,384.57L111.54,384.09L121.68,383.93L162.24,382.46L172.38,381.53L192.66,378.23L202.8,375.62L223.08,369.66L233.22,364.97L253.5,356.27L263.64,349.11L273.78,344.02L283.92,336.37L294.06,325.24L304.2,316.7L314.34,308.15L324.48,301.93L334.62,293.38L344.76,278.58L354.9,268.01L365.04,255.2L375.18,240.04L385.32,231.59L395.46,222.06L405.6,206.73L415.74,196.48L425.88,190.76L436.02,184.57L446.16,177.5L456.3,168.93L466.44,164.63L476.58,163.89L486.72,161.48L496.86,159.56L507,160.13L517.14,161.99L527.28,164.99L537.42,166.88L547.56,167.74L557.7,170.03L567.84,174.33L577.98,178.58L588.12,185.15L598.26,191.75L608.4,199.46L618.54,211.65L628.68,219.99L638.82,230.81L648.96,249.48L659.1,263.18L669.24,275.32L679.38,292.57L689.52,303.19L699.66,313.02L709.8,323.97L719.94,332.9L730.08,343.96L740.22,350.84L750.36,355.71L760.5,361.69L770.64,365.47L811.2,377.06L821.34,378.78L851.76,382.32L861.9,382.94L902.46,384.34L912.6,384.49L1014,384.99" style="vector-effect: none; fill: none; stroke: rgb(92, 184, 92); stroke-opacity: 1; stroke-width: 2px; opacity: 1;"/></g><g class="points"/><g class="text"/></g><g class="trace scatter tracee79850" style="stroke-miterlimit: 2; opacity: 1;"><g class="fills"/><g class="errorbars"/><g class="lines"><path class="js-line" d="M0,384.61L101.4,384.32L111.54,384.19L152.1,382.82L162.24,382.24L172.38,381.23L182.52,379.44L192.66,377.58L202.8,374.71L223.08,368.04L233.22,362.84L253.5,353.2L263.64,345.06L273.78,339.35L283.92,330.9L294.06,318.97L304.2,309.99L314.34,300.29L324.48,292.97L334.62,283.32L344.76,266.91L354.9,255.49L365.04,241.89L375.18,225.49L385.32,216.11L395.46,205.38L405.6,188.46L415.74,177.55L425.88,171.09L446.16,155.69L456.3,146.35L466.44,141.41L476.58,139.13L486.72,134.99L496.86,132.94L517.14,135.73L527.28,138.04L557.7,145.28L567.84,150.87L577.98,156.76L588.12,164.97L608.4,181.89L618.54,195.75L628.68,205.64L638.82,217.69L648.96,238.35L659.1,254.03L669.24,267.82L679.38,286.54L709.8,321.19L719.94,330.8L730.08,342.7L740.22,350.15L750.36,355.4L760.5,361.85L770.64,365.79L780.78,368.87L801.06,375.04L811.2,377.97L831.48,380.86L841.62,382.2L861.9,383.55L872.04,383.97L932.88,384.83L943.02,384.89L1014,384.99" style="vector-effect: none; fill: none; stroke: rgb(92, 184, 92); stroke-opacity: 1; stroke-width: 2px; opacity: 1;"/></g><g class="points"/><g class="text"/></g><g class="trace scatter trace47514a" style="stroke-miterlimit: 2; opacity: 1;"><g class="fills"/><g class="errorbars"/><g class="lines"><path class="js-line" d="M0,384.52L101.4,384.23L111.54,384.1L152.1,382.74L162.24,382.14L182.52,379.17L192.66,377.31L202.8,374.4L212.94,370.66L223.08,367.53L233.22,362.16L253.5,352.23L263.64,343.76L273.78,337.89L283.92,329.4L294.06,317.41L304.2,308.39L314.34,298.55L324.48,291.12L334.62,281.56L344.76,265.26L354.9,253.89L365.04,240.2L375.18,223.73L385.32,214.36L395.46,204.08L405.6,187.81L415.74,176.99L425.88,170.25L446.16,155.62L456.3,146.98L466.44,142.37L476.58,140.77L486.72,137.43L496.86,135.21L507,136.13L517.14,138.32L537.42,144.15L547.56,145.76L557.7,148.67L567.84,153.88L577.98,158.84L588.12,166.51L608.4,183.35L618.54,196.3L628.68,204.97L638.82,216.48L648.96,236.78L659.1,252.03L669.24,265.65L679.38,284.46L709.8,318.16L719.94,328.05L730.08,340.32L740.22,348.02L750.36,353.37L760.5,359.96L770.64,364.2L780.78,367.44L811.2,376.99L821.34,378.85L861.9,383.11L872.04,383.59L943.02,384.77L953.16,384.89L1014,384.98" style="vector-effect: none; fill: none; stroke: rgb(92, 184, 92); stroke-opacity: 1; stroke-width: 2px; opacity: 1;"/></g><g class="points"/><g class="text"/></g></g></g></g><g class="zerolinelayer-above"/><path class="xlines-above crisp" d="M0,0" style="fill: none;"/><path class="ylines-above crisp" d="M0,0" style="fill: none;"/><g class="overlines-above"/><g class="xaxislayer-above"><g class="xtick"><text text-anchor="middle" x="0" y="451" transform="translate(60,0)" style="font-family: system-ui, -apple-system, 'Segoe UI', Roboto, 'Helvetica Neue', 'Noto Sans', 'Liberation Sans', Arial, sans-serif, 'Apple Color Emoji', 'Segoe UI Emoji', 'Segoe UI Symbol', 'Noto Color Emoji'; font-size: 10px; fill: rgb(80, 80, 80); fill-opacity: 1; white-space: pre;">0%</text></g><g class="xtick"><text text-anchor="middle" x="0" y="451" style="font-family: system-ui, -apple-system, 'Segoe UI', Roboto, 'Helvetica Neue', 'Noto Sans', 'Liberation Sans', Arial, sans-serif, 'Apple Color Emoji', 'Segoe UI Emoji', 'Segoe UI Symbol', 'Noto Color Emoji'; font-size: 10px; fill: rgb(80, 80, 80); fill-opacity: 1; white-space: pre;" transform="translate(262.8,0)">20%</text></g><g class="xtick"><text text-anchor="middle" x="0" y="451" style="font-family: system-ui, -apple-system, 'Segoe UI', Roboto, 'Helvetica Neue', 'Noto Sans', 'Liberation Sans', Arial, sans-serif, 'Apple Color Emoji', 'Segoe UI Emoji', 'Segoe UI Symbol', 'Noto Color Emoji'; font-size: 10px; fill: rgb(80, 80, 80); fill-opacity: 1; white-space: pre;" transform="translate(465.6,0)">40%</text></g><g class="xtick"><text text-anchor="middle" x="0" y="451" style="font-family: system-ui, -apple-system, 'Segoe UI', Roboto, 'Helvetica Neue', 'Noto Sans', 'Liberation Sans', Arial, sans-serif, 'Apple Color Emoji', 'Segoe UI Emoji', 'Segoe UI Symbol', 'Noto Color Emoji'; font-size: 10px; fill: rgb(80, 80, 80); fill-opacity: 1; white-space: pre;" transform="translate(668.4,0)">60%</text></g><g class="xtick"><text text-anchor="middle" x="0" y="451" style="font-family: system-ui, -apple-system, 'Segoe UI', Roboto, 'Helvetica Neue', 'Noto Sans', 'Liberation Sans', Arial, sans-serif, 'Apple Color Emoji', 'Segoe UI Emoji', 'Segoe UI Symbol', 'Noto Color Emoji'; font-size: 10px; fill: rgb(80, 80, 80); fill-opacity: 1; white-space: pre;" transform="translate(871.2,0)">80%</text></g><g class="xtick"><text text-anchor="middle" x="0" y="451" style="font-family: system-ui, -apple-system, 'Segoe UI', Roboto, 'Helvetica Neue', 'Noto Sans', 'Liberation Sans', Arial, sans-serif, 'Apple Color Emoji', 'Segoe UI Emoji', 'Segoe UI Symbol', 'Noto Color Emoji'; font-size: 10px; fill: rgb(80, 80, 80); fill-opacity: 1; white-space: pre;" transform="translate(1074,0)">100%</text></g></g><g class="yaxislayer-above"><g class="ytick"><text text-anchor="end" x="54" y="3.5" transform="translate(0,435)" style="font-family: system-ui, -apple-system, 'Segoe UI', Roboto, 'Helvetica Neue', 'Noto Sans', 'Liberation Sans', Arial, sans-serif, 'Apple Color Emoji', 'Segoe UI Emoji', 'Segoe UI Symbol', 'Noto Color Emoji'; font-size: 10px; fill: rgb(80, 80, 80); fill-opacity: 1; white-space: pre;">0</text></g><g class="ytick"><text text-anchor="end" x="54" y="3.5" style="font-family: system-ui, -apple-system, 'Segoe UI', Roboto, 'Helvetica Neue', 'Noto Sans', 'Liberation Sans', Arial, sans-serif, 'Apple Color Emoji', 'Segoe UI Emoji', 'Segoe UI Symbol', 'Noto Color Emoji'; font-size: 10px; fill: rgb(80, 80, 80); fill-opacity: 1; white-space: pre;" transform="translate(0,392.69)">0.2M</text></g><g class="ytick"><text text-anchor="end" x="54" y="3.5" style="font-family: system-ui, -apple-system, 'Segoe UI', Roboto, 'Helvetica Neue', 'Noto Sans', 'Liberation Sans', Arial, sans-serif, 'Apple Color Emoji', 'Segoe UI Emoji', 'Segoe UI Symbol', 'Noto Color Emoji'; font-size: 10px; fill: rgb(80, 80, 80); fill-opacity: 1; white-space: pre;" transform="translate(0,350.37)">0.4M</text></g><g class="ytick"><text text-anchor="end" x="54" y="3.5" style="font-family: system-ui, -apple-system, 'Segoe UI', Roboto, 'Helvetica Neue', 'Noto Sans', 'Liberation Sans', Arial, sans-serif, 'Apple Color Emoji', 'Segoe UI Emoji', 'Segoe UI Symbol', 'Noto Color Emoji'; font-size: 10px; fill: rgb(80, 80, 80); fill-opacity: 1; white-space: pre;" transform="translate(0,308.06)">0.6M</text></g><g class="ytick"><text text-anchor="end" x="54" y="3.5" style="font-family: system-ui, -apple-system, 'Segoe UI', Roboto, 'Helvetica Neue', 'Noto Sans', 'Liberation Sans', Arial, sans-serif, 'Apple Color Emoji', 'Segoe UI Emoji', 'Segoe UI Symbol', 'Noto Color Emoji'; font-size: 10px; fill: rgb(80, 80, 80); fill-opacity: 1; white-space: pre;" transform="translate(0,265.74)">0.8M</text></g><g class="ytick"><text text-anchor="end" x="54" y="3.5" style="font-family: system-ui, -apple-system, 'Segoe UI', Roboto, 'Helvetica Neue', 'Noto Sans', 'Liberation Sans', Arial, sans-serif, 'Apple Color Emoji', 'Segoe UI Emoji', 'Segoe UI Symbol', 'Noto Color Emoji'; font-size: 10px; fill: rgb(80, 80, 80); fill-opacity: 1; white-space: pre;" transform="translate(0,223.43)">1M</text></g><g class="ytick"><text text-anchor="end" x="54" y="3.5" style="font-family: system-ui, -apple-system, 'Segoe UI', Roboto, 'Helvetica Neue', 'Noto Sans', 'Liberation Sans', Arial, sans-serif, 'Apple Color Emoji', 'Segoe UI Emoji', 'Segoe UI Symbol', 'Noto Color Emoji'; font-size: 10px; fill: rgb(80, 80, 80); fill-opacity: 1; white-space: pre;" transform="translate(0,181.11)">1.2M</text></g><g class="ytick"><text text-anchor="end" x="54" y="3.5" style="font-family: system-ui, -apple-system, 'Segoe UI', Roboto, 'Helvetica Neue', 'Noto Sans', 'Liberation Sans', Arial, sans-serif, 'Apple Color Emoji', 'Segoe UI Emoji', 'Segoe UI Symbol', 'Noto Color Emoji'; font-size: 10px; fill: rgb(80, 80, 80); fill-opacity: 1; white-space: pre;" transform="translate(0,138.8)">1.4M</text></g><g class="ytick"><text text-anchor="end" x="54" y="3.5" style="font-family: system-ui, -apple-system, 'Segoe UI', Roboto, 'Helvetica Neue', 'Noto Sans', 'Liberation Sans', Arial, sans-serif, 'Apple Color Emoji', 'Segoe UI Emoji', 'Segoe UI Symbol', 'Noto Color Emoji'; font-size: 10px; fill: rgb(80, 80, 80); fill-opacity: 1; white-space: pre;" transform="translate(0,96.47999999999999)">1.6M</text></g><g class="ytick"><text text-anchor="end" x="54" y="3.5" style="font-family: system-ui, -apple-system, 'Segoe UI', Roboto, 'Helvetica Neue', 'Noto Sans', 'Liberation Sans', Arial, sans-serif, 'Apple Color Emoji', 'Segoe UI Emoji', 'Segoe UI Symbol', 'Noto Color Emoji'; font-size: 10px; fill: rgb(80, 80, 80); fill-opacity: 1; white-space: pre;" transform="translate(0,54.17)">1.8M</text></g></g><g class="overaxes-above"/></g></g><g class="polarlayer"/><g class="smithlayer"/><g class="ternarylayer"/><g class="geolayer"/><g class="funnelarealayer"/><g class="pielayer"/><g class="iciclelayer"/><g class="treemaplayer"/><g class="sunburstlayer"/><g class="glimages"/><defs id="topdefs-70fa26"><g class="clips"/></defs><g class="layer-above"><g class="imagelayer"/><g class="shapelayer"/></g><g class="infolayer"><g class="g-gtitle"><text class="gtitle" x="550" y="25" text-anchor="middle" dy="0em" style="opacity: 1; font-family: system-ui, -apple-system, 'Segoe UI', Roboto, 'Helvetica Neue', 'Noto Sans', 'Liberation Sans', Arial, sans-serif, 'Apple Color Emoji', 'Segoe UI Emoji', 'Segoe UI Symbol', 'Noto Color Emoji'; font-size: 20px; fill: rgb(60, 60, 60); fill-opacity: 1; white-space: pre;"><tspan class="line" dy="0em" x="550" y="25">FastQC: Per Sequence GC Content</tspan><tspan class="line" dy="1.3em" x="550" y="25">​<tspan style="font-size:70%" dy="-0.6em">Counts, 16 lines</tspan><tspan dy="0.42em">​</tspan></tspan></text></g><g class="g-xtitle"><text class="xtitle" x="567" y="487" text-anchor="middle" style="opacity: 1; font-family: system-ui, -apple-system, 'Segoe UI', Roboto, 'Helvetica Neue', 'Noto Sans', 'Liberation Sans', Arial, sans-serif, 'Apple Color Emoji', 'Segoe UI Emoji', 'Segoe UI Symbol', 'Noto Color Emoji'; font-size: 14px; fill: rgb(100, 100, 100); fill-opacity: 1; white-space: pre;">% GC</text></g><g class="g-ytitle"><text class="ytitle" transform="rotate(-90,22,242.5)" x="22" y="242.5" text-anchor="middle" style="opacity: 1; font-family: system-ui, -apple-system, 'Segoe UI', Roboto, 'Helvetica Neue', 'Noto Sans', 'Liberation Sans', Arial, sans-serif, 'Apple Color Emoji', 'Segoe UI Emoji', 'Segoe UI Symbol', 'Noto Color Emoji'; font-size: 14px; fill: rgb(100, 100, 100); fill-opacity: 1; white-space: pre;">Count</text></g></g></svg>