<svg class="main-svg" xmlns="http://www.w3.org/2000/svg" xmlns:xlink="http://www.w3.org/1999/xlink" width="2200" height="1000" style="" viewBox="0 0 1100 500"><rect x="0" y="0" width="1100" height="500" style="fill: rgb(255, 255, 255); fill-opacity: 1;"/><defs id="defs-54f002"><g class="clips"><clipPath id="clip54f002xyplot" class="plotclip"><rect width="1025" height="385"/></clipPath><clipPath class="axesclip" id="clip54f002x"><rect x="60" y="0" width="1025" height="500"/></clipPath><clipPath class="axesclip" id="clip54f002y"><rect x="0" y="50" width="1100" height="385"/></clipPath><clipPath class="axesclip" id="clip54f002xy"><rect x="60" y="50" width="1025" height="385"/></clipPath></g><g class="gradients"/><g class="patterns"/></defs><g class="bglayer"/><g class="layer-below"><g class="imagelayer"/><g class="shapelayer"/></g><g class="cartesianlayer"><g class="subplot xy"><g class="layer-subplot"><g class="shapelayer"/><g class="imagelayer"/></g><g class="minor-gridlayer"><g class="x"/><g class="y"/></g><g class="gridlayer"><g class="x"><path class="xgrid crisp" transform="translate(265,0)" d="M0,50v385" style="stroke: rgb(128, 128, 128); stroke-opacity: 0.15; stroke-width: 1px;"/><path class="xgrid crisp" transform="translate(470,0)" d="M0,50v385" style="stroke: rgb(128, 128, 128); stroke-opacity: 0.15; stroke-width: 1px;"/><path class="xgrid crisp" transform="translate(675,0)" d="M0,50v385" style="stroke: rgb(128, 128, 128); stroke-opacity: 0.15; stroke-width: 1px;"/><path class="xgrid crisp" transform="translate(880,0)" d="M0,50v385" style="stroke: rgb(128, 128, 128); stroke-opacity: 0.15; stroke-width: 1px;"/></g><g class="y"><path class="ygrid crisp" transform="translate(0,368.25)" d="M60,0h1025" style="stroke: rgb(128, 128, 128); stroke-opacity: 0.15; stroke-width: 1px;"/><path class="ygrid crisp" transform="translate(0,301.5)" d="M60,0h1025" style="stroke: rgb(128, 128, 128); stroke-opacity: 0.15; stroke-width: 1px;"/><path class="ygrid crisp" transform="translate(0,234.74)" d="M60,0h1025" style="stroke: rgb(128, 128, 128); stroke-opacity: 0.15; stroke-width: 1px;"/><path class="ygrid crisp" transform="translate(0,167.99)" d="M60,0h1025" style="stroke: rgb(128, 128, 128); stroke-opacity: 0.15; stroke-width: 1px;"/><path class="ygrid crisp" transform="translate(0,101.24000000000001)" d="M60,0h1025" style="stroke: rgb(128, 128, 128); stroke-opacity: 0.15; stroke-width: 1px;"/></g></g><g class="zerolinelayer"><path class="xzl zl crisp" transform="translate(60,0)" d="M0,50v385" style="stroke: rgb(128, 128, 128); stroke-opacity: 0.2; stroke-width: 1px;"/><path class="yzl zl crisp" transform="translate(0,435)" d="M60,0h1025" style="stroke: rgb(128, 128, 128); stroke-opacity: 0.2; stroke-width: 1px;"/></g><g class="layer-between"><g class="shapelayer"/><g class="imagelayer"/></g><path class="xlines-below"/><path class="ylines-below"/><g class="overlines-below"/><g class="xaxislayer-below"/><g class="yaxislayer-below"/><g class="overaxes-below"/><g class="overplot"><g class="xy" transform="translate(60,50)" clip-path="url(#clip54f002xyplot)"><g class="scatterlayer mlayer"><g class="trace scatter tracec1dd65" style="stroke-miterlimit: 2; opacity: 1;"><g class="fills"/><g class="errorbars"/><g class="lines"><path class="js-line" d="M0,385L59.45,384.89L61.5,384.2L67.65,368.24L69.7,362.43L73.8,349.36L75.85,343.47L77.9,332.23L79.95,316.13L84.05,284.68L86.1,275.87L90.2,229.94L92.25,203.46L96.35,174.01L98.4,161.06L102.5,109.13L104.55,93.93L108.65,89.91L110.7,79.07L112.75,57.27L114.8,49.51L116.85,60.07L118.9,65.83L120.95,63.57L123,52.98L125.05,48.98L127.1,57.76L129.15,71.59L131.2,76.17L133.25,72.11L135.3,71.58L139.4,92.8L141.45,104.78L145.55,107.22L147.6,113.84L151.7,139.12L153.75,141.52L155.8,142.84L157.85,147.23L161.95,176.61L164,180.81L166.05,180.22L168.1,184.48L172.2,204.89L174.25,208.52L176.3,213.8L178.35,216.33L180.4,222.28L182.45,233.86L184.5,241.78L186.55,242.15L190.65,250L192.7,256.74L194.75,263.01L196.8,265.74L198.85,267.14L200.9,272.56L205,284.23L207.05,285.88L209.1,286.64L211.15,291.79L213.2,295.03L215.25,300.06L217.3,304.34L219.35,306.29L221.4,307.5L223.45,311.39L225.5,315.41L227.55,317.09L229.6,318.21L231.65,321.3L233.7,322.29L235.75,324.71L239.85,332.61L241.9,331.34L246,336.62L248.05,337.93L252.15,342.16L254.2,343.11L257.27,344L259.33,345.68L261.38,348.15L263.42,347.29L269.58,352.56L271.63,352.96L277.77,354.91L279.83,357.44L285.97,358.92L288.02,360.5L292.13,362.45L294.17,363.07L296.22,362.86L298.27,363.7L300.33,364.98L302.38,365.24L304.42,366.04L306.47,367.7L310.58,368.41L312.63,369.6L320.83,370.12L322.88,371.34L324.92,371.95L326.97,371.53L331.08,372.05L333.12,372.93L337.23,373.61L339.28,373.07L343.37,374.37L345.42,374.99L361.83,377.82L363.87,377.9L367.98,378.55L370.03,378.53L374.12,378.92L376.17,379.39L378.23,379.02L380.28,379.57L386.42,379.56L388.48,380.26L404.87,381.45L406.92,380.92L421.28,382.18L423.33,381.99L433.58,382.63L435.62,382.59L458.17,383.41L460.23,383.09L466.37,383.56L468.42,383.46L488.92,383.96L490.98,384.23L509.42,384.33L511.48,384.21L519.67,384.37L521.72,384.28L560.67,384.66L562.72,384.59L618.07,384.85L620.13,384.77L652.92,384.85L654.97,384.9L685.72,384.95L687.78,384.91L726.72,384.97L728.78,384.95L767.72,384.98L770.8,384.96L1025,385" style="vector-effect: none; fill: none; stroke: rgb(124, 181, 236); stroke-opacity: 1; stroke-width: 2px; opacity: 1;"/></g><g class="points"/><g class="text"/></g><g class="trace scatter trace5ff836" style="stroke-miterlimit: 2; opacity: 1;"><g class="fills"/><g class="errorbars"/><g class="lines"><path class="js-line" d="M0,385L61.5,384.35L63.55,380.46L65.6,374.58L67.65,371.07L75.85,347.3L77.9,338.09L84.05,295.6L86.1,286.41L90.2,243.3L92.25,211.69L94.3,195.85L96.35,191.02L98.4,176.21L100.45,147.96L102.5,122.19L104.55,106.29L106.6,105.04L108.65,101.43L110.7,88.23L112.75,65.41L114.8,54.99L116.85,61.91L118.9,70.28L120.95,68.58L123,54.92L125.05,49.9L129.15,73.29L131.2,78.38L133.25,74.92L135.3,73.65L137.35,83.64L139.4,103.03L141.45,111.9L143.5,111.71L145.55,107.38L147.6,115.05L151.7,139.8L153.75,145.16L157.85,152.7L159.9,165.65L161.95,177.88L164,181.5L168.1,183.38L170.15,191.62L174.25,212.75L176.3,215.25L178.35,215.14L180.4,221.77L184.5,238.23L186.55,241.73L188.6,241.4L190.65,244.79L194.75,261.75L196.8,263.98L198.85,264.16L200.9,266L205,281.01L207.05,280.96L209.1,283.33L211.15,288.59L213.2,290.72L215.25,295.54L223.45,303.7L225.5,308.87L227.55,313.36L229.6,312.78L231.65,311.88L233.7,315.6L235.75,321.28L237.8,324.54L239.85,326.48L241.9,327.19L243.95,328.78L246,331.83L248.05,332.97L250.1,335.52L259.33,343.71L261.38,343.08L263.42,343.43L265.47,344.84L271.63,351.44L273.67,350.8L277.77,352.82L279.83,353.09L281.88,354.7L283.92,355.06L288.02,357.73L290.08,358.73L292.13,360.26L294.17,360.76L296.22,360.53L298.27,361.91L302.38,363.77L304.42,363.4L314.67,367.49L316.72,367.38L318.77,367.65L320.83,369.12L331.08,371.04L333.12,371.54L337.23,372.76L339.28,372.13L345.42,374.96L347.48,374.2L349.53,374.91L351.58,374.53L353.62,374.67L355.67,375.69L359.78,376.61L361.83,376.52L363.87,376.27L365.92,377.55L374.12,378.16L376.17,378.56L380.28,378.02L382.33,378.79L384.37,378.59L386.42,379.2L390.53,379.44L392.58,380.1L396.67,380.12L398.73,380.69L402.83,381.06L404.87,380.5L411.03,381.11L413.08,381.35L452.03,382.97L454.08,383L460.23,383.14L462.28,383.18L490.98,384L493.03,383.98L513.53,384.26L515.57,384.31L527.88,384.37L529.92,384.33L540.17,384.48L542.22,384.6L745.18,384.94L747.22,384.94L826.15,384.99L828.2,384.96L908.15,384.99L910.2,384.98L1025,385" style="vector-effect: none; fill: none; stroke: rgb(67, 67, 72); stroke-opacity: 1; stroke-width: 2px; opacity: 1;"/></g><g class="points"/><g class="text"/></g><g class="trace scatter tracee5275f" style="stroke-miterlimit: 2; opacity: 1;"><g class="fills"/><g class="errorbars"/><g class="lines"><path class="js-line" d="M0,385L59.45,384.69L61.5,384.11L69.7,369.09L71.75,363.7L73.8,360.24L75.85,353.64L79.95,336.51L82,324.33L86.1,299.67L88.15,284.55L98.4,203.31L100.45,182.76L106.6,132.51L108.65,125.64L112.75,99.67L114.8,92.66L120.95,82.79L123,80.02L125.05,76.76L127.1,77.44L129.15,81.99L131.2,83.1L133.25,82.85L135.3,84.1L137.35,91.7L139.4,95.22L143.5,106.57L145.55,109.09L147.6,112.37L149.65,120.41L153.75,135.97L155.8,140.84L159.9,154.62L161.95,161.56L164,165.68L166.05,167.59L170.15,186.99L172.2,191.81L174.25,198.09L176.3,201.32L184.5,224.3L186.55,226L192.7,240.59L194.75,246.57L196.8,247.66L198.85,253.7L202.95,264.73L205,268.58L207.05,273.53L209.1,274.65L213.2,281.51L215.25,284.87L219.35,290.85L221.4,295.17L223.45,296.05L225.5,298.79L227.55,304.09L229.6,305.78L235.75,312.04L237.8,314.43L239.85,316.7L241.9,320.31L243.95,320.42L246,325.67L248.05,327.2L250.1,326.31L254.2,332.43L257.27,335.09L273.67,346.47L275.72,348.23L281.88,351.87L283.92,352.12L292.13,356.26L294.17,356.41L306.47,362.01L308.52,361.82L312.63,365.34L314.67,365.3L318.77,365.82L320.83,366.27L324.92,367.04L326.97,368.93L335.17,370.88L337.23,370.84L341.33,372.1L343.37,372.63L359.78,374.63L361.83,375.67L365.92,376.68L367.98,376.56L374.12,377.17L376.17,377.34L386.42,378.6L388.48,379L392.58,379.08L394.62,379.54L404.87,380.94L406.92,380.76L419.23,380.98L421.28,381.71L454.08,382.85L456.12,382.55L476.62,383.74L478.67,383.39L493.03,384.12L495.07,384.12L579.13,384.83L581.17,384.73L1025,385" style="vector-effect: none; fill: none; stroke: rgb(144, 237, 125); stroke-opacity: 1; stroke-width: 2px; opacity: 1;"/></g><g class="points"/><g class="text"/></g><g class="trace scatter trace66d16a" style="stroke-miterlimit: 2; opacity: 1;"><g class="fills"/><g class="errorbars"/><g class="lines"><path class="js-line" d="M0,385L59.45,384.61L61.5,384.12L63.55,380.96L65.6,376.2L67.65,373.51L69.7,369.45L73.8,359.68L75.85,352.94L77.9,344.52L79.95,332.55L88.15,275.64L90.2,251.06L94.3,206.67L96.35,192.58L98.4,175.48L100.45,145.87L104.55,103.41L106.6,99.15L108.65,91.52L110.7,73.43L112.75,54.49L114.8,45.76L118.9,50.3L120.95,44.64L123,33.41L125.05,27.93L129.15,56.39L131.2,58.57L133.25,52.6L135.3,52.7L139.4,81.27L141.45,89.88L143.5,93.49L145.55,94.13L151.7,124.75L153.75,130.81L157.85,138.87L159.9,153.7L161.95,165.09L164,169.18L166.05,171.46L168.1,180.73L172.2,200.45L174.25,204.29L176.3,208.17L178.35,216.54L182.45,228.23L184.5,233.56L186.55,236.59L188.6,243.36L192.7,252.32L194.75,258.83L198.85,270.41L200.9,274.38L205,283.51L207.05,285.98L209.1,288.09L211.15,291.81L213.2,293.89L215.25,297.39L217.3,301.81L219.35,303.74L221.4,305.89L223.45,309.44L225.5,315.27L227.55,318.03L229.6,318.4L231.65,322.46L235.75,324.96L237.8,328.2L241.9,332.17L243.95,333.85L246,336.68L248.05,337.38L250.1,337.09L252.15,341.59L254.2,343.77L257.27,345.15L259.33,345.35L261.38,347.15L263.42,348.47L265.47,350.7L267.52,352.99L269.58,353.3L273.67,355.24L275.72,357.12L279.83,359.42L281.88,360.03L288.02,360.78L290.08,361.77L292.13,363.78L294.17,364.32L298.27,365.65L300.33,366.71L304.42,367.58L306.47,368.21L312.63,370.55L314.67,370.39L322.88,372.05L324.92,372.62L339.28,375.94L341.33,375.39L347.48,376.56L349.53,376.78L353.62,377.61L355.67,377.39L365.92,379.18L367.98,378.7L370.03,378.63L372.08,379.56L380.28,380.37L382.33,380.38L392.58,381.81L394.62,381.76L408.98,382.21L411.03,382.5L419.23,382.36L421.28,383.05L427.42,382.84L429.48,382.92L527.88,384.69L529.92,384.62L624.22,384.85L626.28,384.93L646.78,384.86L648.82,384.88L675.47,384.96L677.53,384.96L753.37,384.97L755.43,384.98L1025,385" style="vector-effect: none; fill: none; stroke: rgb(247, 163, 92); stroke-opacity: 1; stroke-width: 2px; opacity: 1;"/></g><g class="points"/><g class="text"/></g><g class="trace scatter tracefa4481" style="stroke-miterlimit: 2; opacity: 1;"><g class="fills"/><g class="errorbars"/><g class="lines"><path class="js-line" d="M0,385L59.45,384.69L61.5,384.03L71.75,366.81L73.8,362.45L75.85,357.89L77.9,350.41L86.1,313.89L88.15,300.93L100.45,205.7L102.5,187.56L106.6,159.44L108.65,144.66L112.75,117.5L114.8,107.62L116.85,105.13L118.9,97.35L125.05,73.71L127.1,74.68L129.15,78.01L131.2,76.66L133.25,74.16L135.3,75.75L137.35,85.54L139.4,90.3L141.45,93.49L143.5,92.41L145.55,92.33L147.6,97.66L149.65,110.52L151.7,116.22L153.75,121.06L155.8,128.19L159.9,142.91L161.95,145.8L166.05,158.02L168.1,165.76L180.4,203.13L182.45,206.79L184.5,216.69L186.55,219.33L188.6,222.52L190.65,229.33L192.7,235.86L194.75,237.68L198.85,250.52L200.9,252.83L202.95,256.1L205,261.41L211.15,274.82L213.2,276.4L215.25,279.05L217.3,283.5L221.4,289.9L223.45,296.19L225.5,297.74L227.55,300.56L231.65,304.3L233.7,308.37L235.75,311.7L237.8,313.35L241.9,318.25L243.95,320L254.2,329.84L257.27,333.8L259.33,337.41L261.38,338.41L265.47,338.83L267.52,340.76L271.63,344.31L273.67,344.83L277.77,349.6L279.83,350.29L285.97,352.69L288.02,354.15L290.08,356L292.13,356.68L294.17,357.08L296.22,358.38L298.27,360.35L300.33,360.92L302.38,361.55L304.42,363.32L308.52,362.6L310.58,364.18L312.63,365.53L314.67,365.21L316.72,366.4L318.77,366.4L322.88,368.82L324.92,369.29L331.08,370.36L333.12,370.98L345.42,373.57L347.48,374.91L351.58,374.63L353.62,375.24L361.83,376.51L363.87,377.07L374.12,378.28L376.17,378.74L382.33,379.15L384.37,379.13L406.92,381.44L408.98,381.34L427.42,382.51L429.48,382.34L433.58,382.91L435.62,382.72L441.78,383.37L443.83,383.14L447.92,383.31L449.98,383.11L460.23,383.88L462.28,383.8L527.88,384.71L529.92,384.63L593.47,384.89L595.53,384.85L663.18,384.83L665.22,384.94L822.05,384.99L824.1,384.96L861,384.96L863.05,384.97L940.95,384.96L943,384.96L1022.95,385L1025,385" style="vector-effect: none; fill: none; stroke: rgb(128, 133, 233); stroke-opacity: 1; stroke-width: 2px; opacity: 1;"/></g><g class="points"/><g class="text"/></g><g class="trace scatter trace67afa7" style="stroke-miterlimit: 2; opacity: 1;"><g class="fills"/><g class="errorbars"/><g class="lines"><path class="js-line" d="M0,385L59.45,384.47L61.5,383.52L63.55,379.62L65.6,373.01L69.7,364.32L71.75,358.46L75.85,346.3L77.9,336.23L84.05,298.27L86.1,282.68L90.2,248.09L92.25,226.52L100.45,154.32L102.5,133.38L104.55,118.82L106.6,110.41L108.65,99.61L110.7,81.52L114.8,64.01L116.85,58.59L118.9,62.64L120.95,59.05L125.05,51.6L127.1,58.43L129.15,62.41L131.2,60.55L135.3,68.51L137.35,70.72L141.45,94.82L143.5,99.05L145.55,99.43L147.6,110.46L149.65,120.8L151.7,124.85L155.8,138.7L157.85,146.52L161.95,160.52L164,165.34L166.05,170.85L168.1,178.75L172.2,198.74L174.25,203.96L176.3,207.69L178.35,216.46L182.45,223.77L184.5,231.57L186.55,235.36L188.6,244.07L190.65,246.72L192.7,250.74L198.85,262.07L200.9,267.64L202.95,274.61L205,278.45L207.05,281.68L209.1,282.85L213.2,293.36L215.25,296.9L217.3,297.75L219.35,301.08L221.4,305.12L223.45,307.15L227.55,314.25L229.6,314.33L231.65,315.93L233.7,320.76L237.8,325.61L239.85,326.68L241.9,327.25L243.95,330.68L246,333.54L248.05,334.53L257.27,342.49L259.33,345.28L263.42,346.02L265.47,347.81L273.67,352.29L275.72,354.9L283.92,359.32L285.97,359.18L296.22,363.85L298.27,364.17L302.38,365.62L304.42,366.35L308.52,367.82L310.58,367.9L312.63,369.4L314.67,369.65L320.83,371.01L322.88,371.37L326.97,373.18L329.03,372.99L353.62,378.05L355.67,377.65L361.83,378.35L363.87,378.51L367.98,378.95L370.03,379.44L374.12,380.01L376.17,380.36L419.23,383L421.28,382.78L470.48,384.04L472.53,384.03L501.23,384.56L503.28,384.44L519.67,384.61L521.72,384.61L544.28,384.79L546.32,384.71L577.07,384.84L579.13,384.88L626.28,384.9L628.32,384.92L710.33,384.99L712.37,384.98L741.08,384.98L743.12,384.99L891.75,384.99L893.8,384.97L1025,384.93" style="vector-effect: none; fill: none; stroke: rgb(241, 92, 128); stroke-opacity: 1; stroke-width: 2px; opacity: 1;"/></g><g class="points"/><g class="text"/></g><g class="trace scatter trace97a6c0" style="stroke-miterlimit: 2; opacity: 1;"><g class="fills"/><g class="errorbars"/><g class="lines"><path class="js-line" d="M0,385L59.45,384.47L61.5,383.87L63.55,380.97L65.6,376.15L71.75,363.92L73.8,358.55L75.85,352.5L77.9,343.05L86.1,294.52L88.15,273.67L94.3,213.43L96.35,197.09L98.4,178.09L100.45,149.79L102.5,122.16L104.55,106.07L106.6,96.43L108.65,81.91L112.75,46.92L114.8,39.15L118.9,41.23L120.95,35.8L123,23.12L125.05,19.25L127.1,28.06L129.15,43.09L133.25,40.53L135.3,47.98L139.4,70.38L141.45,76.65L145.55,83.69L147.6,95.91L151.7,121.11L153.75,126.98L155.8,131.63L157.85,140.87L161.95,164.12L164,167.23L168.1,181.82L170.15,192.17L176.3,215.13L178.35,217.99L180.4,223.59L182.45,232.44L184.5,235.06L186.55,243.98L190.65,253.05L192.7,259.9L194.75,265.23L196.8,267.33L198.85,273.06L200.9,276.18L202.95,279.36L205,284.63L207.05,289.26L209.1,290.3L211.15,291.91L213.2,298.46L217.3,306.83L219.35,308.58L225.5,316.39L227.55,320.09L229.6,320.14L231.65,322.78L233.7,326.64L235.75,327.89L243.95,335.55L246,338.79L250.1,341.34L252.15,343.31L254.2,345.35L257.27,346.69L261.38,348.93L263.42,350.99L265.47,351.28L267.52,352.82L271.63,355.68L273.67,356.95L275.72,357.02L277.77,358.14L281.88,360.39L283.92,360.27L290.08,364.27L292.13,364.85L300.33,367.31L302.38,368.56L304.42,369.69L306.47,369.94L310.58,369.97L312.63,370.94L316.72,371.19L318.77,371.62L324.92,373.42L326.97,373.57L333.12,375.73L335.17,376.41L341.33,375.63L343.37,377.4L349.53,377.42L351.58,378.35L365.92,379.8L367.98,380L376.17,380.35L378.23,380.78L382.33,381.45L384.37,381.39L390.53,381.29L392.58,381.49L402.83,382.5L404.87,382.44L415.12,383.06L417.17,383.1L423.33,383.33L425.37,383.71L433.58,383.68L435.62,383.74L449.98,383.89L452.03,384.02L466.37,384.06L468.42,384.24L515.57,384.69L517.63,384.78L562.72,384.93L564.78,384.92L632.42,384.95L634.47,384.96L706.22,384.98L708.28,384.98L1025,384.97" style="vector-effect: none; fill: none; stroke: rgb(228, 211, 84); stroke-opacity: 1; stroke-width: 2px; opacity: 1;"/></g><g class="points"/><g class="text"/></g><g class="trace scatter trace37d1f2" style="stroke-miterlimit: 2; opacity: 1;"><g class="fills"/><g class="errorbars"/><g class="lines"><path class="js-line" d="M0,385L59.45,384.29L61.5,383.78L63.55,380.11L65.6,374.5L67.65,371.03L69.7,364.88L75.85,350.99L77.9,340.1L84.05,302.56L86.1,291.79L90.2,248.45L92.25,224.97L94.3,206.77L96.35,196.82L98.4,177.87L100.45,148.93L102.5,126.92L104.55,114.29L114.8,47.13L116.85,54.52L118.9,54.29L120.95,48.74L123,39.87L125.05,37.38L127.1,47.8L129.15,53.86L133.25,50.27L135.3,52.65L139.4,70.3L141.45,80.65L143.5,85.31L145.55,93.94L149.65,114.37L151.7,117.43L155.8,132.43L157.85,140.4L161.95,161.08L164,166.42L168.1,174.87L170.15,186.53L176.3,204.98L178.35,210.67L180.4,221.33L182.45,228L184.5,233.78L186.55,236.58L194.75,258.31L196.8,261.34L198.85,264.54L200.9,270.31L205,280.32L207.05,284.28L209.1,286.59L211.15,291.74L213.2,295.73L215.25,297.61L227.55,319L229.6,318.71L231.65,319.73L233.7,323.59L237.8,330.39L239.85,331.69L241.9,331.95L243.95,334.41L246,337.91L248.05,338.37L252.15,340.35L254.2,343.36L261.38,348.83L263.42,349.62L267.52,352.81L269.58,354.01L273.67,356.6L275.72,356.75L283.92,360.7L285.97,361.14L290.08,364.28L292.13,364.29L296.22,367.11L298.27,366.94L312.63,371.41L314.67,372.73L326.97,374.22L329.03,374.62L333.12,375.68L335.17,376.12L341.33,377.02L343.37,377.97L347.48,377.92L349.53,378.43L367.98,379.95L370.03,379.71L374.12,380.54L376.17,380.27L382.33,381.47L384.37,381.61L388.48,381.56L390.53,381.79L396.67,382.09L398.73,382.16L433.58,383.58L435.62,383.54L441.78,383.81L443.83,383.99L452.03,384.14L454.08,384.27L464.32,384.36L466.37,384.44L482.78,384.24L484.82,384.47L511.48,384.74L513.53,384.61L540.17,384.94L542.22,384.91L566.82,384.87L568.88,384.89L695.97,384.93L698.03,384.97L848.7,384.98L850.75,384.99L1004.5,384.99L1006.55,384.99L1025,385" style="vector-effect: none; fill: none; stroke: rgb(43, 144, 143); stroke-opacity: 1; stroke-width: 2px; opacity: 1;"/></g><g class="points"/><g class="text"/></g></g></g></g><g class="zerolinelayer-above"/><path class="xlines-above crisp" d="M0,0" style="fill: none;"/><path class="ylines-above crisp" d="M0,0" style="fill: none;"/><g class="overlines-above"/><g class="xaxislayer-above"><g class="xtick"><text text-anchor="middle" x="0" y="451" transform="translate(60,0)" style="font-family: system-ui, -apple-system, 'Segoe UI', Roboto, 'Helvetica Neue', 'Noto Sans', 'Liberation Sans', Arial, sans-serif, 'Apple Color Emoji', 'Segoe UI Emoji', 'Segoe UI Symbol', 'Noto Color Emoji'; font-size: 10px; fill: rgb(80, 80, 80); fill-opacity: 1; white-space: pre;">0 bp</text></g><g class="xtick"><text text-anchor="middle" x="0" y="451" style="font-family: system-ui, -apple-system, 'Segoe UI', Roboto, 'Helvetica Neue', 'Noto Sans', 'Liberation Sans', Arial, sans-serif, 'Apple Color Emoji', 'Segoe UI Emoji', 'Segoe UI Symbol', 'Noto Color Emoji'; font-size: 10px; fill: rgb(80, 80, 80); fill-opacity: 1; white-space: pre;" transform="translate(265,0)">200 bp</text></g><g class="xtick"><text text-anchor="middle" x="0" y="451" style="font-family: system-ui, -apple-system, 'Segoe UI', Roboto, 'Helvetica Neue', 'Noto Sans', 'Liberation Sans', Arial, sans-serif, 'Apple Color Emoji', 'Segoe UI Emoji', 'Segoe UI Symbol', 'Noto Color Emoji'; font-size: 10px; fill: rgb(80, 80, 80); fill-opacity: 1; white-space: pre;" transform="translate(470,0)">400 bp</text></g><g class="xtick"><text text-anchor="middle" x="0" y="451" style="font-family: system-ui, -apple-system, 'Segoe UI', Roboto, 'Helvetica Neue', 'Noto Sans', 'Liberation Sans', Arial, sans-serif, 'Apple Color Emoji', 'Segoe UI Emoji', 'Segoe UI Symbol', 'Noto Color Emoji'; font-size: 10px; fill: rgb(80, 80, 80); fill-opacity: 1; white-space: pre;" transform="translate(675,0)">600 bp</text></g><g class="xtick"><text text-anchor="middle" x="0" y="451" style="font-family: system-ui, -apple-system, 'Segoe UI', Roboto, 'Helvetica Neue', 'Noto Sans', 'Liberation Sans', Arial, sans-serif, 'Apple Color Emoji', 'Segoe UI Emoji', 'Segoe UI Symbol', 'Noto Color Emoji'; font-size: 10px; fill: rgb(80, 80, 80); fill-opacity: 1; white-space: pre;" transform="translate(880,0)">800 bp</text></g><g class="xtick"/></g><g class="yaxislayer-above"><g class="ytick"><text text-anchor="end" x="54" y="3.5" transform="translate(0,435)" style="font-family: system-ui, -apple-system, 'Segoe UI', Roboto, 'Helvetica Neue', 'Noto Sans', 'Liberation Sans', Arial, sans-serif, 'Apple Color Emoji', 'Segoe UI Emoji', 'Segoe UI Symbol', 'Noto Color Emoji'; font-size: 10px; fill: rgb(80, 80, 80); fill-opacity: 1; white-space: pre;">0</text></g><g class="ytick"><text text-anchor="end" x="54" y="3.5" style="font-family: system-ui, -apple-system, 'Segoe UI', Roboto, 'Helvetica Neue', 'Noto Sans', 'Liberation Sans', Arial, sans-serif, 'Apple Color Emoji', 'Segoe UI Emoji', 'Segoe UI Symbol', 'Noto Color Emoji'; font-size: 10px; fill: rgb(80, 80, 80); fill-opacity: 1; white-space: pre;" transform="translate(0,368.25)">0.002</text></g><g class="ytick"><text text-anchor="end" x="54" y="3.5" style="font-family: system-ui, -apple-system, 'Segoe UI', Roboto, 'Helvetica Neue', 'Noto Sans', 'Liberation Sans', Arial, sans-serif, 'Apple Color Emoji', 'Segoe UI Emoji', 'Segoe UI Symbol', 'Noto Color Emoji'; font-size: 10px; fill: rgb(80, 80, 80); fill-opacity: 1; white-space: pre;" transform="translate(0,301.5)">0.004</text></g><g class="ytick"><text text-anchor="end" x="54" y="3.5" style="font-family: system-ui, -apple-system, 'Segoe UI', Roboto, 'Helvetica Neue', 'Noto Sans', 'Liberation Sans', Arial, sans-serif, 'Apple Color Emoji', 'Segoe UI Emoji', 'Segoe UI Symbol', 'Noto Color Emoji'; font-size: 10px; fill: rgb(80, 80, 80); fill-opacity: 1; white-space: pre;" transform="translate(0,234.74)">0.006</text></g><g class="ytick"><text text-anchor="end" x="54" y="3.5" style="font-family: system-ui, -apple-system, 'Segoe UI', Roboto, 'Helvetica Neue', 'Noto Sans', 'Liberation Sans', Arial, sans-serif, 'Apple Color Emoji', 'Segoe UI Emoji', 'Segoe UI Symbol', 'Noto Color Emoji'; font-size: 10px; fill: rgb(80, 80, 80); fill-opacity: 1; white-space: pre;" transform="translate(0,167.99)">0.008</text></g><g class="ytick"><text text-anchor="end" x="54" y="3.5" style="font-family: system-ui, -apple-system, 'Segoe UI', Roboto, 'Helvetica Neue', 'Noto Sans', 'Liberation Sans', Arial, sans-serif, 'Apple Color Emoji', 'Segoe UI Emoji', 'Segoe UI Symbol', 'Noto Color Emoji'; font-size: 10px; fill: rgb(80, 80, 80); fill-opacity: 1; white-space: pre;" transform="translate(0,101.24000000000001)">0.01</text></g></g><g class="overaxes-above"/></g></g><g class="polarlayer"/><g class="smithlayer"/><g class="ternarylayer"/><g class="geolayer"/><g class="funnelarealayer"/><g class="pielayer"/><g class="iciclelayer"/><g class="treemaplayer"/><g class="sunburstlayer"/><g class="glimages"/><defs id="topdefs-54f002"><g class="clips"/></defs><g class="layer-above"><g class="imagelayer"/><g class="shapelayer"/></g><g class="infolayer"><g class="g-gtitle"><text class="gtitle" x="550" y="25" text-anchor="middle" dy="0em" style="opacity: 1; font-family: system-ui, -apple-system, 'Segoe UI', Roboto, 'Helvetica Neue', 'Noto Sans', 'Liberation Sans', Arial, sans-serif, 'Apple Color Emoji', 'Segoe UI Emoji', 'Segoe UI Symbol', 'Noto Color Emoji'; font-size: 20px; fill: rgb(60, 60, 60); fill-opacity: 1; white-space: pre;"><tspan class="line" dy="0em" x="550" y="25">Salmon: Fragment Length Distribution</tspan><tspan class="line" dy="1.3em" x="550" y="25">​<tspan style="font-size:70%" dy="-0.6em">8 lines</tspan><tspan dy="0.42em">​</tspan></tspan></text></g><g class="g-xtitle"><text class="xtitle" x="572.5" y="487" text-anchor="middle" style="opacity: 1; font-family: system-ui, -apple-system, 'Segoe UI', Roboto, 'Helvetica Neue', 'Noto Sans', 'Liberation Sans', Arial, sans-serif, 'Apple Color Emoji', 'Segoe UI Emoji', 'Segoe UI Symbol', 'Noto Color Emoji'; font-size: 14px; fill: rgb(100, 100, 100); fill-opacity: 1; white-space: pre;">Fragment Length (bp)</text></g><g class="g-ytitle" transform="translate(-1.640625,0)"><text class="ytitle" transform="rotate(-90,22,242.5)" x="22" y="242.5" text-anchor="middle" style="opacity: 1; font-family: system-ui, -apple-system, 'Segoe UI', Roboto, 'Helvetica Neue', 'Noto Sans', 'Liberation Sans', Arial, sans-serif, 'Apple Color Emoji', 'Segoe UI Emoji', 'Segoe UI Symbol', 'Noto Color Emoji'; font-size: 14px; fill: rgb(100, 100, 100); fill-opacity: 1; white-space: pre;">Fraction</text></g></g></svg>